<svg width="173" height="176" viewBox="0 0 173 176" fill="none" xmlns="http://www.w3.org/2000/svg">
<g filter="url(#filter0_d_149_804)">
<path d="M5 130.407L5 171H45.5927V130.407H5Z" fill="url(#paint0_linear_149_804)"/>
<path d="M32.2744 46.5384V105.87H61.9602V46.5384L47.1173 40.1072L32.2744 46.5384Z" fill="url(#paint1_linear_149_804)"/>
<path d="M32.2747 105.87L5 130.402H45.5927L61.9556 105.87H32.2747Z" fill="url(#paint2_linear_149_804)"/>
<path d="M24.282 159.22C22.8153 159.22 21.598 159.015 20.63 158.604C19.662 158.179 18.9287 157.629 18.43 156.954C17.9313 156.279 17.6673 155.561 17.638 154.798C17.638 154.681 17.682 154.578 17.77 154.49C17.8727 154.387 17.99 154.336 18.122 154.336H20.894C21.0993 154.336 21.2533 154.373 21.356 154.446C21.4733 154.519 21.576 154.615 21.664 154.732C21.7813 154.952 21.9427 155.165 22.148 155.37C22.368 155.575 22.6467 155.744 22.984 155.876C23.336 155.993 23.7687 156.052 24.282 156.052C25.1327 156.052 25.7707 155.92 26.196 155.656C26.636 155.392 26.856 155.033 26.856 154.578C26.856 154.255 26.7387 153.991 26.504 153.786C26.2693 153.566 25.888 153.375 25.36 153.214C24.8467 153.038 24.1573 152.862 23.292 152.686C22.1773 152.451 21.224 152.151 20.432 151.784C19.6547 151.403 19.0607 150.911 18.65 150.31C18.2393 149.694 18.034 148.931 18.034 148.022C18.034 147.127 18.2833 146.328 18.782 145.624C19.2953 144.92 20.0067 144.37 20.916 143.974C21.8253 143.578 22.9033 143.38 24.15 143.38C25.162 143.38 26.0493 143.512 26.812 143.776C27.5893 144.04 28.242 144.392 28.77 144.832C29.298 145.272 29.694 145.741 29.958 146.24C30.2367 146.724 30.3833 147.201 30.398 147.67C30.398 147.787 30.354 147.897 30.266 148C30.178 148.088 30.068 148.132 29.936 148.132H27.032C26.8707 148.132 26.7313 148.103 26.614 148.044C26.4967 147.985 26.394 147.89 26.306 147.758C26.218 147.435 25.9833 147.157 25.602 146.922C25.2353 146.673 24.7513 146.548 24.15 146.548C23.5047 146.548 22.9987 146.665 22.632 146.9C22.28 147.12 22.104 147.465 22.104 147.934C22.104 148.227 22.1993 148.484 22.39 148.704C22.5953 148.924 22.9253 149.115 23.38 149.276C23.8493 149.437 24.4873 149.606 25.294 149.782C26.6287 150.031 27.7067 150.347 28.528 150.728C29.3493 151.095 29.9507 151.579 30.332 152.18C30.7133 152.767 30.904 153.507 30.904 154.402C30.904 155.399 30.618 156.265 30.046 156.998C29.4887 157.717 28.7113 158.267 27.714 158.648C26.7167 159.029 25.5727 159.22 24.282 159.22Z" fill="white"/>
<path d="M45.5928 130.407V171H86.1855V130.407H45.5928Z" fill="url(#paint3_linear_149_804)"/>
<path d="M61.96 32.0173V105.87H91.6408V32.0173L76.7979 25.5811L61.96 32.0173Z" fill="url(#paint4_linear_149_804)"/>
<path d="M61.9556 105.87L45.5928 130.402H86.1855L91.6414 105.87H61.9556Z" fill="url(#paint5_linear_149_804)"/>
<path d="M58.09 159C57.9433 159 57.8113 158.949 57.694 158.846C57.5913 158.743 57.54 158.611 57.54 158.45V144.15C57.54 143.989 57.5913 143.857 57.694 143.754C57.8113 143.651 57.9433 143.6 58.09 143.6H60.466C60.7007 143.6 60.8767 143.666 60.994 143.798C61.126 143.915 61.2067 144.011 61.236 144.084L65.108 151.036L68.98 144.084C69.024 144.011 69.0973 143.915 69.2 143.798C69.3173 143.666 69.5007 143.6 69.75 143.6H72.104C72.2653 143.6 72.3973 143.651 72.5 143.754C72.6173 143.857 72.676 143.989 72.676 144.15V158.45C72.676 158.611 72.6173 158.743 72.5 158.846C72.3973 158.949 72.2653 159 72.104 159H69.486C69.3247 159 69.1853 158.949 69.068 158.846C68.9653 158.743 68.914 158.611 68.914 158.45V150.2L66.428 154.798C66.3693 154.93 66.2813 155.047 66.164 155.15C66.0467 155.253 65.8853 155.304 65.68 155.304H64.536C64.3307 155.304 64.1693 155.253 64.052 155.15C63.9347 155.047 63.8393 154.93 63.766 154.798L61.28 150.2V158.45C61.28 158.611 61.2287 158.743 61.126 158.846C61.0233 158.949 60.8913 159 60.73 159H58.09Z" fill="#5D6184"/>
<path d="M86.1934 130.407V171H126.786V130.407H86.1934Z" fill="url(#paint6_linear_149_804)"/>
<path d="M91.6494 21.0906V105.87H121.335V21.0906L106.75 14.6544L91.6494 21.0906Z" fill="url(#paint7_linear_149_804)"/>
<path d="M91.6493 105.871L86.1934 130.403H126.791L121.335 105.871H91.6493Z" fill="url(#paint8_linear_149_804)"/>
<path d="M101.09 159C100.929 159 100.797 158.949 100.694 158.846C100.591 158.743 100.54 158.611 100.54 158.45V144.15C100.54 143.989 100.591 143.857 100.694 143.754C100.797 143.651 100.929 143.6 101.09 143.6H103.994C104.141 143.6 104.265 143.651 104.368 143.754C104.485 143.857 104.544 143.989 104.544 144.15V155.678H111.188C111.349 155.678 111.481 155.737 111.584 155.854C111.701 155.957 111.76 156.089 111.76 156.25V158.45C111.76 158.611 111.701 158.743 111.584 158.846C111.481 158.949 111.349 159 111.188 159H101.09Z" fill="#5D6184"/>
<path d="M126.779 130.402V170.995H167.372V130.402H126.779Z" fill="url(#paint9_linear_149_804)"/>
<path d="M121.328 11.4362V105.87H151.014V11.4362L136.171 5L121.328 11.4362Z" fill="url(#paint10_linear_149_804)"/>
<path d="M121.328 105.87L126.784 130.402H167.377L151.014 105.87H121.328Z" fill="url(#paint11_linear_149_804)"/>
<path d="M135.045 159C134.913 159 134.796 158.956 134.693 158.868C134.605 158.765 134.561 158.655 134.561 158.538C134.561 158.494 134.569 158.45 134.583 158.406C134.598 158.362 134.62 158.318 134.649 158.274L139.445 151.146L135.001 144.326C134.957 144.238 134.935 144.15 134.935 144.062C134.935 143.945 134.979 143.842 135.067 143.754C135.155 143.651 135.265 143.6 135.397 143.6H138.587C138.807 143.6 138.976 143.659 139.093 143.776C139.211 143.879 139.291 143.974 139.335 144.062L141.975 148.066L144.637 144.062C144.696 143.974 144.784 143.879 144.901 143.776C145.019 143.659 145.187 143.6 145.407 143.6H148.421C148.553 143.6 148.663 143.651 148.751 143.754C148.854 143.842 148.905 143.945 148.905 144.062C148.905 144.165 148.876 144.253 148.817 144.326L144.351 151.124L149.191 158.274C149.221 158.318 149.235 158.362 149.235 158.406C149.25 158.45 149.257 158.494 149.257 158.538C149.257 158.655 149.213 158.765 149.125 158.868C149.037 158.956 148.927 159 148.795 159H145.517C145.297 159 145.121 158.949 144.989 158.846C144.872 158.729 144.791 158.633 144.747 158.56L141.821 154.336L138.961 158.56C138.917 158.633 138.837 158.729 138.719 158.846C138.602 158.949 138.433 159 138.213 159H135.045ZM151.599 159C151.437 159 151.305 158.949 151.203 158.846C151.1 158.743 151.049 158.611 151.049 158.45V144.15C151.049 143.989 151.1 143.857 151.203 143.754C151.305 143.651 151.437 143.6 151.599 143.6H154.503C154.649 143.6 154.774 143.651 154.877 143.754C154.994 143.857 155.053 143.989 155.053 144.15V155.678H161.697C161.858 155.678 161.99 155.737 162.093 155.854C162.21 155.957 162.269 156.089 162.269 156.25V158.45C162.269 158.611 162.21 158.743 162.093 158.846C161.99 158.949 161.858 159 161.697 159H151.599Z" fill="#5D6184"/>
</g>
<defs>
<filter id="filter0_d_149_804" x="0.0490623" y="0.0490623" width="172.279" height="175.902" filterUnits="userSpaceOnUse" color-interpolation-filters="sRGB">
<feFlood flood-opacity="0" result="BackgroundImageFix"/>
<feColorMatrix in="SourceAlpha" type="matrix" values="0 0 0 0 0 0 0 0 0 0 0 0 0 0 0 0 0 0 127 0" result="hardAlpha"/>
<feOffset/>
<feGaussianBlur stdDeviation="2.47547"/>
<feColorMatrix type="matrix" values="0 0 0 0 0 0 0 0 0 0 0 0 0 0 0 0 0 0 0.15 0"/>
<feBlend mode="normal" in2="BackgroundImageFix" result="effect1_dropShadow_149_804"/>
<feBlend mode="normal" in="SourceGraphic" in2="effect1_dropShadow_149_804" result="shape"/>
</filter>
<linearGradient id="paint0_linear_149_804" x1="2.52453" y1="134.467" x2="25.2988" y2="181.501" gradientUnits="userSpaceOnUse">
<stop stop-color="#DB0952"/>
<stop offset="1" stop-color="#AA0E44"/>
</linearGradient>
<linearGradient id="paint1_linear_149_804" x1="47.1173" y1="40.1072" x2="47.1173" y2="105.87" gradientUnits="userSpaceOnUse">
<stop stop-color="#DB0952"/>
<stop offset="1" stop-color="#AA0E44"/>
</linearGradient>
<linearGradient id="paint2_linear_149_804" x1="33.4778" y1="105.87" x2="33.4778" y2="130.402" gradientUnits="userSpaceOnUse">
<stop stop-color="#DB0952"/>
<stop offset="1" stop-color="#AA0E44"/>
</linearGradient>
<linearGradient id="paint3_linear_149_804" x1="57.7274" y1="130.259" x2="78.2738" y2="170.856" gradientUnits="userSpaceOnUse">
<stop stop-color="#30334A"/>
<stop offset="1" stop-color="#25283A"/>
</linearGradient>
<linearGradient id="paint4_linear_149_804" x1="76.8004" y1="25.5811" x2="76.8004" y2="105.87" gradientUnits="userSpaceOnUse">
<stop stop-color="#30334A"/>
<stop offset="1" stop-color="#25283A"/>
</linearGradient>
<linearGradient id="paint5_linear_149_804" x1="68.6171" y1="105.87" x2="68.6171" y2="130.402" gradientUnits="userSpaceOnUse">
<stop stop-color="#30334A"/>
<stop offset="1" stop-color="#25283A"/>
</linearGradient>
<linearGradient id="paint6_linear_149_804" x1="98.328" y1="130.259" x2="118.874" y2="170.857" gradientUnits="userSpaceOnUse">
<stop stop-color="#30334A"/>
<stop offset="1" stop-color="#25283A"/>
</linearGradient>
<linearGradient id="paint7_linear_149_804" x1="106.492" y1="14.6544" x2="106.492" y2="105.87" gradientUnits="userSpaceOnUse">
<stop stop-color="#30334A"/>
<stop offset="1" stop-color="#25283A"/>
</linearGradient>
<linearGradient id="paint8_linear_149_804" x1="106.492" y1="105.871" x2="106.492" y2="130.403" gradientUnits="userSpaceOnUse">
<stop stop-color="#30334A"/>
<stop offset="1" stop-color="#25283A"/>
</linearGradient>
<linearGradient id="paint9_linear_149_804" x1="138.914" y1="130.254" x2="159.46" y2="170.852" gradientUnits="userSpaceOnUse">
<stop stop-color="#30334A"/>
<stop offset="1" stop-color="#25283A"/>
</linearGradient>
<linearGradient id="paint10_linear_149_804" x1="136.171" y1="5" x2="136.171" y2="105.87" gradientUnits="userSpaceOnUse">
<stop stop-color="#30334A"/>
<stop offset="1" stop-color="#25283A"/>
</linearGradient>
<linearGradient id="paint11_linear_149_804" x1="144.352" y1="105.87" x2="144.352" y2="130.402" gradientUnits="userSpaceOnUse">
<stop stop-color="#30334A"/>
<stop offset="1" stop-color="#25283A"/>
</linearGradient>
</defs>
</svg>
