<svg width="68" height="66" viewBox="0 0 68 66" fill="none" xmlns="http://www.w3.org/2000/svg">
<path d="M67.0457 9.44321C67.0463 8.96396 66.9521 8.48927 66.7684 8.0463C66.5847 7.60333 66.3151 7.20076 65.975 6.86163C65.6349 6.52249 65.2309 6.25343 64.7863 6.06985C64.3417 5.88626 63.8651 5.79175 63.3837 5.79172H61.7815C61.5031 5.79172 61.2361 5.90183 61.0392 6.09784C60.8424 6.29384 60.7318 6.55968 60.7318 6.83687C60.7318 7.11406 60.8424 7.37989 61.0392 7.5759C61.2361 7.7719 61.5031 7.88201 61.7815 7.88201H63.3837C63.5891 7.88201 63.7924 7.92232 63.9821 8.00062C64.1718 8.07892 64.3442 8.19369 64.4893 8.33836C64.6345 8.48302 64.7495 8.65476 64.8279 8.84373C64.9064 9.03271 64.9466 9.23522 64.9464 9.43969L64.9018 39.7015C64.8993 40.5804 64.5472 41.4225 63.9226 42.0436C63.2979 42.6646 62.4516 43.014 61.5688 43.0153H5.43452C4.55083 43.0143 3.70362 42.6643 3.07875 42.0422C2.45389 41.42 2.1024 40.5765 2.10139 39.6966V9.43787C2.10184 9.02539 2.26661 8.62993 2.55954 8.33825C2.85246 8.04657 3.24964 7.88249 3.66392 7.88201H5.30462C5.58302 7.88201 5.85002 7.7719 6.04688 7.5759C6.24374 7.37989 6.35433 7.11406 6.35433 6.83687C6.35433 6.55968 6.24374 6.29384 6.04688 6.09784C5.85002 5.90183 5.58302 5.79172 5.30462 5.79172H3.66392C2.69307 5.79296 1.76234 6.17751 1.07586 6.86103C0.389374 7.54455 0.00317705 8.47124 0.00196429 9.43787L0 50.1636C0.00124741 51.1302 0.38746 52.0569 1.07394 52.7404C1.76042 53.4239 2.69113 53.8084 3.66195 53.8096H27.0381V59.4262C27.0381 60.7679 27.0381 63.9097 20.4051 63.9097H18.3788C18.1004 63.9097 17.8334 64.0198 17.6365 64.2158C17.4397 64.4118 17.3291 64.6777 17.3291 64.9549C17.3291 65.232 17.4397 65.4979 17.6365 65.6939C17.8334 65.8899 18.1004 66 18.3788 66H48.6688C48.9473 66 49.2142 65.8899 49.4111 65.6939C49.608 65.4979 49.7186 65.232 49.7186 64.9549C49.7186 64.6777 49.608 64.4118 49.4111 64.2158C49.2142 64.0198 48.9473 63.9097 48.6688 63.9097H46.6425C40.0095 63.9097 40.0095 60.7675 40.0095 59.4262V57.8446C40.0064 57.5694 39.8945 57.3066 39.6979 57.1131C39.5014 56.9196 39.2362 56.8111 38.9598 56.8111C38.6835 56.8111 38.4182 56.9196 38.2217 57.1131C38.0252 57.3066 37.9133 57.5694 37.9102 57.8446V59.4262C37.9102 60.1633 37.9102 61.8897 39.1411 63.4041C39.2879 63.5827 39.4463 63.7516 39.6152 63.9097H27.4327C27.6016 63.7516 27.7599 63.5827 27.9067 63.4041C29.1377 61.8897 29.1377 60.1633 29.1377 59.4262V53.8096H63.3857C64.3565 53.8084 65.2872 53.4239 65.9737 52.7404C66.6602 52.0569 67.0464 51.1302 67.0476 50.1636L67.0457 9.44321ZM63.3857 51.7195H3.66195C3.24765 51.719 2.85044 51.555 2.55749 51.2633C2.26453 50.9716 2.09975 50.5761 2.0993 50.1636V43.9621C3.05124 44.7041 4.22557 45.1068 5.43452 45.1059H61.5688C62.7972 45.1066 63.9892 44.6906 64.9483 43.9265V50.1636C64.9479 50.5761 64.7831 50.9716 64.4901 51.2633C64.1972 51.555 63.8 51.719 63.3857 51.7195Z" fill="white"/>
<path d="M35.5829 47.3236H31.4647C31.3259 47.3221 31.1881 47.348 31.0594 47.3998C30.9307 47.4516 30.8136 47.5284 30.7149 47.6256C30.6162 47.7228 30.5378 47.8385 30.4843 47.966C30.4308 48.0936 30.4033 48.2305 30.4033 48.3687C30.4033 48.5069 30.4308 48.6438 30.4843 48.7714C30.5378 48.8989 30.6162 49.0147 30.7149 49.1119C30.8136 49.209 30.9307 49.2858 31.0594 49.3376C31.1881 49.3894 31.3259 49.4153 31.4647 49.4138H35.5829C35.7217 49.4153 35.8595 49.3894 35.9882 49.3376C36.1169 49.2858 36.234 49.209 36.3327 49.1119C36.4315 49.0147 36.5098 48.8989 36.5633 48.7714C36.6168 48.6438 36.6443 48.5069 36.6443 48.3687C36.6443 48.2305 36.6168 48.0936 36.5633 47.966C36.5098 47.8385 36.4315 47.7228 36.3327 47.6256C36.234 47.5284 36.1169 47.4516 35.9882 47.3998C35.8595 47.348 35.7217 47.3221 35.5829 47.3236Z" fill="white"/>
<path d="M9.55167 40.1166C9.68951 40.1166 9.826 40.0896 9.95335 40.0371C10.0807 39.9846 10.1964 39.9076 10.2939 39.8106C10.3913 39.7135 10.4687 39.5983 10.5214 39.4715C10.5741 39.3447 10.6013 39.2088 10.6013 39.0716V10.7541H56.4464V39.0716C56.4495 39.3467 56.5614 39.6096 56.7579 39.8031C56.9544 39.9965 57.2197 40.1051 57.496 40.1051C57.7724 40.1051 58.0376 39.9965 58.2341 39.8031C58.4306 39.6096 58.5426 39.3467 58.5457 39.0716V5.36433C58.544 3.94209 57.9758 2.5786 56.9657 1.57295C55.9556 0.567303 54.5861 0.00162176 53.1576 0H13.89C12.4615 0.00162176 11.0921 0.567303 10.082 1.57295C9.07187 2.5786 8.50365 3.94209 8.50195 5.36433V39.0716C8.50195 39.2088 8.52911 39.3447 8.58186 39.4715C8.63461 39.5983 8.71194 39.7135 8.80942 39.8106C8.90689 39.9076 9.02261 39.9846 9.14997 40.0371C9.27732 40.0896 9.41382 40.1166 9.55167 40.1166ZM13.89 2.0899H53.1576C54.0296 2.09087 54.8655 2.43616 55.4821 3.05002C56.0986 3.66389 56.4454 4.49619 56.4464 5.36433V8.66378H10.6013V5.36433C10.6022 4.49619 10.949 3.66389 11.5656 3.05002C12.1821 2.43616 13.0181 2.09087 13.89 2.0899Z" fill="white"/>
<path d="M16.365 5.67575C16.621 5.06051 16.3276 4.35516 15.7096 4.10032C15.0917 3.84548 14.3833 4.13764 14.1273 4.75288C13.8714 5.36813 14.1648 6.07347 14.7827 6.32831C15.4007 6.58315 16.1091 6.29099 16.365 5.67575Z" fill="white"/>
<path d="M19.9123 5.67562C20.1683 5.06038 19.8749 4.35504 19.2569 4.1002C18.639 3.84535 17.9306 4.13752 17.6746 4.75276C17.4187 5.368 17.7121 6.07334 18.33 6.32818C18.948 6.58302 19.6564 6.29086 19.9123 5.67562Z" fill="white"/>
<path d="M23.4597 5.67574C23.7157 5.0605 23.4222 4.35516 22.8043 4.10032C22.1864 3.84548 21.478 4.13764 21.222 4.75288C20.9661 5.36812 21.2595 6.07346 21.8774 6.32831C22.4953 6.58315 23.2038 6.29099 23.4597 5.67574Z" fill="white"/>
<path d="M40.8501 6.12876H53.0124C53.1339 6.1302 53.2546 6.10762 53.3673 6.06231C53.48 6.017 53.5825 5.94988 53.669 5.86482C53.7554 5.77976 53.8241 5.67847 53.8709 5.56681C53.9178 5.45514 53.9419 5.33533 53.9419 5.21432C53.9419 5.09331 53.9178 4.9735 53.8709 4.86184C53.8241 4.75017 53.7554 4.64888 53.669 4.56382C53.5825 4.47876 53.48 4.41164 53.3673 4.36633C53.2546 4.32102 53.1339 4.29844 53.0124 4.29988H40.8501C40.7285 4.29844 40.6079 4.32102 40.4952 4.36633C40.3825 4.41164 40.28 4.47876 40.1935 4.56382C40.1071 4.64888 40.0384 4.75017 39.9916 4.86184C39.9447 4.9735 39.9206 5.09331 39.9206 5.21432C39.9206 5.33533 39.9447 5.45514 39.9916 5.56681C40.0384 5.67847 40.1071 5.77976 40.1935 5.86482C40.28 5.94988 40.3825 6.017 40.4952 6.06231C40.6079 6.10762 40.7285 6.1302 40.8501 6.12876Z" fill="white"/>
<path d="M53.945 15.7484C53.9445 15.2022 53.7263 14.6786 53.3384 14.2924C52.9505 13.9061 52.4246 13.6889 51.876 13.6883H15.1716C14.6231 13.6889 14.0971 13.9061 13.7092 14.2924C13.3213 14.6786 13.1032 15.2022 13.1026 15.7484V24.7839C13.1032 25.33 13.3214 25.8537 13.7093 26.2399C14.0972 26.6261 14.6231 26.8433 15.1716 26.8439H51.876C52.4246 26.8433 52.9505 26.6261 53.3384 26.2399C53.7262 25.8537 53.9444 25.33 53.945 24.7839V15.7484ZM52.1082 24.7839C52.1081 24.8452 52.0836 24.9039 52.0401 24.9473C51.9966 24.9906 51.9376 25.015 51.876 25.0151H15.1716C15.1101 25.015 15.051 24.9906 15.0075 24.9473C14.964 24.9039 14.9395 24.8452 14.9394 24.7839V15.7484C14.9395 15.6871 14.964 15.6284 15.0075 15.585C15.0511 15.5417 15.1101 15.5174 15.1716 15.5173H51.876C51.9375 15.5174 51.9966 15.5417 52.0401 15.585C52.0836 15.6284 52.1081 15.6871 52.1082 15.7484V24.7839Z" fill="white"/>
<path d="M30.0025 39.9245C30.1231 39.9245 30.2425 39.9009 30.354 39.8549C30.4654 39.809 30.5667 39.7416 30.6519 39.6567C30.7372 39.5718 30.8049 39.471 30.851 39.36C30.8971 39.2491 30.9209 39.1301 30.9209 39.01V31.6973C30.9203 31.1413 30.6982 30.6083 30.3034 30.2152C29.9085 29.822 29.3732 29.6009 28.8148 29.6003H15.2088C14.6504 29.6009 14.1151 29.822 13.7202 30.2152C13.3254 30.6083 13.1033 31.1413 13.1027 31.6973V39.0104C13.1013 39.1314 13.1239 39.2515 13.1694 39.3637C13.2149 39.476 13.2824 39.5781 13.3678 39.6641C13.4532 39.7502 13.555 39.8186 13.6671 39.8652C13.7793 39.9118 13.8996 39.9359 14.0211 39.9359C14.1427 39.9359 14.263 39.9118 14.3752 39.8652C14.4873 39.8186 14.5891 39.7502 14.6745 39.6641C14.7599 39.5781 14.8273 39.476 14.8728 39.3637C14.9183 39.2515 14.941 39.1314 14.9396 39.0104V31.6973C14.9396 31.6262 14.968 31.5581 15.0185 31.5078C15.069 31.4576 15.1374 31.4293 15.2088 31.4292H28.8148C28.8861 31.4293 28.9546 31.4576 29.0051 31.5078C29.0555 31.5581 29.0839 31.6262 29.084 31.6973V39.0104C29.0841 39.2529 29.1809 39.4854 29.3532 39.6568C29.5254 39.8283 29.759 39.9245 30.0025 39.9245Z" fill="white"/>
<path d="M53.0267 39.9245C53.1473 39.9245 53.2667 39.9009 53.3782 39.8549C53.4896 39.809 53.5908 39.7416 53.6761 39.6567C53.7614 39.5718 53.829 39.471 53.8752 39.36C53.9213 39.2491 53.9451 39.1301 53.9451 39.01V31.6973C53.9445 31.1413 53.7224 30.6083 53.3275 30.2152C52.9327 29.822 52.3973 29.6009 51.8389 29.6003H38.2329C37.6745 29.6009 37.1391 29.822 36.7443 30.2152C36.3494 30.6083 36.1273 31.1413 36.1268 31.6973V39.0104C36.1253 39.1314 36.148 39.2515 36.1935 39.3637C36.239 39.476 36.3064 39.5781 36.3918 39.6641C36.4773 39.7502 36.579 39.8186 36.6912 39.8652C36.8033 39.9118 36.9236 39.9359 37.0452 39.9359C37.1667 39.9359 37.2871 39.9118 37.3992 39.8652C37.5114 39.8186 37.6131 39.7502 37.6985 39.6641C37.784 39.5781 37.8514 39.476 37.8969 39.3637C37.9424 39.2515 37.9651 39.1314 37.9636 39.0104V31.6973C37.9637 31.6262 37.9921 31.5581 38.0426 31.5078C38.093 31.4576 38.1615 31.4293 38.2329 31.4292H51.8388C51.9102 31.4293 51.9786 31.4576 52.0291 31.5078C52.0796 31.5581 52.108 31.6262 52.1081 31.6973V39.0104C52.1082 39.2529 52.205 39.4855 52.3773 39.6569C52.5495 39.8283 52.7831 39.9246 53.0267 39.9245Z" fill="white"/>
</svg>
