<svg width="66" height="66" viewBox="0 0 66 66" fill="none" xmlns="http://www.w3.org/2000/svg">
<path fill-rule="evenodd" clip-rule="evenodd" d="M65.3179 27.6845L60.5441 25.847C59.8834 23.2967 58.8725 20.8584 57.5332 18.5841L59.6109 13.9062C59.7896 13.5038 59.7022 13.0328 59.3908 12.7214L53.2785 6.60933C52.9671 6.29796 52.4962 6.2104 52.0937 6.38911L47.4141 8.46758C45.1397 7.12841 42.7024 6.11779 40.1536 5.45725L38.3154 0.681957C38.1572 0.271186 37.7622 0 37.3218 0H28.6782C28.2378 0 27.843 0.271186 27.6847 0.68209L25.8466 5.45739C23.2976 6.11792 20.8601 7.12841 18.5861 8.46771L13.9063 6.38924C13.5037 6.21053 13.0329 6.29822 12.7215 6.60946L6.60931 12.7217C6.29794 13.033 6.21052 13.5039 6.38923 13.9065L8.4673 18.5856C7.12813 20.8599 6.11751 23.2975 5.45698 25.8469L0.682089 27.6848C0.271186 27.8429 0 28.2378 0 28.6783V37.3221C0 37.7626 0.271186 38.1574 0.682089 38.3156L5.45618 40.1531C6.11698 42.7037 7.12773 45.142 8.4669 47.4159L6.38923 52.0938C6.21052 52.4962 6.29794 52.9672 6.60931 53.2786L12.7218 59.3908C13.0334 59.7022 13.5042 59.7899 13.9066 59.6109L18.5861 57.5324C20.8605 58.8717 23.298 59.8824 25.8466 60.5428L27.6847 65.3179C27.8428 65.7288 28.2378 66 28.6782 66H37.3221C37.7625 66 38.1573 65.7288 38.3155 65.3179L40.153 60.5441C42.7036 59.8834 45.1419 58.8725 47.4159 57.5332L52.0938 59.6109C52.4965 59.7899 52.9671 59.7022 53.2786 59.3908L59.3908 53.2785C59.7022 52.9671 59.7896 52.4962 59.6109 52.0937L57.5326 47.414C58.8717 45.1394 59.8822 42.7021 60.5426 40.1534L65.3179 38.3153C65.7288 38.1573 66 37.7623 66 37.3219V28.678C66 28.2377 65.7288 27.8427 65.3179 27.6845ZM63.871 36.5911L59.2608 38.3655C58.9332 38.4915 58.6889 38.771 58.6077 39.1125C57.9628 41.8223 56.8931 44.4025 55.4282 46.7817C55.2441 47.0807 55.2194 47.451 55.3618 47.7719L57.3684 52.2899L52.29 57.3686L47.7735 55.3627C47.4528 55.2202 47.0824 55.2449 46.7832 55.4292C44.4048 56.8941 41.8239 57.964 39.1122 58.6092C38.7707 58.6905 38.4912 58.9348 38.3652 59.2624L36.5911 63.8711H29.4091L27.6344 59.2609C27.5084 58.9335 27.2289 58.689 26.8874 58.6077C24.1778 57.9629 21.5976 56.8932 19.2184 55.4283C18.9194 55.2441 18.5488 55.2194 18.2282 55.3619L13.7103 57.3685L8.63163 52.2899L10.6376 47.7736C10.78 47.4528 10.7552 47.0822 10.571 46.7833C9.10627 44.4051 8.03643 41.8241 7.39107 39.1123C7.3099 38.7708 7.06546 38.4913 6.73799 38.3652L2.12903 36.5912V29.409L6.73879 27.6348C7.06639 27.5088 7.3107 27.2292 7.39187 26.8877C8.03696 24.1773 9.1068 21.5968 10.5716 19.218C10.7557 18.919 10.7805 18.5486 10.6381 18.2277L8.63176 13.7102L13.7102 8.63151L18.2284 10.6381C18.5489 10.7806 18.9195 10.7559 19.2185 10.5717C21.5973 9.10695 24.1776 8.03725 26.8877 7.39228C27.229 7.31098 27.5086 7.06667 27.6346 6.73907L29.4093 2.12904H36.591L38.3657 6.7392C38.4917 7.06667 38.7713 7.31111 39.1126 7.39241C41.8226 8.03738 44.4028 9.10709 46.7818 10.5719C47.0806 10.756 47.4513 10.7808 47.7719 10.6383L52.29 8.63165L57.3685 13.7102L55.3626 18.2266C55.2202 18.5474 55.2449 18.918 55.4291 19.2168C56.894 21.5955 57.964 24.1764 58.6091 26.8879C58.6902 27.2293 58.9345 27.5089 59.2621 27.6349L63.871 29.4089V36.5911ZM29.0654 33.2368C28.932 33.1913 28.8022 33.1479 28.6779 33.1076C26.5466 32.4158 24.6386 33.1946 22.8932 34.1613V30.3225H23.8864C24.4897 30.3225 25.0346 29.9892 25.3437 29.4309C25.694 28.7985 25.6739 27.9966 25.2926 27.3875L20.3377 19.4758C20.0212 18.9706 19.4954 18.6691 18.9315 18.6691C18.3676 18.6691 17.8418 18.9706 17.5251 19.476L12.5705 27.3874C12.1892 27.996 12.169 28.798 12.5192 29.4305C12.8284 29.9891 13.3733 30.3225 13.9766 30.3225H14.9698V35.7739C14.4295 35.6634 13.8753 35.7476 13.3924 36.0209L11.0714 37.3347C9.97625 37.9545 9.58929 39.3499 10.2092 40.4452L17.0329 52.502C17.3325 53.0315 17.8216 53.4129 18.41 53.576C18.6135 53.6324 18.8201 53.6604 19.0254 53.6604C19.4138 53.6604 19.7972 53.5604 20.1434 53.3643L22.4645 52.0507C23.5596 51.4307 23.9464 50.0353 23.3266 48.9402L22.7845 47.9822L23.7851 47.4046L34.248 50.208C34.8618 50.3725 35.4726 50.4543 36.0735 50.4543C37.2897 50.4543 38.465 50.1193 39.5395 49.4578L54.5517 40.214C56.0657 39.2819 56.5523 36.9433 55.5727 35.3077C55.2027 34.6899 53.9406 33.115 51.0302 33.848V30.3228H52.0234C52.6268 30.3228 53.1716 29.9895 53.4808 29.4311C53.831 28.7988 53.8109 27.9968 53.4297 27.3878L48.4747 19.476C48.1582 18.9709 47.6324 18.6694 47.0685 18.6694C46.5046 18.6694 45.9788 18.9709 45.6622 19.4763L40.7075 27.3877C40.3263 27.9963 40.306 28.7983 40.6563 29.4307C40.9654 29.9893 41.5103 30.3228 42.1136 30.3228H43.1068V38.0338L39.949 39.873C39.7882 39.9667 39.6258 40.0489 39.4618 40.1197C39.4889 40.0393 39.5139 39.957 39.5365 39.8729C40.0049 38.1247 38.9713 36.3013 37.1836 35.7216C37.1379 35.7069 37.0913 35.6952 37.0441 35.6866C37.0299 35.6841 37.0156 35.6811 37.0014 35.6785L36.9953 21.3331H37.9882C38.5916 21.3331 39.1365 20.9998 39.4456 20.4413C39.7959 19.809 39.7758 19.007 39.3946 18.3981L34.4395 10.4862C34.1228 9.98106 33.5971 9.67953 33.0331 9.67953C32.4692 9.67966 31.9436 9.98132 31.627 10.4866L26.6724 18.3979C26.2912 19.0066 26.2709 19.8086 26.6212 20.4411C26.9303 20.9996 27.4752 21.3331 28.0785 21.3331H29.0715L29.0654 33.2368ZM44.1712 28.1935H42.7145L47.0685 21.2415L51.4225 28.1935H49.9657C49.3778 28.1935 48.9012 28.6701 48.9012 29.258V34.6809C48.681 34.7943 48.4544 34.9186 48.221 35.0546L45.2357 36.7933V29.258C45.2357 28.6701 44.759 28.1935 44.1712 28.1935ZM31.2004 20.2684C31.2004 19.6805 30.7238 19.2039 30.1359 19.2039H28.6793L33.0333 12.2519L37.3871 19.2039H35.9306C35.6483 19.2039 35.3776 19.3161 35.178 19.5157C34.9783 19.7153 34.8661 19.9861 34.8661 20.2684L34.8722 35.1875C33.5697 34.8313 32.317 34.3988 31.1943 33.9966L31.2004 20.2684ZM14.5776 28.1935L18.9316 21.2415L23.2856 28.1935H21.829C21.2411 28.1935 20.7645 28.6701 20.7645 29.258V35.3519L17.0988 37.4026V29.2582C17.0988 28.6703 16.6222 28.1936 16.0343 28.1936L14.5776 28.1935ZM21.4158 50.1978L19.0948 51.5114C19.0508 51.5364 19.0073 51.5323 18.9789 51.5243C18.9503 51.5163 18.9109 51.4975 18.8858 51.4534L12.0622 39.3965C12.022 39.3253 12.049 39.2275 12.1202 39.1873L14.4412 37.8737C14.4664 37.8595 14.4913 37.8547 14.5133 37.8547C14.53 37.8547 14.545 37.8575 14.5573 37.8608C14.5859 37.8688 14.6253 37.8875 14.6503 37.9317L21.474 49.9886C21.5141 50.0598 21.487 50.1576 21.4158 50.1978ZM53.4354 38.4009L38.4232 47.6446C37.3134 48.3279 36.0944 48.4988 34.7992 48.1515L23.9104 45.2339C23.638 45.1611 23.3472 45.1991 23.1027 45.3402L21.736 46.1293L17.9183 39.3839L23.8377 36.0723C25.4419 35.1749 26.7013 34.7048 28.0211 35.1328C28.5188 35.2942 29.096 35.5029 29.7644 35.7445C31.6928 36.4417 34.0877 37.3075 36.5857 37.7672C37.2702 38.0181 37.6529 38.6763 37.4799 39.322C37.411 39.5796 37.201 40.3575 35.9326 40.2146C34.7342 39.9671 33.5887 39.6403 32.3771 39.2943C31.795 39.128 31.193 38.956 30.5729 38.79C30.0058 38.638 29.4214 38.9749 29.2691 39.5427C29.1169 40.1105 29.4541 40.6943 30.0219 40.8465C30.6249 41.008 31.2184 41.1776 31.7923 41.3415C33.0613 41.704 34.2601 42.0462 35.5567 42.3114C35.5639 42.3129 35.5711 42.3134 35.5784 42.3147C35.5853 42.3161 35.5921 42.3181 35.5992 42.3191L36.6287 42.4865C38.2453 42.7451 39.682 42.4921 41.0203 41.7129L49.2926 36.8947C51.4642 35.63 53.171 35.441 53.7462 36.4017C54.1648 37.1005 53.9212 38.1018 53.4354 38.4009ZM14.9518 39.9148C15.0181 40.3676 14.7046 40.7885 14.2517 40.8546C13.7989 40.9208 13.3782 40.6074 13.3119 40.1546C13.2456 39.7017 13.5591 39.2809 14.012 39.2147C14.4648 39.1486 14.8855 39.462 14.9518 39.9148Z" fill="white"/>
</svg>
