<svg width="74" height="70" viewBox="0 0 74 70" fill="none" xmlns="http://www.w3.org/2000/svg">
<path d="M36.7955 66.8182C37.451 66.8182 37.9825 66.284 37.9825 65.625C37.9825 64.966 37.451 64.4318 36.7955 64.4318C36.1399 64.4318 35.6084 64.966 35.6084 65.625C35.6084 66.284 36.1399 66.8182 36.7955 66.8182Z" fill="white"/>
<path d="M36.7955 62.8409C37.451 62.8409 37.9825 62.3067 37.9825 61.6477C37.9825 60.9888 37.451 60.4545 36.7955 60.4545C36.1399 60.4545 35.6084 60.9888 35.6084 61.6477C35.6084 62.3067 36.1399 62.8409 36.7955 62.8409Z" fill="white"/>
<path d="M36.7955 58.8636C37.451 58.8636 37.9825 58.3294 37.9825 57.6705C37.9825 57.0115 37.451 56.4773 36.7955 56.4773C36.1399 56.4773 35.6084 57.0115 35.6084 57.6705C35.6084 58.3294 36.1399 58.8636 36.7955 58.8636Z" fill="white"/>
<path d="M36.7955 54.8864C37.451 54.8864 37.9825 54.3522 37.9825 53.6932C37.9825 53.0342 37.451 52.5 36.7955 52.5C36.1399 52.5 35.6084 53.0342 35.6084 53.6932C35.6084 54.3522 36.1399 54.8864 36.7955 54.8864Z" fill="white"/>
<path d="M64.2561 44.1477C64.9117 44.1477 65.4432 43.6135 65.4432 42.9545C65.4432 42.2956 64.9117 41.7614 64.2561 41.7614C63.6006 41.7614 63.0691 42.2956 63.0691 42.9545C63.0691 43.6135 63.6006 44.1477 64.2561 44.1477Z" fill="white"/>
<path d="M55.947 40.5682C56.6025 40.5682 57.134 40.034 57.134 39.375C57.134 38.716 56.6025 38.1818 55.947 38.1818C55.2914 38.1818 54.7599 38.716 54.7599 39.375C54.7599 40.034 55.2914 40.5682 55.947 40.5682Z" fill="white"/>
<path d="M59.9037 40.5682C60.5593 40.5682 61.0907 40.034 61.0907 39.375C61.0907 38.716 60.5593 38.1818 59.9037 38.1818C59.2481 38.1818 58.7167 38.716 58.7167 39.375C58.7167 40.034 59.2481 40.5682 59.9037 40.5682Z" fill="white"/>
<path d="M67.8172 44.5455C68.4728 44.5455 69.0043 44.0112 69.0043 43.3523C69.0043 42.6933 68.4728 42.1591 67.8172 42.1591C67.1617 42.1591 66.6302 42.6933 66.6302 43.3523C66.6302 44.0112 67.1617 44.5455 67.8172 44.5455Z" fill="white"/>
<path d="M63.8605 40.5682C64.5161 40.5682 65.0475 40.034 65.0475 39.375C65.0475 38.716 64.5161 38.1818 63.8605 38.1818C63.2049 38.1818 62.6735 38.716 62.6735 39.375C62.6735 40.034 63.2049 40.5682 63.8605 40.5682Z" fill="white"/>
<path d="M71.774 44.5455C72.4296 44.5455 72.961 44.0112 72.961 43.3523C72.961 42.6933 72.4296 42.1591 71.774 42.1591C71.1184 42.1591 70.587 42.6933 70.587 43.3523C70.587 44.0112 71.1184 44.5455 71.774 44.5455Z" fill="white"/>
<path d="M68.607 46.1364C66.1799 46.1364 64.1454 47.837 63.6072 50.1136H59.9021V43.3523C59.9021 42.6936 59.3704 42.1591 58.7151 42.1591H53.8127V36.1932H60.5392C61.1944 36.1932 61.7262 35.6586 61.7262 35V28.2386H63.4529C63.9911 30.5152 66.0256 32.2159 68.4527 32.2159C71.2889 32.2159 73.5965 29.8964 73.5965 27.0455C73.5965 24.1945 71.2889 21.875 68.4527 21.875C66.0256 21.875 63.9911 23.5757 63.4529 25.8523H60.5392C59.8839 25.8523 59.3521 26.3868 59.3521 27.0455V33.8068H53.8127V19.5324C53.8127 17.5342 52.196 15.9091 50.2081 15.9091H45.8992V3.01557C45.8984 1.35227 44.5531 0 42.8984 0H30.6973C29.0426 0 27.6973 1.35227 27.6973 3.01557V15.9091H23.3876C21.4005 15.9091 19.7838 17.5342 19.7838 19.5324V33.8068H14.2443V27.0455C14.2443 26.3868 13.7125 25.8523 13.0573 25.8523H10.1435C9.60542 23.5757 7.57086 21.875 5.14378 21.875C2.30758 21.875 0 24.1945 0 27.0455C0 29.8964 2.30758 32.2159 5.14378 32.2159C7.57086 32.2159 9.60542 30.5152 10.1435 28.2386H11.8703V35C11.8703 35.6586 12.4021 36.1932 13.0573 36.1932H19.7838V42.1591H15.0357C14.3804 42.1591 13.8487 42.6936 13.8487 43.3523V50.1136H10.1435C9.60542 47.837 7.57086 46.1364 5.14378 46.1364C2.30758 46.1364 0 48.4559 0 51.3068C0 54.1577 2.30758 56.4773 5.14378 56.4773C7.57086 56.4773 9.60542 54.7766 10.1435 52.5H15.0357C15.6909 52.5 16.2227 51.9655 16.2227 51.3068V44.5455H19.7838V46.4903C19.7838 48.4885 21.4005 50.1136 23.3876 50.1136H31.6541V55.6818H24.9276C24.2723 55.6818 23.7405 56.2164 23.7405 56.875V59.8039C21.4757 60.3448 19.7838 62.3899 19.7838 64.8295C19.7838 67.6805 22.0914 70 24.9276 70C27.7638 70 30.0714 67.6805 30.0714 64.8295C30.0714 62.3899 28.3794 60.3448 26.1146 59.8039V58.0682H32.8411C33.4963 58.0682 34.0281 57.5336 34.0281 56.875V50.1136H39.5676V56.875C39.5676 57.5336 40.0994 58.0682 40.7546 58.0682H47.4811V59.8039C45.2162 60.3448 43.5243 62.3899 43.5243 64.8295C43.5243 67.6805 45.8319 70 48.6681 70C51.5043 70 53.8119 67.6805 53.8119 64.8295C53.8119 62.3899 52.12 60.3448 49.8551 59.8039V56.875C49.8551 56.2164 49.3234 55.6818 48.6681 55.6818H41.9416V50.1136H50.2073C52.1952 50.1136 53.8119 48.4885 53.8119 46.4903V44.5455H57.5273V51.3068C57.5273 51.9655 58.0591 52.5 58.7143 52.5H63.6065C64.1446 54.7766 66.1791 56.4773 68.6062 56.4773C71.4424 56.4773 73.75 54.1577 73.75 51.3068C73.75 48.4559 71.4432 46.1364 68.607 46.1364ZM68.4519 24.2614C69.9792 24.2614 71.2216 25.5102 71.2216 27.0455C71.2216 28.5807 69.9792 29.8295 68.4519 29.8295C66.9246 29.8295 65.6822 28.5807 65.6822 27.0455C65.6822 25.5102 66.9254 24.2614 68.4519 24.2614ZM5.14378 29.8295C3.61648 29.8295 2.37405 28.5807 2.37405 27.0455C2.37405 25.5102 3.61648 24.2614 5.14378 24.2614C6.67109 24.2614 7.91351 25.5102 7.91351 27.0455C7.91351 28.5807 6.67109 29.8295 5.14378 29.8295ZM5.14378 54.0909C3.61648 54.0909 2.37405 52.842 2.37405 51.3068C2.37405 49.7716 3.61648 48.5227 5.14378 48.5227C6.67109 48.5227 7.91351 49.7716 7.91351 51.3068C7.91351 52.842 6.67109 54.0909 5.14378 54.0909ZM27.6973 64.8295C27.6973 66.3648 26.4549 67.6136 24.9276 67.6136C23.4003 67.6136 22.1578 66.3648 22.1578 64.8295C22.1578 63.2943 23.4003 62.0455 24.9276 62.0455C26.4549 62.0455 27.6973 63.2943 27.6973 64.8295ZM51.4378 64.8295C51.4378 66.3648 50.1954 67.6136 48.6681 67.6136C47.1408 67.6136 45.8984 66.3648 45.8984 64.8295C45.8984 63.2943 47.1408 62.0455 48.6681 62.0455C50.1954 62.0455 51.4378 63.2943 51.4378 64.8295ZM30.0714 3.01557C30.0714 2.66795 30.3523 2.38636 30.6973 2.38636H42.8984C43.2442 2.38636 43.5243 2.66795 43.5243 3.01557V15.9091H30.0714V3.01557ZM51.4378 46.4903C51.4378 47.172 50.8863 47.7273 50.2073 47.7273H23.3876C22.7102 47.7273 22.1578 47.1728 22.1578 46.4903V19.5324C22.1578 18.8507 22.7094 18.2955 23.3876 18.2955H50.2081C50.8863 18.2955 51.4386 18.8499 51.4386 19.5324L51.4378 46.4903ZM68.607 54.0909C67.0797 54.0909 65.8373 52.842 65.8373 51.3068C65.8373 49.7716 67.0797 48.5227 68.607 48.5227C70.1343 48.5227 71.3767 49.7716 71.3767 51.3068C71.3767 52.842 70.1335 54.0909 68.607 54.0909Z" fill="white"/>
<path d="M52.6225 58.0682C53.2781 58.0682 53.8095 57.534 53.8095 56.875C53.8095 56.216 53.2781 55.6818 52.6225 55.6818C51.9669 55.6818 51.4355 56.216 51.4355 56.875C51.4355 57.534 51.9669 58.0682 52.6225 58.0682Z" fill="white"/>
<path d="M56.5793 66.0227C57.2348 66.0227 57.7663 65.4885 57.7663 64.8295C57.7663 64.1706 57.2348 63.6364 56.5793 63.6364C55.9237 63.6364 55.3922 64.1706 55.3922 64.8295C55.3922 65.4885 55.9237 66.0227 56.5793 66.0227Z" fill="white"/>
<path d="M56.5793 62.0455C57.2348 62.0455 57.7663 61.5112 57.7663 60.8523C57.7663 60.1933 57.2348 59.6591 56.5793 59.6591C55.9237 59.6591 55.3922 60.1933 55.3922 60.8523C55.3922 61.5112 55.9237 62.0455 56.5793 62.0455Z" fill="white"/>
<path d="M56.5793 58.0682C57.2348 58.0682 57.7663 57.534 57.7663 56.875C57.7663 56.216 57.2348 55.6818 56.5793 55.6818C55.9237 55.6818 55.3922 56.216 55.3922 56.875C55.3922 57.534 55.9237 58.0682 56.5793 58.0682Z" fill="white"/>
<path d="M52.6225 54.0909C53.2781 54.0909 53.8095 53.5567 53.8095 52.8977C53.8095 52.2388 53.2781 51.7045 52.6225 51.7045C51.9669 51.7045 51.4355 52.2388 51.4355 52.8977C51.4355 53.5567 51.9669 54.0909 52.6225 54.0909Z" fill="white"/>
<path d="M17.6535 40.5682C18.309 40.5682 18.8405 40.034 18.8405 39.375C18.8405 38.716 18.309 38.1818 17.6535 38.1818C16.9979 38.1818 16.4664 38.716 16.4664 39.375C16.4664 40.034 16.9979 40.5682 17.6535 40.5682Z" fill="white"/>
<path d="M9.73204 40.5682C10.3876 40.5682 10.9191 40.034 10.9191 39.375C10.9191 38.716 10.3876 38.1818 9.73204 38.1818C9.07646 38.1818 8.54501 38.716 8.54501 39.375C8.54501 40.034 9.07646 40.5682 9.73204 40.5682Z" fill="white"/>
<path d="M13.6888 40.5682C14.3444 40.5682 14.8758 40.034 14.8758 39.375C14.8758 38.716 14.3444 38.1818 13.6888 38.1818C13.0332 38.1818 12.5018 38.716 12.5018 39.375C12.5018 40.034 13.0332 40.5682 13.6888 40.5682Z" fill="white"/>
<path d="M9.34428 44.1477C9.99986 44.1477 10.5313 43.6135 10.5313 42.9545C10.5313 42.2956 9.99986 41.7614 9.34428 41.7614C8.6887 41.7614 8.15725 42.2956 8.15725 42.9545C8.15725 43.6135 8.6887 44.1477 9.34428 44.1477Z" fill="white"/>
<path d="M5.7832 44.5455C6.43877 44.5455 6.97022 44.0112 6.97022 43.3523C6.97022 42.6933 6.43877 42.1591 5.7832 42.1591C5.12762 42.1591 4.59617 42.6933 4.59617 43.3523C4.59617 44.0112 5.12762 44.5455 5.7832 44.5455Z" fill="white"/>
<path d="M1.82644 44.5455C2.48202 44.5455 3.01347 44.0112 3.01347 43.3523C3.01347 42.6933 2.48202 42.1591 1.82644 42.1591C1.17086 42.1591 0.639412 42.6933 0.639412 43.3523C0.639412 44.0112 1.17086 44.5455 1.82644 44.5455Z" fill="white"/>
<path d="M17.0117 62.0455C17.6673 62.0455 18.1987 61.5112 18.1987 60.8523C18.1987 60.1933 17.6673 59.6591 17.0117 59.6591C16.3561 59.6591 15.8247 60.1933 15.8247 60.8523C15.8247 61.5112 16.3561 62.0455 17.0117 62.0455Z" fill="white"/>
<path d="M17.0117 66.0227C17.6673 66.0227 18.1987 65.4885 18.1987 64.8295C18.1987 64.1706 17.6673 63.6364 17.0117 63.6364C16.3561 63.6364 15.8247 64.1706 15.8247 64.8295C15.8247 65.4885 16.3561 66.0227 17.0117 66.0227Z" fill="white"/>
<path d="M17.0117 58.0682C17.6673 58.0682 18.1987 57.534 18.1987 56.875C18.1987 56.216 17.6673 55.6818 17.0117 55.6818C16.3561 55.6818 15.8247 56.216 15.8247 56.875C15.8247 57.534 16.3561 58.0682 17.0117 58.0682Z" fill="white"/>
<path d="M20.9684 58.0682C21.624 58.0682 22.1555 57.534 22.1555 56.875C22.1555 56.216 21.624 55.6818 20.9684 55.6818C20.3129 55.6818 19.7814 56.216 19.7814 56.875C19.7814 57.534 20.3129 58.0682 20.9684 58.0682Z" fill="white"/>
<path d="M20.9684 54.0909C21.624 54.0909 22.1555 53.5567 22.1555 52.8977C22.1555 52.2388 21.624 51.7045 20.9684 51.7045C20.3129 51.7045 19.7814 52.2388 19.7814 52.8977C19.7814 53.5567 20.3129 54.0909 20.9684 54.0909Z" fill="white"/>
<path d="M56.5793 28.2386C57.2348 28.2386 57.7663 27.7044 57.7663 27.0455C57.7663 26.3865 57.2348 25.8523 56.5793 25.8523C55.9237 25.8523 55.3922 26.3865 55.3922 27.0455C55.3922 27.7044 55.9237 28.2386 56.5793 28.2386Z" fill="white"/>
<path d="M60.536 20.2841C61.1916 20.2841 61.723 19.7499 61.723 19.0909C61.723 18.4319 61.1916 17.8977 60.536 17.8977C59.8804 17.8977 59.349 18.4319 59.349 19.0909C59.349 19.7499 59.8804 20.2841 60.536 20.2841Z" fill="white"/>
<path d="M56.5793 24.2614C57.2348 24.2614 57.7663 23.7272 57.7663 23.0682C57.7663 22.4092 57.2348 21.875 56.5793 21.875C55.9237 21.875 55.3922 22.4092 55.3922 23.0682C55.3922 23.7272 55.9237 24.2614 56.5793 24.2614Z" fill="white"/>
<path d="M56.5793 20.2841C57.2348 20.2841 57.7663 19.7499 57.7663 19.0909C57.7663 18.4319 57.2348 17.8977 56.5793 17.8977C55.9237 17.8977 55.3922 18.4319 55.3922 19.0909C55.3922 19.7499 55.9237 20.2841 56.5793 20.2841Z" fill="white"/>
<path d="M68.4495 16.3068C69.1051 16.3068 69.6366 15.7726 69.6366 15.1136C69.6366 14.4547 69.1051 13.9205 68.4495 13.9205C67.7939 13.9205 67.2625 14.4547 67.2625 15.1136C67.2625 15.7726 67.7939 16.3068 68.4495 16.3068Z" fill="white"/>
<path d="M60.536 16.3068C61.1916 16.3068 61.723 15.7726 61.723 15.1136C61.723 14.4547 61.1916 13.9205 60.536 13.9205C59.8804 13.9205 59.349 14.4547 59.349 15.1136C59.349 15.7726 59.8804 16.3068 60.536 16.3068Z" fill="white"/>
<path d="M64.4928 16.3068C65.1483 16.3068 65.6798 15.7726 65.6798 15.1136C65.6798 14.4547 65.1483 13.9205 64.4928 13.9205C63.8372 13.9205 63.3057 14.4547 63.3057 15.1136C63.3057 15.7726 63.8372 16.3068 64.4928 16.3068Z" fill="white"/>
<path d="M9.09817 16.3068C9.75375 16.3068 10.2852 15.7726 10.2852 15.1136C10.2852 14.4547 9.75375 13.9205 9.09817 13.9205C8.44259 13.9205 7.91114 14.4547 7.91114 15.1136C7.91114 15.7726 8.44259 16.3068 9.09817 16.3068Z" fill="white"/>
<path d="M13.0549 20.2841C13.7105 20.2841 14.242 19.7499 14.242 19.0909C14.242 18.4319 13.7105 17.8977 13.0549 17.8977C12.3993 17.8977 11.8679 18.4319 11.8679 19.0909C11.8679 19.7499 12.3993 20.2841 13.0549 20.2841Z" fill="white"/>
<path d="M5.14141 16.3068C5.79699 16.3068 6.32844 15.7726 6.32844 15.1136C6.32844 14.4547 5.79699 13.9205 5.14141 13.9205C4.48583 13.9205 3.95438 14.4547 3.95438 15.1136C3.95438 15.7726 4.48583 16.3068 5.14141 16.3068Z" fill="white"/>
<path d="M17.0117 20.2841C17.6673 20.2841 18.1987 19.7499 18.1987 19.0909C18.1987 18.4319 17.6673 17.8977 17.0117 17.8977C16.3561 17.8977 15.8247 18.4319 15.8247 19.0909C15.8247 19.7499 16.3561 20.2841 17.0117 20.2841Z" fill="white"/>
<path d="M13.0549 16.3068C13.7105 16.3068 14.242 15.7726 14.242 15.1136C14.242 14.4547 13.7105 13.9205 13.0549 13.9205C12.3993 13.9205 11.8679 14.4547 11.8679 15.1136C11.8679 15.7726 12.3993 16.3068 13.0549 16.3068Z" fill="white"/>
<path d="M17.0117 24.2614C17.6673 24.2614 18.1987 23.7272 18.1987 23.0682C18.1987 22.4092 17.6673 21.875 17.0117 21.875C16.3561 21.875 15.8247 22.4092 15.8247 23.0682C15.8247 23.7272 16.3561 24.2614 17.0117 24.2614Z" fill="white"/>
<path d="M17.0117 28.2386C17.6673 28.2386 18.1987 27.7044 18.1987 27.0455C18.1987 26.3865 17.6673 25.8523 17.0117 25.8523C16.3561 25.8523 15.8247 26.3865 15.8247 27.0455C15.8247 27.7044 16.3561 28.2386 17.0117 28.2386Z" fill="white"/>
<path d="M36.7978 23.8636C33.4164 23.8636 30.6649 26.6294 30.6649 30.0284C30.6649 31.7092 31.332 33.2802 32.5158 34.436L31.6675 40.1832C31.6588 40.2412 31.6541 40.2993 31.6541 40.359C31.6541 41.3517 32.4581 42.1599 33.4457 42.1599H40.1508C41.1384 42.1599 41.9424 41.3517 41.9424 40.359C41.9424 40.3001 41.9377 40.242 41.929 40.1832L41.0806 34.436C42.2645 33.2802 42.9316 31.7092 42.9316 30.0284C42.9308 26.6294 40.1801 23.8636 36.7978 23.8636ZM39.0864 33.0201C38.7454 33.2842 38.5736 33.713 38.6369 34.1409L39.4679 39.7727H34.1278L34.9595 34.1409C35.0228 33.713 34.8503 33.2842 34.51 33.0201C33.5755 32.2963 33.0397 31.2065 33.0397 30.0284C33.0397 27.9451 34.7261 26.25 36.7986 26.25C38.8712 26.25 40.5576 27.9451 40.5576 30.0284C40.5568 31.2057 40.021 32.2963 39.0864 33.0201Z" fill="white"/>
</svg>
