<svg width="66" height="66" viewBox="0 0 66 66" fill="none" xmlns="http://www.w3.org/2000/svg">
<path d="M25.0517 42.878H11.0971L8.25779 51.682C8.17897 52.0085 7.86948 52.2397 7.53284 52.2237H0.46486C0.0618097 52.2237 -0.079154 52.0032 0.041999 51.5617L12.1239 17.0381C12.2449 16.6773 12.3656 16.3243 12.4865 15.8625C12.6446 15.0593 12.7255 14.2433 12.7282 13.4251C12.6936 13.1833 12.9084 12.9691 13.1509 13.0037H22.7563C23.0377 13.0037 23.1985 13.104 23.2394 13.3045L36.9528 51.6217C37.0734 52.0235 36.9525 52.224 36.5903 52.2237H28.7368C28.4615 52.254 28.1984 52.0707 28.1328 51.8023L25.0517 42.878ZM13.2718 35.4549H22.8168C21.2486 30.2496 19.4787 25.1129 18.0443 19.867C16.4189 25.3085 14.9179 30.3552 13.2718 35.4549Z" fill="#9999FF"/>
<path d="M47.1521 39.4788C47.7076 43.949 51.5721 46.0803 55.8512 45.9894C58.2643 45.9434 60.843 45.5795 63.0979 44.6932C63.2986 44.5335 63.3999 44.6332 63.3999 44.9943V50.7117C63.4189 51.0091 63.2909 51.275 63.0374 51.434C60.2349 52.6705 57.018 53.0435 53.9784 52.996C44.9159 52.996 38.6923 46.7935 38.6949 37.7693C38.6711 29.2174 44.3827 22.0026 53.2535 22.0026C60.7732 21.8133 65.9793 27.6613 66.0002 34.9407C66.0002 36.2663 65.9239 37.5968 65.7586 38.9127C65.7265 39.1839 65.4888 39.3944 65.2148 39.3944C59.2092 39.3944 53.1744 39.4788 47.1521 39.4788ZM47.1521 33.996C50.4992 33.996 53.8656 34.111 57.2104 33.966C57.7131 33.916 58.0865 33.8232 58.0865 33.3156C58.0167 30.617 55.6721 28.3973 52.9515 28.5007C49.6646 28.3027 47.5609 30.9981 47.1521 33.996Z" fill="#9999FF"/>
</svg>
