<svg width="66" height="66" viewBox="0 0 66 66" fill="none" xmlns="http://www.w3.org/2000/svg">
<path d="M33.5169 48.6927H14.8469L11.0482 60.2816C10.9428 60.7121 10.5289 61.017 10.0783 60.9956H0.621948C0.0826599 60.9956 -0.105896 60.7047 0.0561959 60.1225L16.2208 14.4022C16.3826 13.9259 16.5444 13.3837 16.7057 12.7752C16.9174 11.7159 17.0254 10.6397 17.0293 9.56058C16.9828 9.24167 17.2755 8.96002 17.5947 9.00468H30.4459C30.8224 9.00468 31.0375 9.13702 31.0922 9.40154L49.4395 60.202C49.6009 60.7315 49.4395 60.996 48.9546 60.9956H38.4472C38.0789 61.036 37.7269 60.7941 37.6391 60.4402L33.5169 48.6927ZM17.7565 38.6913H30.5268C28.4287 31.8262 26.0608 25.0513 24.1417 18.1331C22.0711 25.0633 19.812 31.9654 17.7565 38.6913Z" fill="#FF9A00"/>
<path d="M59.6933 16.6143C58.8796 16.6474 58.0684 16.506 57.312 16.1996C56.556 15.8933 55.8723 15.4283 55.3057 14.8357C54.7409 14.2171 54.3017 13.492 54.0142 12.7009C53.7267 11.9103 53.5963 11.0697 53.6303 10.2274C53.6014 9.39353 53.7462 8.56301 54.0554 7.78978C54.365 7.0166 54.8318 6.31823 55.4255 5.74027C56.0133 5.16831 56.7072 4.72019 57.4674 4.42186C58.2272 4.12347 59.038 3.98083 59.8525 4.00207C61.7675 4.00207 63.2697 4.58149 64.3599 5.74027C64.9103 6.34249 65.338 7.04878 65.6187 7.81874C65.899 8.58861 66.0272 9.40738 65.995 10.2274C66.0285 11.0726 65.8939 11.9165 65.5992 12.708C65.3048 13.4995 64.8559 14.223 64.28 14.8357C63.6782 15.4371 62.9596 15.9054 62.1706 16.2118C61.381 16.5177 60.5376 16.655 59.6933 16.6143ZM54.1888 60.1913V21.5461C54.1888 21.061 54.4007 20.8185 54.8271 20.8185H64.6393C65.064 20.8185 65.2768 21.061 65.2772 21.5461V60.1913C65.2772 60.731 65.0645 61.0004 64.6393 61H54.9069C54.4283 61 54.1888 60.7306 54.1888 60.1913Z" fill="#FF9A00"/>
</svg>
