<svg width="66" height="66" viewBox="0 0 66 66" fill="none" xmlns="http://www.w3.org/2000/svg">
<path d="M61.273 62H49.156C48.7541 62 48.429 61.6749 48.429 61.273V55.9415H39.7855V61.273C39.7855 61.6749 39.4604 62 39.0585 62H26.9415C26.5396 62 26.2145 61.6749 26.2145 61.273V55.9415H17.571V61.273C17.571 61.6749 17.2459 62 16.844 62H4.72702C4.32514 62 4 61.6749 4 61.273V49.156C4 48.7541 4.32514 48.429 4.72702 48.429H10.0585V39.7855H4.72702C4.32514 39.7855 4 39.4604 4 39.0585V26.9415C4 26.5396 4.32514 26.2145 4.72702 26.2145H10.0585V17.571H4.72702C4.32514 17.571 4 17.2459 4 16.844V4.72702C4 4.32514 4.32514 4 4.72702 4H16.844C17.2459 4 17.571 4.32514 17.571 4.72702V10.0585H26.2145V4.72702C26.2145 4.32514 26.5396 4 26.9415 4H39.0585C39.4604 4 39.7855 4.32514 39.7855 4.72702V10.0585H48.427V4.72702C48.427 4.32514 48.7521 4 49.154 4H61.271C61.6728 4 61.998 4.32514 61.998 4.72702V16.844C61.998 17.2459 61.6728 17.571 61.271 17.571H55.9395V26.2145H61.273C61.6749 26.2145 62 26.5396 62 26.9415V39.0585C62 39.4604 61.6749 39.7855 61.273 39.7855H55.9415V48.427H61.273C61.6749 48.427 62 48.7521 62 49.154V61.271C62 61.6749 61.6749 62 61.273 62ZM49.883 60.546H60.5439V49.883H49.883V60.546ZM27.6685 60.546H38.3315V49.883H27.6685V60.546ZM5.45404 60.546H16.117V49.883H5.45404V60.546ZM39.7855 54.4875H48.427V49.156C48.427 48.7541 48.7521 48.429 49.154 48.429H54.4854V39.7855H49.156C48.7541 39.7855 48.429 39.4604 48.429 39.0585V33.727H39.7855V39.0585C39.7855 39.4604 39.4604 39.7855 39.0585 39.7855H33.727V48.427H39.0585C39.4604 48.427 39.7855 48.7521 39.7855 49.154V54.4875ZM17.571 54.4875H26.2145V49.156C26.2145 48.7541 26.5396 48.429 26.9415 48.429H32.273V39.7855H26.9415C26.5396 39.7855 26.2145 39.4604 26.2145 39.0585V33.727H17.571V39.0585C17.571 39.4604 17.2459 39.7855 16.844 39.7855H11.5125V48.427H16.844C17.2459 48.427 17.571 48.7521 17.571 49.154V54.4875ZM55.2145 38.3315H60.546V27.6685H49.883V38.3315H55.2145ZM33 38.3315H38.3315V27.6685H27.6685V38.3315H33ZM10.7855 38.3315H16.117V27.6685H5.45404V38.3315H10.7855ZM39.7855 32.273H48.427V26.9415C48.427 26.5396 48.7521 26.2145 49.154 26.2145H54.4854V17.571H49.156C48.7541 17.571 48.429 17.2459 48.429 16.844V11.5125H39.7855V16.844C39.7855 17.2459 39.4604 17.571 39.0585 17.571H33.727V26.2145H39.0585C39.4604 26.2145 39.7855 26.5396 39.7855 26.9415V32.273ZM17.571 32.273H26.2145V26.9415C26.2145 26.5396 26.5396 26.2145 26.9415 26.2145H32.273V17.571H26.9415C26.5396 17.571 26.2145 17.2459 26.2145 16.844V11.5125H17.571V16.844C17.571 17.2459 17.2459 17.571 16.844 17.571H11.5125V26.2145H16.844C17.2459 26.2145 17.571 26.5396 17.571 26.9415V32.273ZM55.2145 16.117H60.546V5.45404H49.883V16.117H55.2145ZM33 16.117H38.3315V5.45404H27.6685V16.117H33ZM10.7855 16.117H16.117V5.45404H5.45404V16.117H10.7855Z" fill="white" stroke="white"/>
</svg>
