<svg width="66" height="66" viewBox="0 0 66 66" fill="none" xmlns="http://www.w3.org/2000/svg">
<g clip-path="url(#clip0_755_126)">
<path d="M24.4407 26.848C23.8267 25.4975 23.5515 23.9223 24.0206 22.4914C24.4895 21.0284 25.5398 19.8548 26.5902 18.7615C29.5144 15.8515 33.1182 13.7134 35.9782 10.7555C37.5616 9.13162 38.8703 7.18636 39.3226 4.95154C39.6944 3.31188 39.5168 1.62391 39.1776 0C40.6965 1.72026 41.1975 4.17995 40.761 6.39863C40.2926 8.89035 38.9025 11.0928 37.2707 12.9897C35.962 14.5173 34.4589 15.8676 32.8918 17.1219C31.0659 18.5848 29.2724 20.1602 28.1253 22.2181C27.1553 23.8897 26.929 25.9476 27.5918 27.7644C28.6746 30.883 31.195 33.1982 32.5688 36.14C31.0495 34.8056 29.5632 33.423 28.1731 31.9603C26.7194 30.4169 25.3456 28.7774 24.4407 26.848ZM32.6816 24.4042C32.407 26.9605 33.7478 29.3719 35.3479 31.2691C36.1232 32.121 36.7858 33.166 36.8179 34.3558C36.8505 35.9468 35.946 37.4264 34.7818 38.4709C35.0569 38.4392 35.2507 38.1978 35.477 38.0693C37.2221 36.9599 38.9023 35.5613 39.7587 33.6486C40.3243 32.3463 40.1951 30.8027 39.4521 29.5967C38.5792 28.1821 37.4322 26.9281 36.7536 25.3849C36.3814 24.5168 36.2523 23.5041 36.5594 22.5877C36.9637 21.35 37.8361 20.337 38.7573 19.4528C41.2939 17.0577 44.364 15.3529 47.3051 13.4884C43.5885 14.5493 39.9206 16.0124 36.7858 18.3115C34.7982 19.7905 32.9564 21.8481 32.6816 24.4042ZM50.3434 36.4939C52.1048 36.5905 53.8332 37.8764 54.1567 39.645C54.4639 41.1723 53.7208 42.6833 52.767 43.8407C51.1994 45.7055 49.0824 47.0401 46.9502 48.1816C46.7396 48.3096 46.562 48.4705 46.4004 48.6476C49.2121 47.94 52.0234 46.8795 54.3021 45.0627C55.562 44.0176 56.677 42.6346 56.9196 40.9788C57.1459 39.5482 56.5484 38.0691 55.4816 37.1207C54.1886 35.9467 52.3632 35.513 50.65 35.7382C49.6643 35.8667 48.5819 36.0757 47.9033 36.8956C48.7116 36.7353 49.5027 36.4134 50.3434 36.4939ZM15.2627 41.0913C17.3791 41.654 19.5607 41.815 21.726 41.9598C23.665 42.0883 25.6044 42.1207 27.5597 42.1044C32.601 42.0245 37.6747 41.6865 42.6191 40.5934C43.0875 40.481 43.6048 40.4006 44.0255 40.1112C44.8494 39.5804 45.7537 39.1623 46.6429 38.7444C42.6191 39.3874 38.5794 39.9346 34.5076 40.1916C30.3872 40.4487 26.2341 40.6095 22.0978 40.3364C20.9183 40.224 19.7061 40.1593 18.6075 39.7089C18.3486 39.5966 17.993 39.3719 18.1222 39.0338C18.3648 38.5997 18.8496 38.391 19.2697 38.1659C21.0474 37.3298 22.9863 36.8638 24.877 36.3172C21.6288 36.2687 18.3969 37.0884 15.4243 38.3587C14.7616 38.6804 14.0184 38.9375 13.4853 39.4842C13.2748 39.7088 13.2748 40.0954 13.5174 40.2878C14.0023 40.7219 14.6482 40.9147 15.2627 41.0913ZM41.44 45.5128C38.612 46.0112 35.7677 46.4778 32.9075 46.6221C29.7727 46.8311 26.638 46.654 23.5357 46.3327C22.938 46.2522 22.3399 46.156 21.8069 45.8828C21.5322 45.7219 21.2576 45.4649 21.2738 45.1267C21.3059 44.5964 21.7581 44.2269 22.0816 43.8408C21.08 44.1946 20.0779 44.564 19.2377 45.2238C18.8818 45.4971 18.5266 45.9309 18.6233 46.4131C18.7694 46.9757 19.3186 47.3134 19.8034 47.5704C20.9988 48.1817 22.34 48.4546 23.6493 48.6959C26.9611 49.2267 30.3385 49.2429 33.667 49.0172C37.1905 48.7441 40.6965 48.1656 44.106 47.1686C43.1365 46.7349 42.2153 46.2359 41.44 45.5128ZM23.6812 51.0757C22.7764 51.3328 21.8552 51.6385 21.1121 52.2326C20.7398 52.5221 20.4494 53.021 20.6273 53.4871C20.8536 54.0818 21.4192 54.4361 21.9519 54.7406C23.342 55.4967 24.9092 55.8499 26.4442 56.1236C29.9188 56.6698 33.4895 56.5896 36.9476 55.979C38.9995 55.5929 41.0518 55.0463 42.9583 54.1947C41.7142 53.6801 40.5026 53.1011 39.3392 52.4261C37.3194 52.7797 35.2829 53.1498 33.2146 53.2783C30.4843 53.4873 27.7208 53.2621 24.9899 52.9246C24.3434 52.7799 23.5357 52.7157 23.0994 52.1528C22.8736 51.6861 23.3904 51.3485 23.6812 51.0757ZM45.7865 61.4124C48.0484 60.9469 50.3272 60.4154 52.3953 59.3709C53.0413 59.0006 53.8332 58.5987 54.0438 57.8275C54.1567 57.0881 53.381 56.702 52.8316 56.3964C53.1709 56.783 53.3971 57.3453 53.0575 57.7952C52.4919 58.5512 51.5229 58.8402 50.6662 59.1297C47.9842 59.8852 45.2045 60.1908 42.4415 60.4964C35.1217 61.1554 27.753 61.3163 20.4335 60.7054C17.9773 60.4479 15.4722 60.1747 13.1294 59.3067C12.7581 59.1458 12.1925 58.9849 12.1925 58.4863C12.3375 58.0531 12.7581 57.8112 13.1294 57.6022C14.8099 56.7504 16.6843 56.2839 18.5587 56.1716C18.0098 55.8498 17.3633 55.8179 16.7331 55.8341C15.1654 55.8822 13.6305 56.2839 12.1442 56.783C10.8675 57.2485 9.55868 57.7633 8.54037 58.696C8.1365 59.0492 7.76522 59.7243 8.1848 60.207C8.8313 60.8984 9.83337 61.0749 10.7215 61.2839C15.6985 62.1362 20.7398 62.6178 25.7819 62.7949C32.4717 62.9884 39.2097 62.6988 45.7865 61.4124ZM52.4115 62.2809C49.3735 63.2454 46.2228 63.7757 43.0876 64.21C37.6747 64.8851 32.2128 65.0941 26.7673 64.9336C23.4549 64.8051 20.1426 64.58 16.8782 64.0329C17.6376 64.5475 18.575 64.708 19.4478 64.9494C23.1161 65.7213 26.8806 65.8659 30.6136 65.9783C36.0906 66.0749 41.5686 65.8659 46.9659 65.0137C49.5193 64.5643 52.0884 64.0173 54.3825 62.8275C55.5787 62.2005 56.7909 61.2355 57 59.8372C55.7885 61.123 54.0438 61.7181 52.4115 62.2809Z" fill="white" stroke="white"/>
</g>
<defs>
<clipPath id="clip0_755_126">
<rect width="66" height="66" fill="white"/>
</clipPath>
</defs>
</svg>
