<svg width="66" height="66" viewBox="0 0 66 66" fill="none" xmlns="http://www.w3.org/2000/svg">
<path d="M39.9425 40.6717C40.6922 42.182 41.8554 43.4516 43.2985 44.3344C44.7416 45.2172 46.406 45.6775 48.1005 45.6623C51.527 45.6623 53.7164 43.9595 53.7164 41.6083C53.7164 38.7912 51.4666 37.7921 47.6969 36.1517L45.6284 35.2703C39.6622 32.7438 35.6968 29.5784 35.6968 22.8874C35.6968 16.7223 40.4234 12.0319 47.8081 12.0319C50.2049 11.859 52.5997 12.3922 54.6933 13.5648C56.7868 14.7373 58.4861 16.4972 59.5787 18.6244L53.1388 22.7337C52.7172 21.6796 51.9827 20.7779 51.0332 20.1486C50.0836 19.5193 48.9638 19.1921 47.8226 19.2104C47.3252 19.1607 46.8228 19.2145 46.3475 19.3685C45.8721 19.5224 45.4343 19.7731 45.0619 20.1046C44.6895 20.4361 44.3906 20.8411 44.1845 21.2938C43.9783 21.7464 43.8693 22.2368 43.8644 22.7337C43.8644 25.2002 45.4013 26.1968 48.939 27.7243L51.0075 28.6033C58.0346 31.5982 62 34.6507 62 41.5146C62 48.9141 56.1522 52.9681 48.2962 52.9681C45.2362 53.1616 42.1852 52.4709 39.5113 50.9794C36.8375 49.4878 34.655 47.2592 33.2271 44.5623L39.9425 40.6717ZM10.7323 41.3921C12.0323 43.6833 13.214 45.6191 16.0485 45.6191C18.7646 45.6191 20.4803 44.5623 20.4803 40.4555V12.5122H28.7494V40.5708C28.7494 49.0799 23.728 52.9537 16.4013 52.9537C13.8132 53.093 11.2434 52.4503 9.02987 51.1103C6.81633 49.7702 5.06281 47.7956 4 45.4461L10.7323 41.3921Z" fill="#F5DE19"/>
</svg>
