<svg width="66" height="66" viewBox="0 0 66 66" fill="none" xmlns="http://www.w3.org/2000/svg">
<path d="M20.7 20.7L22.2943 19.5485C21.7949 18.857 20.9066 18.5663 20.0949 18.8287C19.2833 19.0912 18.7333 19.847 18.7333 20.7H20.7ZM32.5 58.0667C18.3799 58.0667 6.93333 46.6203 6.93333 32.5H3C3 48.7923 16.2076 62 32.5 62V58.0667ZM58.0667 32.5C58.0667 46.6203 46.6203 58.0667 32.5 58.0667V62C48.7923 62 62 48.7923 62 32.5H58.0667ZM32.5 6.93333C46.6203 6.93333 58.0667 18.3799 58.0667 32.5H62C62 16.2076 48.7923 3 32.5 3V6.93333ZM32.5 3C16.2076 3 3 16.2076 3 32.5H6.93333C6.93333 18.3799 18.3799 6.93333 32.5 6.93333V3ZM22.6667 50.2V20.7H18.7333V50.2H22.6667ZM19.1057 21.8515L44.6725 57.2513L47.8608 54.9487L22.2943 19.5485L19.1057 21.8515ZM42.3333 18.7333V42.3333H46.2667V18.7333H42.3333Z" fill="white"/>
</svg>
