<svg width="67" height="66" viewBox="0 0 67 66" fill="none" xmlns="http://www.w3.org/2000/svg">
<g clip-path="url(#clip0_755_143)">
<path d="M43.9878 51.4537C43.9878 53.9645 41.9183 56 39.3655 56C39.3636 56 39.3636 56 39.3616 56C39.3421 56 39.3187 56 39.2973 56C38.0365 56 36.8946 55.4902 36.0761 54.6679C35.2324 53.8725 34.7062 52.7551 34.7062 51.515C34.7062 51.492 34.7062 51.4671 34.7062 51.4441V51.4479C34.7179 48.9237 36.7952 46.8824 39.3597 46.869H39.3616H39.4298C40.6887 46.869 41.8267 47.3846 42.6334 48.2145L42.6354 48.2164C43.4694 49.0214 43.9878 50.1427 43.9878 51.3808V51.4537ZM22.8602 51.4498V51.5169C22.8602 52.7551 22.336 53.8744 21.4923 54.6679L21.4903 54.6698C20.6719 55.4902 19.5319 56 18.2731 56C18.2497 56 18.2243 56 18.201 56H18.2049C18.2049 56 18.2029 56 18.201 56C15.6482 56 13.5787 53.9645 13.5787 51.4537C13.5787 51.4517 13.5787 51.4517 13.5787 51.4498C13.5787 51.4307 13.5787 51.4077 13.5787 51.3866C13.5787 50.1465 14.097 49.0233 14.933 48.2183C15.7417 47.3884 16.8778 46.8709 18.1386 46.8709H18.2107H18.2068C20.7732 46.8824 22.8485 48.9256 22.8622 51.4479L22.8602 51.4498ZM1 10C1.97629 11.0197 2.99349 11.9665 4.06332 12.8558L4.11788 12.8999C5.11755 13.7164 6.23414 14.4697 7.41894 15.1194L7.53196 15.1769C8.60178 15.7787 9.86452 16.3672 11.176 16.8617L11.3689 16.9249C12.6609 17.4002 14.2296 17.8353 15.8411 18.1535L16.0457 18.188C17.8788 18.5586 19.7592 18.8499 21.6871 19.062C23.615 19.2741 25.9658 19.4453 28.7394 19.5757C31.513 19.706 34.3711 19.7942 37.3136 19.8402C40.2561 19.8862 43.7585 19.9092 47.8208 19.9092C50.4346 19.9092 52.7334 19.9552 54.7172 20.0472C56.6035 20.1238 58.3651 20.2887 60.0975 20.5397L59.8227 20.5072C61.1536 20.6912 62.3365 20.9595 63.4765 21.316L63.3206 21.2738C64.1 21.4904 64.7743 21.868 65.3277 22.3721L65.3238 22.3702C65.7077 22.7362 65.9591 23.2365 66 23.7923V23.8C65.9942 24.4612 65.7895 25.0765 65.4427 25.5883L65.4505 25.5767C64.9575 26.3779 64.4313 27.0717 63.8467 27.7119L63.8584 27.6985C63.1907 28.4473 62.3495 29.2893 61.3349 30.2247C60.3203 31.16 59.229 32.1266 58.0611 33.1246C56.8932 34.1225 55.5863 35.2227 54.1404 36.4251C50.6613 39.3295 47.9722 41.6135 46.0728 43.2772C46.7607 42.1291 47.4759 41.1382 48.2671 40.2143L48.2398 40.2488C49.1323 39.1768 50.0157 38.2012 50.89 37.3221C51.7643 36.443 52.6529 35.5319 53.5558 34.5889C54.4586 33.6459 55.2381 32.7994 55.8942 32.0493C56.4788 31.4015 56.9874 30.6674 57.3908 29.8739L57.418 29.8164C57.6675 29.3794 57.8136 28.8581 57.8136 28.3022C57.8136 28.1508 57.8019 28.0033 57.7824 27.8576L57.7844 27.8748C57.5778 27.204 57.1179 26.6635 56.5158 26.3473L56.5022 26.3415C55.5551 25.801 54.4483 25.4023 53.2732 25.2107L53.2167 25.203C51.5603 24.8906 49.5824 24.6567 47.5694 24.5552L47.4623 24.5513C45.0719 24.4031 42.2138 24.3571 38.8881 24.4133C35.7286 24.4504 32.7757 24.3948 30.0294 24.2466C27.2831 24.0984 24.8758 23.8856 22.8076 23.6083C20.5822 23.3151 18.6297 22.9183 16.7278 22.397L17.0395 22.4698C15.1883 21.9811 13.6898 21.4904 12.2283 20.9288L12.5401 21.0342C11.2111 20.5187 10.075 19.936 9.00711 19.2537L9.0831 19.2997C8.10487 18.6959 7.26304 18.0903 6.46603 17.4309L6.50111 17.4597C5.80738 16.8521 5.17991 16.2023 4.61284 15.5047L4.58751 15.474C4.10229 14.9047 3.63266 14.2761 3.2059 13.6167L3.16303 13.5439C2.85124 13.0328 2.47515 12.4041 2.03475 11.6579C1.59435 10.9117 1.25008 10.361 1.00195 10.0057L1 10Z" fill="white"/>
<path d="M43.9878 51.4498V51.4537M43.9878 51.4537C43.9878 53.9645 41.9183 56 39.3655 56C39.3636 56 39.3636 56 39.3616 56C39.3421 56 39.3187 56 39.2973 56C38.0365 56 36.8946 55.4902 36.0761 54.6679C35.2324 53.8725 34.7062 52.7551 34.7062 51.515C34.7062 51.492 34.7062 51.4671 34.7062 51.4441V51.4479C34.7179 48.9237 36.7952 46.8824 39.3597 46.869H39.3616H39.4298C40.6887 46.869 41.8267 47.3846 42.6334 48.2145L42.6354 48.2164C43.4694 49.0214 43.9878 50.1427 43.9878 51.3808V51.4537ZM18.201 56C18.2243 56 18.2497 56 18.2731 56C19.5319 56 20.6719 55.4902 21.4903 54.6698L21.4923 54.6679C22.336 53.8744 22.8602 52.7551 22.8602 51.5169V51.4498L22.8622 51.4479C22.8485 48.9256 20.7732 46.8824 18.2068 46.8709H18.2107H18.1386C16.8778 46.8709 15.7417 47.3884 14.933 48.2183C14.097 49.0233 13.5787 50.1465 13.5787 51.3866C13.5787 51.4077 13.5787 51.4307 13.5787 51.4498C13.5787 51.4517 13.5787 51.4517 13.5787 51.4537C13.5787 53.9645 15.6482 56 18.201 56ZM18.201 56H18.2049C18.2049 56 18.2029 56 18.201 56ZM1 10C1.97629 11.0197 2.99349 11.9665 4.06332 12.8558L4.11788 12.8999C5.11755 13.7164 6.23414 14.4697 7.41894 15.1194L7.53196 15.1769C8.60178 15.7787 9.86452 16.3672 11.176 16.8617L11.3689 16.9249C12.6609 17.4002 14.2296 17.8353 15.8411 18.1535L16.0457 18.188C17.8788 18.5586 19.7592 18.8499 21.6871 19.062C23.615 19.2741 25.9658 19.4453 28.7394 19.5757C31.513 19.706 34.3711 19.7942 37.3136 19.8402C40.2561 19.8862 43.7585 19.9092 47.8208 19.9092C50.4346 19.9092 52.7334 19.9552 54.7172 20.0472C56.6035 20.1238 58.3651 20.2887 60.0975 20.5397L59.8227 20.5072C61.1536 20.6912 62.3365 20.9595 63.4765 21.316L63.3206 21.2738C64.1 21.4904 64.7743 21.868 65.3277 22.3721L65.3238 22.3702C65.7077 22.7362 65.9591 23.2365 66 23.7923V23.8C65.9942 24.4612 65.7895 25.0765 65.4427 25.5883L65.4505 25.5767C64.9575 26.3779 64.4313 27.0717 63.8467 27.7119L63.8584 27.6985C63.1907 28.4473 62.3495 29.2893 61.3349 30.2247C60.3203 31.16 59.229 32.1266 58.0611 33.1246C56.8932 34.1225 55.5863 35.2227 54.1404 36.4251C50.6613 39.3295 47.9722 41.6135 46.0728 43.2772C46.7607 42.1291 47.4759 41.1382 48.2671 40.2143L48.2398 40.2488C49.1323 39.1768 50.0157 38.2012 50.89 37.3221C51.7643 36.443 52.6529 35.5319 53.5558 34.5889C54.4586 33.6459 55.2381 32.7994 55.8942 32.0493C56.4788 31.4015 56.9874 30.6674 57.3908 29.8739L57.418 29.8164C57.6675 29.3794 57.8136 28.8581 57.8136 28.3022C57.8136 28.1508 57.8019 28.0033 57.7824 27.8576L57.7844 27.8748C57.5778 27.204 57.1179 26.6635 56.5158 26.3473L56.5022 26.3415C55.5551 25.801 54.4483 25.4023 53.2732 25.2107L53.2167 25.203C51.5603 24.8906 49.5824 24.6567 47.5694 24.5552L47.4623 24.5513C45.0719 24.4031 42.2138 24.3571 38.8881 24.4133C35.7286 24.4504 32.7757 24.3948 30.0294 24.2466C27.2831 24.0984 24.8758 23.8856 22.8076 23.6083C20.5822 23.3151 18.6297 22.9183 16.7278 22.397L17.0395 22.4698C15.1883 21.9811 13.6898 21.4904 12.2283 20.9288L12.5401 21.0342C11.2111 20.5187 10.075 19.936 9.00711 19.2537L9.0831 19.2997C8.10487 18.6959 7.26304 18.0903 6.46603 17.4309L6.50111 17.4597C5.80738 16.8521 5.17991 16.2023 4.61284 15.5047L4.58751 15.474C4.10229 14.9047 3.63266 14.2761 3.2059 13.6167L3.16303 13.5439C2.85124 13.0328 2.47515 12.4041 2.03475 11.6579C1.59435 10.9117 1.25008 10.361 1.00195 10.0057L1 10Z" stroke="white"/>
</g>
<defs>
<clipPath id="clip0_755_143">
<rect width="66" height="66" fill="white" transform="translate(0.5)"/>
</clipPath>
</defs>
</svg>
