<svg width="66" height="66" viewBox="0 0 66 66" fill="none" xmlns="http://www.w3.org/2000/svg">
<path d="M16.1011 23.5209C18.7999 23.5435 20.7555 24.3178 21.968 25.8425C23.1805 27.3673 23.5805 29.4499 23.1688 32.0903C23.0089 33.2968 22.6542 34.4802 22.1052 35.641C21.5789 36.8018 20.8474 37.8485 19.9094 38.7819C18.7656 39.9653 17.5421 40.7164 16.2383 41.0352C14.9346 41.3541 13.5849 41.5132 12.1898 41.5132H8.07274L6.76899 48H2L6.90622 23.5209H16.1011ZM56.7757 23.5209C59.4745 23.5435 61.4301 24.3178 62.6426 25.8425C63.8551 27.3673 64.2551 29.4499 63.8434 32.0903C63.6835 33.2968 63.3288 34.4802 62.7798 35.641C62.2535 36.8018 61.522 37.8485 60.584 38.7819C59.4402 39.9653 58.2167 40.7164 56.9129 41.0352C55.6092 41.3541 54.2595 41.5132 52.8644 41.5132H48.7473L47.4436 48H42.6746L47.5808 23.5209H56.7757ZM33.336 17L31.9979 23.5209H36.2523C38.5853 23.5667 40.3234 24.0446 41.4673 24.9548C42.6338 25.8651 42.9769 27.5953 42.4966 30.1443L40.1979 41.5132H35.3946L37.5904 30.6564C37.8189 29.5181 37.7502 28.7104 37.3845 28.2324C37.0187 27.7544 36.2296 27.5154 35.0172 27.5154L31.2088 27.4813L28.3955 41.5132H23.6608L28.6013 17H33.336ZM12.3957 27.413C12.1212 27.4355 11.8584 27.4471 11.6066 27.4471L10.9135 27.4471L8.86185 37.6553C8.99909 37.6778 9.13632 37.6894 9.27356 37.6894H9.75389C11.9497 37.712 13.7797 37.4962 15.2434 37.0407C16.707 36.5628 17.691 34.9015 18.194 32.0562C18.6057 29.6663 18.194 28.2891 16.9588 27.9251C15.7464 27.5612 14.2257 27.3904 12.3957 27.413ZM53.0703 27.413C52.7958 27.4355 52.533 27.4471 52.2812 27.4471L51.588 27.4471L49.5364 37.6553C49.6737 37.6778 49.8109 37.6894 49.9482 37.6894H50.4285C52.6243 37.712 54.4543 37.4962 55.918 37.0407C57.3816 36.5628 58.3656 34.9015 58.8686 32.0562C59.2803 29.6663 58.8686 28.2891 57.6334 27.9251C56.421 27.5612 54.9003 27.3904 53.0703 27.413Z" fill="white" stroke="#545454"/>
</svg>
