<svg width="66" height="66" viewBox="0 0 66 66" fill="none" xmlns="http://www.w3.org/2000/svg">
<path d="M0 58.3618V7.83475C0 7.49103 0.143212 7.29462 0.477412 7.29462C5.41119 7.29462 10.3426 7 15.2779 7C23.2855 7 31.9565 9.74569 34.9958 18.1464C35.7119 20.2088 36.0938 22.3202 36.0938 24.5299C36.0938 28.7526 35.139 32.2387 33.2291 34.9887C27.8948 42.6699 18.6485 42.5507 10.3602 42.5507V58.3124C10.4251 58.7792 10.0285 59 9.64412 59H0.572927C0.190989 59 0 58.8037 0 58.3618ZM10.4079 16.7716V33.2699C13.6944 33.5116 17.1331 33.5377 20.2907 32.4844C23.7768 31.4761 25.6858 28.4503 25.6858 24.8245C25.7829 21.7349 24.104 18.7702 21.2459 17.6555C18.1262 16.3546 13.7756 16.2767 10.4079 16.7716Z" fill="#9999FF"/>
<path d="M43.8502 19.6182H52.0203C52.4707 19.6227 52.8753 19.9514 52.9942 20.4109C53.593 21.8162 53.667 23.5113 53.669 25.0285C55.0702 23.3037 56.7594 21.8669 58.6531 20.7891C60.6841 19.5744 62.9864 18.9584 65.3194 19.0063C65.7069 18.9475 66.0494 19.31 65.9941 19.7192V29.3075C65.9941 29.678 65.7435 29.8623 65.2446 29.8623C61.7865 29.61 56.4029 30.4739 53.8902 33.349V58.2798C53.8902 58.7554 53.6904 58.9931 53.2906 58.9931H44.525C44.0945 59.0583 43.7146 58.6487 43.7754 58.2005V31.1301C43.7754 27.503 43.8498 23.7664 43.3259 20.1731C43.2451 19.8423 43.5443 19.535 43.8502 19.6182Z" fill="#9999FF"/>
</svg>
