<svg width="66" height="66" viewBox="0 0 66 66" fill="none" xmlns="http://www.w3.org/2000/svg">
<path d="M0 56.3985V8.78659C0 8.4627 0.138889 8.27762 0.462963 8.27762C1.25 8.27762 1.99074 8.27762 3.05555 8.23135C4.16667 8.18508 5.32407 8.18508 6.57407 8.13881C7.82407 8.09254 9.16667 8.09254 10.6019 8.04627C12.037 8 13.4259 8 14.8148 8C18.6111 8 21.7593 8.4627 24.3518 9.43437C26.6667 10.221 28.7963 11.5165 30.5556 13.2285C32.037 14.7092 33.1944 16.5137 33.9352 18.5033C34.6296 20.4466 35 22.4363 35 24.5184C35 28.4976 34.0741 31.7828 32.2222 34.3739C30.3704 36.9651 27.7778 38.9084 24.7685 40.0189C21.6204 41.1756 18.1481 41.5921 14.3519 41.5921C13.2407 41.5921 12.5 41.5921 12.037 41.5458C11.5741 41.4995 10.9259 41.4995 10.0463 41.4995V56.3522C10.0926 56.6761 9.86111 56.9537 9.53704 57H0.555556C0.185186 57 0 56.8149 0 56.3985ZM10.0926 17.2077V32.7545C10.7407 32.8008 11.3426 32.847 11.8981 32.847H14.3519C16.1574 32.847 17.963 32.5694 19.6759 32.0142C21.1574 31.5977 22.4537 30.7186 23.4722 29.5619C24.4444 28.4051 24.9074 26.8319 24.9074 24.796C24.9537 23.3617 24.5833 21.9273 23.8426 20.678C23.0556 19.475 21.9444 18.5496 20.6018 18.0406C18.8889 17.3466 17.037 17.0689 15.1389 17.1152C13.9352 17.1152 12.8704 17.1152 11.9907 17.1615C11.0648 17.1152 10.4167 17.1615 10.0926 17.2077Z" fill="#31A8FF"/>
<path d="M63.023 30.3221C61.6294 29.5913 60.1428 29.0889 58.5634 28.7692C56.8445 28.4038 55.1257 28.1755 53.3604 28.1755C52.4313 28.1298 51.4558 28.2668 50.5731 28.4952C49.9692 28.6322 49.4582 28.9519 49.1331 29.4087C48.9008 29.774 48.7614 30.2308 48.7614 30.6418C48.7614 31.0529 48.9472 31.4639 49.226 31.8293C49.6441 32.3317 50.2015 32.7428 50.8054 33.0625C51.8739 33.6106 52.9888 34.113 54.1037 34.5697C56.6123 35.3918 59.0279 36.5337 61.2577 37.9038C62.7907 38.863 64.045 40.1418 64.9277 41.6947C65.6709 43.1563 66.0426 44.7548 65.9961 46.399C66.0426 48.5457 65.3922 50.6923 64.1844 52.4736C62.8837 54.3005 61.0719 55.7163 58.9815 56.5385C56.7052 57.4976 53.9179 58 50.5731 58C48.4362 58 46.3458 57.8173 44.2553 57.4063C42.6294 57.1322 41.0035 56.6298 39.5169 55.9447C39.1917 55.762 38.9595 55.4423 39.0059 55.0769V47.1298C39.0059 46.9928 39.0524 46.8101 39.1917 46.7188C39.3311 46.6274 39.4705 46.6731 39.6098 46.7644C41.4216 47.8149 43.3262 48.5457 45.3702 49.0024C47.1355 49.4591 48.9937 49.6875 50.8519 49.6875C52.6172 49.6875 53.8714 49.4591 54.7076 49.0481C55.4509 48.7284 55.9619 47.9519 55.9619 47.1298C55.9619 46.4904 55.5903 45.8966 54.847 45.3029C54.1037 44.7091 52.5707 44.024 50.2944 43.1563C47.9252 42.3341 45.7419 41.238 43.6978 39.8678C42.2577 38.863 41.0499 37.5385 40.1673 35.9856C39.424 34.524 39.0524 32.9255 39.0988 31.3269C39.0988 29.363 39.6563 27.4904 40.6783 25.8005C41.8397 23.9736 43.5585 22.512 45.556 21.5986C47.7394 20.5024 50.4802 20 53.7785 20C55.6832 20 57.6343 20.137 59.5389 20.4111C60.9326 20.5937 62.2797 20.9591 63.534 21.4615C63.7198 21.5072 63.9057 21.6899 63.9986 21.8726C64.045 22.0553 64.0915 22.238 64.0915 22.4207V29.8654C64.0915 30.0481 63.9986 30.2308 63.8592 30.3221C63.4411 30.4135 63.2088 30.4135 63.023 30.3221Z" fill="#31A8FF"/>
</svg>
