<svg width="66" height="66" viewBox="0 0 66 66" fill="none" xmlns="http://www.w3.org/2000/svg">
<path d="M52.332 23.1783C51.7096 22.9656 51.0647 22.7643 50.4006 22.574C50.5097 22.1317 50.6099 21.6952 50.699 21.2661C52.1611 14.2199 51.2051 8.5434 47.9408 6.67446C44.8107 4.8824 39.6917 6.75091 34.5218 11.2179C34.0246 11.6474 33.5261 12.1022 33.0278 12.5788C32.6957 12.2635 32.3642 11.9587 32.0336 11.6672C26.6153 6.89087 21.1844 4.87805 17.9233 6.7524C14.7962 8.54966 13.8701 13.8861 15.1862 20.5638C15.3133 21.2088 15.4619 21.8675 15.6299 22.5372C14.8612 22.7538 14.1192 22.9848 13.4092 23.2305C7.05687 25.4293 3 28.8753 3 32.4498C3 36.1416 7.35506 39.8445 13.9715 42.0897C14.4936 42.2669 15.0354 42.4344 15.5938 42.5935C15.4125 43.3178 15.2549 44.0276 15.1226 44.7199C13.8677 51.2817 14.8477 56.4921 17.9664 58.278C21.1878 60.1223 26.5942 58.2266 31.8586 53.6578C32.2747 53.2967 32.6923 52.9137 33.1106 52.5122C33.6529 53.0306 34.1942 53.5212 34.7327 53.9814C39.8319 58.338 44.8683 60.0972 47.9841 58.3063C51.2023 56.4567 52.2482 50.8595 50.8904 44.0496C50.7867 43.5295 50.666 42.9982 50.5304 42.4574C50.9101 42.346 51.2828 42.2309 51.6463 42.1113C58.5247 39.8487 63 36.1909 63 32.4498C63 28.8624 58.8123 25.3931 52.332 23.1783ZM50.8402 39.6958C50.5121 39.8036 50.1754 39.9079 49.8324 40.0089C49.0731 37.6222 48.0482 35.0843 46.7941 32.4622C47.9909 29.9026 48.9761 27.3971 49.7142 25.0259C50.328 25.2022 50.9237 25.3882 51.4977 25.5845C57.05 27.4822 60.4368 30.2879 60.4368 32.4498C60.4368 34.7526 56.7792 37.742 50.8402 39.6958ZM48.3759 44.5438C48.9763 47.5551 49.0621 50.2776 48.6643 52.4059C48.307 54.3183 47.5883 55.5933 46.6998 56.104C44.8089 57.1906 40.7653 55.7781 36.4043 52.0524C35.9044 51.6253 35.4008 51.1692 34.8957 50.6865C36.5863 48.8508 38.276 46.7167 39.9251 44.3465C42.8256 44.091 45.566 43.6732 48.0511 43.1029C48.1735 43.593 48.2822 44.0738 48.3759 44.5438ZM23.4554 55.9162C21.6079 56.564 20.1366 56.5825 19.2471 56.0733C17.3546 54.9896 16.5678 50.8062 17.641 45.1945C17.7639 44.5518 17.9102 43.8916 18.0789 43.2168C20.5367 43.7564 23.257 44.1447 26.1645 44.3788C27.8247 46.698 29.5632 48.8298 31.3151 50.6964C30.9324 51.0633 30.5511 51.4126 30.172 51.7417C27.8441 53.7619 25.5112 55.1953 23.4554 55.9162ZM14.8005 39.6817C11.8748 38.6889 9.45868 37.3986 7.80255 35.9906C6.31441 34.7253 5.56307 33.4691 5.56307 32.4498C5.56307 30.2807 8.82034 27.514 14.2529 25.6335C14.9121 25.4053 15.6021 25.1903 16.3182 24.9883C17.069 27.413 18.0539 29.9482 19.2424 32.5117C18.0385 35.1134 17.0396 37.6889 16.2814 40.1421C15.7709 39.9964 15.2764 39.8431 14.8005 39.6817ZM17.7017 20.0751C16.5741 14.3538 17.3229 10.0378 19.2074 8.95481C21.2147 7.80106 25.6534 9.44606 30.3316 13.5702C30.6307 13.8338 30.9309 14.1097 31.2319 14.3952C29.4887 16.2536 27.7661 18.3694 26.1206 20.675C23.2988 20.9346 20.5976 21.3518 18.1141 21.9103C17.958 21.2868 17.8197 20.6741 17.7017 20.0751ZM43.5829 26.42C42.9892 25.4019 42.3797 24.4078 41.7584 23.4409C43.6728 23.6812 45.5069 24.0002 47.2294 24.3905C46.7123 26.0359 46.0677 27.7563 45.309 29.5199C44.7648 28.494 44.1891 27.4597 43.5829 26.42ZM33.0286 16.2138C34.2109 17.4855 35.3949 18.9053 36.5594 20.4457C35.3859 20.3907 34.1979 20.3621 33 20.3621C31.8135 20.3621 30.6342 20.39 29.4679 20.4441C30.6336 18.918 31.8279 17.5001 33.0286 16.2138ZM22.4067 26.4376C21.8136 27.4586 21.2487 28.4874 20.713 29.518C19.9665 27.7605 19.328 26.0323 18.8064 24.3635C20.5183 23.9832 22.3438 23.6722 24.246 23.4365C23.6159 24.4123 23.0014 25.4139 22.4067 26.4376ZM24.3008 41.6447C22.3355 41.427 20.4825 41.132 18.771 40.7622C19.301 39.0636 19.9536 37.2985 20.7158 35.5031C21.2529 36.533 21.8202 37.5622 22.4168 38.5854C23.0246 39.6278 23.6544 40.6489 24.3008 41.6447ZM33.0995 48.8652C31.8847 47.5639 30.673 46.1244 29.4895 44.576C30.6383 44.6207 31.8096 44.6436 33 44.6436C34.223 44.6436 35.4319 44.6163 36.6219 44.5637C35.4535 46.14 34.2738 47.5817 33.0995 48.8652ZM45.3335 35.4116C46.1354 37.2264 46.8115 38.9823 47.3483 40.6519C45.6086 41.0459 43.7303 41.3633 41.7513 41.5991C42.3742 40.6191 42.989 39.608 43.5932 38.5679C44.2044 37.5157 44.7848 36.4618 45.3335 35.4116ZM41.3729 37.2966C40.435 38.9112 39.4721 40.4525 38.4946 41.9073C36.7142 42.0337 34.8748 42.0988 33 42.0988C31.1328 42.0988 29.3166 42.0412 27.5677 41.9285C26.5507 40.4546 25.5669 38.9087 24.635 37.3105C23.7055 35.7166 22.8502 34.1092 22.0751 32.5109C22.85 30.9088 23.7032 29.2997 24.6274 27.7087L24.6272 27.709C25.5537 26.1137 26.5289 24.5754 27.5365 23.1106C29.3209 22.9767 31.1507 22.9068 32.9999 22.9068C34.8575 22.9068 36.6897 22.9773 38.4736 23.1123C39.4657 24.5664 40.4343 26.0997 41.3645 27.6952C42.3053 29.3086 43.1695 30.907 43.9511 32.4747C43.1719 34.0694 42.3096 35.6839 41.3729 37.2966ZM46.6605 8.8791C48.6697 10.0295 49.451 14.6688 48.1887 20.7525C48.1081 21.1407 48.0175 21.5361 47.919 21.9368C45.4297 21.3665 42.7266 20.9422 39.8966 20.6786C38.2479 18.3476 36.5394 16.2286 34.8246 14.394C35.2856 13.9536 35.746 13.5337 36.2045 13.1375C40.6341 9.31023 44.7742 7.79915 46.6605 8.8791ZM33 27.1305C35.959 27.1305 38.3578 29.512 38.3578 32.4498C38.3578 35.3876 35.959 37.7692 33 37.7692C30.041 37.7692 27.6422 35.3876 27.6422 32.4498C27.6422 29.512 30.041 27.1305 33 27.1305Z" fill="#00D8FF"/>
</svg>
