<svg width="67" height="66" viewBox="0 0 67 66" fill="none" xmlns="http://www.w3.org/2000/svg">
<path d="M64.6767 1H23V22.6627H43.5069C44.2375 22.6627 44.8302 23.2771 44.8302 24.0345V45H66V2.37429C66.0006 2.01004 65.8615 1.66048 65.6133 1.40267C65.365 1.14487 65.0281 1 64.6767 1Z" fill="#8E75FF"/>
<path opacity="0.405" d="M22.4639 1V22.0915H2.6699C2.3979 22.0911 2.1531 21.9269 2.05005 21.676C1.947 21.425 2.00609 21.1369 2.19966 20.9464L22.4639 1ZM45.7088 63.8083C45.5161 63.997 45.2287 64.0521 44.9795 63.9481C44.7303 63.8442 44.568 63.6014 44.5675 63.3321V43.8399H66L45.7088 63.8058V63.8083Z" fill="#8E75FF"/>
<path opacity="0.405" d="M23 22H44.3345C44.7002 22 45 22.315 45 22.705V45H24.3358C23.5994 45 23.0024 44.3676 23.0024 43.5875V22H23Z" fill="#8E75FF"/>
</svg>
