<svg width="62" height="57" viewBox="0 0 62 57" fill="none" xmlns="http://www.w3.org/2000/svg">
<path d="M11.7501 23.5001H1.95834C0.875868 23.5001 0 22.6242 0 21.5417V11.75H3.91668V19.5834H11.7501V23.5001Z" fill="white"/>
<path d="M0.165527 20.561L17.6197 3.10691L20.3884 5.87566L2.93428 23.3298L0.165527 20.561Z" fill="white"/>
<path d="M19.5832 7.83337C21.7463 7.83337 23.4999 6.07981 23.4999 3.91668C23.4999 1.75356 21.7463 0 19.5832 0C17.4201 0 15.6665 1.75356 15.6665 3.91668C15.6665 6.07981 17.4201 7.83337 19.5832 7.83337Z" fill="#F35CD2"/>
<path d="M41.1252 37.2084H31.3335V33.2917H39.1669V25.4584H43.0835V35.2501C43.0835 36.3326 42.2077 37.2084 41.1252 37.2084Z" fill="white"/>
<path d="M22.6826 19.585L25.4514 16.8162L42.9055 34.2703L40.1367 37.0391L22.6826 19.585Z" fill="white"/>
<path d="M23.5002 21.5417C25.6633 21.5417 27.4169 19.7882 27.4169 17.6251C27.4169 15.4619 25.6633 13.7084 23.5002 13.7084C21.3371 13.7084 19.5835 15.4619 19.5835 17.6251C19.5835 19.7882 21.3371 21.5417 23.5002 21.5417Z" fill="#E86436"/>
<path d="M38.2029 16.887L29.7423 11.9567C29.2949 11.6947 28.9678 11.2644 28.8359 10.7633C28.7039 10.2603 28.7766 9.72686 29.0366 9.27742L33.9707 0.818604L37.3537 2.79041L33.4086 9.55844L40.1749 13.5038L38.2029 16.887Z" fill="white"/>
<path d="M29.6675 8.52307L53.5409 2.2523L54.5359 6.04044L30.6625 12.3112L29.6675 8.52307Z" fill="white"/>
<path d="M54.8342 7.8341C56.9973 7.8341 58.7508 6.08054 58.7508 3.91742C58.7508 1.75429 56.9973 0.000732422 54.8342 0.000732422C52.671 0.000732422 50.9175 1.75429 50.9175 3.91742C50.9175 6.08054 52.671 7.8341 54.8342 7.8341Z" fill="#26DEEB"/>
<path d="M57.1953 42.4985L55.8661 34.7779L48.1456 36.1072L47.48 32.2478L57.1302 30.5859C58.2127 30.4079 59.209 31.1195 59.3926 32.1826L61.0545 41.8329L57.1953 42.4985Z" fill="white"/>
<path d="M41.9702 51.0969L56.214 30.9286L59.4137 33.1883L45.1699 53.3567L41.9702 51.0969Z" fill="white"/>
<path d="M43.0847 56.7926C45.2478 56.7926 47.0013 55.039 47.0013 52.8759C47.0013 50.7128 45.2478 48.9592 43.0847 48.9592C40.9215 48.9592 39.168 50.7128 39.168 52.8759C39.168 55.039 40.9215 56.7926 43.0847 56.7926Z" fill="#0FAA00"/>
<path d="M21.3314 52.0224L20.1782 48.2798L27.6635 45.9714L25.3571 38.4861L29.0997 37.3329L31.9836 46.6886C32.3011 47.7234 31.7217 48.819 30.6889 49.1385L21.3314 52.0224Z" fill="white"/>
<path d="M7.86572 37.7129L9.69504 34.2501L31.5206 45.7801L29.6913 49.2429L7.86572 37.7129Z" fill="white"/>
<path d="M8.07635 39.5317C10.2395 39.5317 11.993 37.7782 11.993 35.615C11.993 33.4519 10.2395 31.6984 8.07635 31.6984C5.91323 31.6984 4.15967 33.4519 4.15967 35.615C4.15967 37.7782 5.91323 39.5317 8.07635 39.5317Z" fill="#F6D831"/>
</svg>
