<svg width="67" height="66" viewBox="0 0 67 66" fill="none" xmlns="http://www.w3.org/2000/svg">
<path d="M33.5 65C51.4493 65 66 50.4493 66 32.5C66 14.5507 51.4493 0 33.5 0C15.5507 0 1 14.5507 1 32.5C1 50.4493 15.5507 65 33.5 65Z" fill="#028CB0"/>
<path d="M11.3738 32.5C11.3738 41.2681 16.4738 48.82 23.8492 52.4097L13.2962 23.4966C12.029 26.329 11.3739 29.3971 11.3738 32.5ZM33.5 54.6261C36.0697 54.6261 38.5411 54.175 40.8558 53.3708L40.6989 53.0766L33.8922 34.4419L27.2622 53.7239C29.2239 54.3122 31.3228 54.6261 33.5 54.6261ZM36.5403 22.1234L44.5434 45.9169L46.76 38.5416C47.7016 35.4816 48.4272 33.2847 48.4272 31.3819C48.4272 28.6358 47.4466 26.7528 46.6228 25.3011C45.485 23.4572 44.4453 21.9078 44.4453 20.1031C44.4453 18.0631 45.9753 16.18 48.1722 16.18H48.4469C44.37 12.4372 39.0344 10.3646 33.5 10.3738C29.8354 10.3732 26.2283 11.2835 23.0028 13.0228C19.7775 14.7622 17.035 17.2762 15.0223 20.3384L16.4346 20.3778C18.7492 20.3778 22.3192 20.0834 22.3192 20.0834C23.5353 20.0247 23.6728 21.7703 22.4761 21.9078C22.4761 21.9078 21.2797 22.0647 19.9261 22.1234L28.0078 46.0934L32.8528 31.5781L29.4003 22.1234C28.6272 22.0807 27.8552 22.0153 27.0858 21.9272C25.8892 21.8489 26.0266 20.0247 27.2231 20.0834C27.2231 20.0834 30.8716 20.3778 33.0489 20.3778C35.3634 20.3778 38.9334 20.0834 38.9334 20.0834C40.13 20.0247 40.2869 21.7703 39.0903 21.9078C39.0903 21.9078 37.8939 22.045 36.5403 22.1234ZM44.6219 51.625C47.9692 49.6787 50.747 46.888 52.6781 43.532C54.6091 40.176 55.6257 36.3721 55.6261 32.5C55.6261 28.6553 54.6453 25.0461 52.9192 21.8881C53.2697 25.3626 52.7437 28.8695 51.3892 32.0881L44.6219 51.625ZM33.5 58C26.7369 58 20.2509 55.3135 15.4688 50.5313C10.6866 45.7491 8 39.2631 8 32.5C8 25.7369 10.6866 19.2509 15.4688 14.4688C20.2509 9.68661 26.7369 7 33.5 7C40.2631 7 46.7491 9.68661 51.5313 14.4688C56.3135 19.2509 59 25.7369 59 32.5C59 39.2631 56.3135 45.7491 51.5313 50.5313C46.7491 55.3135 40.2631 58 33.5 58Z" fill="white"/>
</svg>
