<svg width="66" height="66" viewBox="0 0 66 66" fill="none" xmlns="http://www.w3.org/2000/svg">
<path d="M35.3975 13.2889L23.7817 33.8479L36.2091 55.6788C36.4674 56.1738 36.2091 56.2833 35.8347 56.2833H26.9668C26.3421 56.2833 25.9049 56.2596 25.6552 55.813C24.8217 54.0718 23.9891 52.3417 23.1569 50.6228C22.3237 48.9046 21.439 47.1523 20.5031 45.3659C19.5661 43.581 18.6398 41.773 17.7239 39.9418C16.8907 41.7278 15.964 43.5135 15.0697 45.2992C14.174 47.0852 13.2892 48.8597 12.4155 50.6228C11.5413 52.3869 10.6461 54.1392 9.73021 55.8797C9.56333 56.2815 9.27148 56.3229 8.85572 56.3229H0.300103C-0.0360681 56.3229 -0.0766314 56.0587 0.112783 55.7459L12.1657 34.5174L0.424916 13.2218C0.211663 12.918 0.395191 12.5944 0.737247 12.6191H9.54269C9.92397 12.5968 10.2609 12.747 10.4795 13.088C11.2289 14.874 12.0616 16.66 12.9775 18.4454C13.8927 20.2314 14.8193 21.9951 15.7566 23.7356C16.6935 25.4768 17.6198 27.2402 18.4108 29.0262C19.243 27.1961 20.0861 25.4104 20.9399 23.6689C21.7931 21.9277 22.6672 20.1754 23.5629 18.412C24.4579 16.6489 25.3217 14.8966 26.1546 13.1551C26.2653 12.7731 26.5299 12.5795 26.904 12.6191H35.085C35.3975 12.6191 35.5265 13.0651 35.3975 13.2889Z" fill="#FF61F6"/>
<path d="M53.3211 57.1525C47.8135 57.2425 42.0447 54.8715 39.1448 49.6188C37.7291 47.0969 37.0212 43.9385 37.0215 40.143C36.9979 37.0694 37.7304 34.0435 39.1448 31.3704C42.7944 24.5496 50.1469 21.994 57.1306 22.6648V9.47226C57.1306 9.16042 57.2556 9.00351 57.5053 9.00351H65.3741C65.5892 8.97056 65.7794 9.1746 65.7488 9.40524V48.9826C65.7488 50.6154 65.9038 52.2425 65.9989 53.8711C66.0142 54.1492 65.8602 54.4245 65.6238 54.5409C61.7361 56.2797 57.5293 57.1323 53.3211 57.1525ZM57.1306 48.8485V30.5667C51.4266 28.91 45.8888 33.4522 45.8895 39.7411C45.7541 46.2431 51.1151 50.7353 57.1306 48.8485Z" fill="#FF61F6"/>
</svg>
