<svg width="475" height="93" viewBox="0 0 475 93" fill="none" xmlns="http://www.w3.org/2000/svg">
<g filter="url(#filter0_d_419_87)">
<path d="M21.6312 80.5502L20.7163 82.5275L20.7274 82.5326L21.6312 80.5502ZM9.38234 69.9346L7.52795 71.0781L7.5348 71.0892L7.54178 71.1003L9.38234 69.9346ZM4.59946 52.5529L2.42147 52.606L2.42202 52.6284L2.42302 52.6507L4.59946 52.5529ZM4.59946 31.7882L2.42312 31.6882L2.42199 31.7129L2.42141 31.7376L4.59946 31.7882ZM9.49899 14.6399L11.3395 15.8056L11.3439 15.7987L11.3482 15.7918L9.49899 14.6399ZM21.8645 3.90758L22.7682 5.88993L22.7802 5.88446L22.7921 5.87885L21.8645 3.90758ZM54.878 2.15775L54.2451 4.24244L54.2623 4.24764L54.2795 4.25256L54.878 2.15775ZM66.3102 7.75721L64.9899 9.49016L65.0031 9.50022L65.0164 9.51008L66.3102 7.75721ZM73.8928 16.623L71.9529 17.6145L71.9662 17.6406L71.9802 17.6663L73.8928 16.623ZM76.8092 28.2886L74.6309 28.3275L74.6327 28.4286L74.6439 28.5292L76.8092 28.2886ZM76.1093 30.0384L74.6914 28.3843L74.6279 28.4387L74.5687 28.4979L76.1093 30.0384ZM56.2778 30.1551L54.86 31.8092L54.9331 31.8719L55.0115 31.9279L56.2778 30.1551ZM54.878 27.7053L52.7716 28.2617L52.7893 28.3286L52.8111 28.3942L54.878 27.7053ZM49.5118 19.3061L48.3307 21.1368L48.3647 21.1587L48.3996 21.1794L49.5118 19.3061ZM30.3803 20.5893L31.8704 22.1787L31.8834 22.1665L31.8962 22.1541L30.3803 20.5893ZM26.2974 32.3715L24.1207 32.2795L24.1202 32.2919L26.2974 32.3715ZM26.2974 51.9696L24.1201 52.0456L24.1204 52.0536L24.1207 52.0616L26.2974 51.9696ZM30.3803 63.8685L28.8644 65.4333L28.8773 65.4457L28.8903 65.4579L30.3803 63.8685ZM49.6285 65.0351L48.4738 63.1876L48.4738 63.1876L49.6285 65.0351ZM54.878 56.6359L52.7729 56.0745L52.7685 56.091L52.7644 56.1075L54.878 56.6359ZM56.1612 54.3027L57.4275 56.0756L57.4481 56.0609L57.4684 56.0457L56.1612 54.3027ZM76.1093 54.3027L74.5687 55.8433L74.6279 55.9024L74.6914 55.9569L76.1093 54.3027ZM76.8092 56.0526L74.6439 55.812L74.6327 55.9125L74.6309 56.0137L76.8092 56.0526ZM73.8928 67.8348L71.9705 66.8095L71.9662 66.8175L71.9621 66.8255L73.8928 67.8348ZM66.3102 76.7006L67.604 78.4535L67.6174 78.4436L67.6306 78.4336L66.3102 76.7006ZM54.878 82.3001L55.4765 84.3949L55.4937 84.39L55.5108 84.3848L54.878 82.3001ZM40.646 81.9879C33.488 81.9879 27.4736 80.8194 22.5349 78.5679L20.7274 82.5326C26.3655 85.1029 33.0277 86.3452 40.646 86.3452V81.9879ZM22.546 78.573C17.6998 76.3307 13.9449 73.0668 11.2229 68.7689L7.54178 71.1003C10.7303 76.1348 15.1413 79.948 20.7163 82.5275L22.546 78.573ZM11.2367 68.791C8.59862 64.513 7.07465 59.1022 6.7759 52.4551L2.42302 52.6507C2.74644 59.8467 4.41105 66.0237 7.52795 71.0781L11.2367 68.791ZM6.77745 52.4998C6.70017 49.3312 6.66145 45.9272 6.66145 42.2872H2.30417C2.30417 45.9577 2.34321 49.3974 2.42147 52.606L6.77745 52.4998ZM6.66145 42.2872C6.66145 38.6474 6.70017 35.1647 6.77751 31.8389L2.42141 31.7376C2.34322 35.1001 2.30417 38.6167 2.30417 42.2872H6.66145ZM6.7758 31.8883C7.0734 25.4156 8.62807 20.0868 11.3395 15.8056L7.65844 13.4742C4.45937 18.5254 2.74769 24.6288 2.42312 31.6882L6.7758 31.8883ZM11.3482 15.7918C14.0675 11.4266 17.8534 8.13053 22.7682 5.88993L20.9608 1.92522C15.2988 4.50639 10.8411 8.36514 7.64981 13.4879L11.3482 15.7918ZM22.7921 5.87885C27.7298 3.55522 33.6597 2.35324 40.646 2.35324V-2.00404C33.167 -2.00404 26.5759 -0.717371 20.9368 1.9363L22.7921 5.87885ZM40.646 2.35324C45.5914 2.35324 50.1195 2.99 54.2451 4.24244L55.5108 0.0730495C50.9262 -1.31871 45.9663 -2.00404 40.646 -2.00404V2.35324ZM54.2795 4.25256C58.4004 5.42998 61.9607 7.1822 64.9899 9.49016L67.6306 6.02425C64.1271 3.35491 60.0658 1.37416 55.4765 0.0629329L54.2795 4.25256ZM65.0164 9.51008C68.0206 11.7274 70.3228 14.4253 71.9529 17.6145L75.8328 15.6315C73.8854 11.8214 71.1326 8.60873 67.604 6.00433L65.0164 9.51008ZM71.9802 17.6663C73.6595 20.7449 74.5587 24.2818 74.6309 28.3275L78.9875 28.2497C78.9042 23.5851 77.8591 19.3449 75.8054 15.5798L71.9802 17.6663ZM74.6439 28.5292C74.6464 28.5518 74.6439 28.5502 74.6464 28.5295C74.6491 28.5077 74.6559 28.4765 74.6697 28.4419C74.6836 28.4073 74.699 28.3827 74.7086 28.3698C74.7175 28.3578 74.7155 28.3637 74.6914 28.3843L77.5271 31.6926C78.6068 30.7671 79.1336 29.4797 78.9745 28.048L74.6439 28.5292ZM74.5687 28.4979C74.5333 28.5333 74.5167 28.539 74.5127 28.5405C74.5062 28.5431 74.4638 28.5597 74.3594 28.5597V32.917C75.5983 32.917 76.7479 32.4808 77.6498 31.5789L74.5687 28.4979ZM74.3594 28.5597H58.611V32.917H74.3594V28.5597ZM58.611 28.5597C57.8353 28.5597 57.5739 28.4035 57.5442 28.3822L55.0115 31.9279C56.0706 32.6844 57.3646 32.917 58.611 32.917V28.5597ZM57.6957 28.5009C57.5957 28.4152 57.2873 28.0437 56.9448 27.0164L52.8111 28.3942C53.2464 29.7 53.8712 30.9617 54.86 31.8092L57.6957 28.5009ZM56.9844 27.1489C55.8182 22.7341 53.7944 19.3152 50.6241 17.4328L48.3996 21.1794C50.2066 22.2523 51.7602 24.4329 52.7716 28.2617L56.9844 27.1489ZM50.6929 17.4754C47.8522 15.6427 44.4224 14.7944 40.5294 14.7944V19.1516C43.7912 19.1516 46.3497 19.8587 48.3307 21.1368L50.6929 17.4754ZM40.5294 14.7944C35.8262 14.7944 31.8501 16.1322 28.8644 19.0245L31.8962 22.1541C33.8879 20.2246 36.6778 19.1516 40.5294 19.1516V14.7944ZM28.8903 18.9999C25.7914 21.9051 24.3638 26.5253 24.1207 32.2795L28.4741 32.4635C28.6976 27.1744 29.992 23.9397 31.8704 22.1787L28.8903 18.9999ZM24.1202 32.2919C23.8849 38.7233 23.885 45.308 24.1201 52.0456L28.4747 51.8937C28.2431 45.2548 28.2432 38.774 28.4746 32.4512L24.1202 32.2919ZM24.1207 52.0616C24.3642 57.8236 25.7939 62.4587 28.8644 65.4333L31.8962 62.3037C29.9895 60.4566 28.6972 57.159 28.4741 51.8777L24.1207 52.0616ZM28.8903 65.4579C31.8784 68.2593 35.8453 69.5468 40.5294 69.5468V65.1895C36.6587 65.1895 33.8595 64.1439 31.8704 62.2791L28.8903 65.4579ZM40.5294 69.5468C44.4254 69.5468 47.8793 68.6974 50.7832 66.8825L48.4738 63.1876C46.4003 64.4835 43.7882 65.1895 40.5294 65.1895V69.5468ZM50.7832 66.8825C53.9198 64.9221 55.9015 61.5246 56.9916 57.1643L52.7644 56.1075C51.8325 59.8352 50.3145 62.0372 48.4738 63.1876L50.7832 66.8825ZM56.9831 57.1972C57.1083 56.7276 57.2363 56.4181 57.3411 56.2276C57.4467 56.0356 57.493 56.0288 57.4275 56.0756L54.8949 52.5299C53.7179 53.3706 53.1212 54.7686 52.7729 56.0745L56.9831 57.1972ZM57.4684 56.0457C57.614 55.9365 57.9297 55.7815 58.611 55.7815V51.4242C57.2702 51.4242 55.9528 51.7358 54.854 52.5598L57.4684 56.0457ZM58.611 55.7815H74.3594V51.4242H58.611V55.7815ZM74.3594 55.7815C74.4638 55.7815 74.5062 55.798 74.5127 55.8006C74.5167 55.8022 74.5333 55.8079 74.5687 55.8433L77.6498 52.7622C76.7479 51.8603 75.5983 51.4242 74.3594 51.4242V55.7815ZM74.6914 55.9569C74.7155 55.9775 74.7175 55.9834 74.7086 55.9714C74.699 55.9584 74.6836 55.9338 74.6697 55.8993C74.6559 55.8646 74.6491 55.8335 74.6464 55.8117C74.6439 55.791 74.6464 55.7893 74.6439 55.812L78.9745 56.2932C79.1336 54.8615 78.6068 53.5741 77.5271 52.6486L74.6914 55.9569ZM74.6309 56.0137C74.5587 60.0588 73.6594 63.6428 71.9705 66.8095L75.8152 68.86C77.8592 65.0275 78.9042 60.7566 78.9875 56.0915L74.6309 56.0137ZM71.9621 66.8255C70.3306 69.9466 68.0186 72.66 64.9899 74.9676L67.6306 78.4336C71.1345 75.7639 73.8776 72.5668 75.8236 68.844L71.9621 66.8255ZM65.0164 74.9477C61.9725 77.1944 58.3912 78.9567 54.2451 80.2154L55.5108 84.3848C60.0751 82.9992 64.1152 81.0285 67.604 78.4535L65.0164 74.9477ZM54.2795 80.2053C50.1429 81.3871 45.6029 81.9879 40.646 81.9879V86.3452C45.9548 86.3452 50.9028 85.7016 55.4765 84.3949L54.2795 80.2053ZM103.774 80.6669L104.653 78.6736L104.653 78.6736L103.774 80.6669ZM91.4085 70.1679L89.5593 71.3198L89.5636 71.3267L89.5679 71.3336L91.4085 70.1679ZM86.5089 52.4363L84.3309 52.4869L84.3314 52.5094L84.3324 52.5319L86.5089 52.4363ZM86.5089 32.2549L84.3324 32.1581L84.3314 32.1817L84.3309 32.2054L86.5089 32.2549ZM91.4085 14.6399L89.5643 13.4799L89.5593 13.4879L91.4085 14.6399ZM140.87 3.79092L139.967 5.77331L139.978 5.77821L140.87 3.79092ZM153.469 14.6399L151.625 15.7999L151.629 15.8067L151.634 15.8134L153.469 14.6399ZM158.369 32.2549L156.191 32.3274L156.192 32.3406L156.192 32.3538L158.369 32.2549ZM158.369 52.4363L156.192 52.335L156.192 52.3406L158.369 52.4363ZM153.469 70.1679L155.31 71.3336L155.314 71.3267L155.318 71.3198L153.469 70.1679ZM141.104 80.6669L140.224 78.6736L140.224 78.6736L141.104 80.6669ZM132.471 63.6352L130.978 62.0487L130.966 62.0598L130.955 62.0711L132.471 63.6352ZM136.671 51.7363L134.494 51.6374L134.494 51.6557L134.493 51.6741L136.671 51.7363ZM136.671 32.6048L134.494 32.6975L134.495 32.7085L136.671 32.6048ZM134.571 23.739L132.622 24.7133L132.642 24.7528L132.663 24.7915L134.571 23.739ZM129.671 18.6062L128.669 20.5403L128.669 20.5403L129.671 18.6062ZM115.323 18.6062L114.32 16.6721L115.323 18.6062ZM110.307 23.739L112.214 24.7915L112.222 24.7779L112.229 24.7643L110.307 23.739ZM108.207 32.6048L106.03 32.5122L106.029 32.5326L106.029 32.553L108.207 32.6048ZM108.207 51.7363L106.029 51.7858L106.029 51.8077L106.03 51.8296L108.207 51.7363ZM122.439 81.9879C115.517 81.9879 109.607 80.8591 104.653 78.6736L102.895 82.6602C108.518 85.1409 115.051 86.3452 122.439 86.3452V81.9879ZM104.653 78.6736C99.7409 76.5064 95.962 73.2858 93.249 69.0022L89.5679 71.3336C92.7655 76.3824 97.2302 80.1612 102.895 82.6602L104.653 78.6736ZM93.2576 69.0159C90.5467 64.6642 88.9844 59.1416 88.6855 52.3406L84.3324 52.5319C84.6556 59.8851 86.3596 66.1836 89.5593 71.3198L93.2576 69.0159ZM88.687 52.3856C88.6096 49.0584 88.5709 45.7311 88.5709 42.4039H84.2136C84.2136 45.7649 84.2527 49.1259 84.3309 52.4869L88.687 52.3856ZM88.5709 42.4039C88.5709 39.0766 88.6096 35.7101 88.687 32.3044L84.3309 32.2054C84.2527 35.6434 84.2136 39.0429 84.2136 42.4039H88.5709ZM88.6854 32.3516C88.984 25.6329 90.5445 20.1471 93.2576 15.7918L89.5593 13.4879C86.3619 18.6206 84.656 24.8782 84.3324 32.1581L88.6854 32.3516ZM93.2526 15.7999C96.0543 11.3459 99.8846 8.01153 104.794 5.77328L102.987 1.80856C97.3198 4.39208 92.8287 8.29039 89.5643 13.4799L93.2526 15.7999ZM104.794 5.77328C109.744 3.51673 115.607 2.35324 122.439 2.35324V-2.00404C115.116 -2.00404 108.614 -0.756653 102.987 1.80856L104.794 5.77328ZM122.439 2.35324C129.189 2.35324 135.014 3.51541 139.967 5.77328L141.774 1.80856C136.15 -0.755328 129.687 -2.00404 122.439 -2.00404V2.35324ZM139.978 5.77821C144.966 8.01921 148.828 11.354 151.625 15.7999L155.313 13.4799C152.044 8.28222 147.507 4.3844 141.763 1.80364L139.978 5.77821ZM151.634 15.8134C154.41 20.1563 155.968 25.6246 156.191 32.3274L160.546 32.1823C160.303 24.8865 158.594 18.6115 155.305 13.4663L151.634 15.8134ZM156.192 32.3538C156.346 35.7435 156.423 39.0935 156.423 42.4039H160.781C160.781 39.026 160.702 35.61 160.545 32.1559L156.192 32.3538ZM156.423 42.4039C156.423 45.7142 156.346 49.0246 156.192 52.335L160.545 52.5375C160.702 49.1597 160.781 45.7818 160.781 42.4039H156.423ZM156.192 52.3406C155.893 59.1416 154.331 64.6642 151.62 69.0159L155.318 71.3198C158.518 66.1836 160.222 59.8851 160.545 52.5319L156.192 52.3406ZM151.629 69.0022C148.916 73.2858 145.137 76.5064 140.224 78.6736L141.983 82.6602C147.647 80.1612 152.112 76.3824 155.31 71.3336L151.629 69.0022ZM140.224 78.6736C135.271 80.8591 129.361 81.9879 122.439 81.9879V86.3452C129.826 86.3452 136.36 85.1409 141.983 82.6602L140.224 78.6736ZM122.439 69.5468C127.033 69.5468 130.952 68.1426 133.988 65.1992L130.955 62.0711C128.857 64.1051 126.088 65.1895 122.439 65.1895V69.5468ZM133.964 65.2217C137.201 62.1756 138.685 57.5353 138.849 51.7986L134.493 51.6741C134.346 56.8253 133.03 60.1175 130.978 62.0487L133.964 65.2217ZM138.847 51.8353C139.004 48.3845 139.083 45.1238 139.083 42.0539H134.725C134.725 45.0501 134.649 48.2443 134.494 51.6374L138.847 51.8353ZM139.083 42.0539C139.083 38.9838 139.004 35.7994 138.847 32.5012L134.495 32.7085C134.649 35.9429 134.725 39.058 134.725 42.0539H139.083ZM138.847 32.5122C138.683 28.6527 137.939 25.334 136.479 22.6866L132.663 24.7915C133.691 26.6547 134.347 29.2466 134.494 32.6975L138.847 32.5122ZM136.52 22.7647C135.169 20.0643 133.225 17.9946 130.674 16.6721L128.669 20.5403C130.318 21.3953 131.639 22.7475 132.622 24.7133L136.52 22.7647ZM130.674 16.6721C128.221 15.3999 125.457 14.7944 122.439 14.7944V19.1516C124.865 19.1516 126.922 19.6349 128.669 20.5403L130.674 16.6721ZM122.439 14.7944C119.487 14.7944 116.765 15.4044 114.32 16.6721L116.326 20.5403C118.081 19.6303 120.102 19.1516 122.439 19.1516V14.7944ZM114.32 16.6721C111.783 17.9873 109.811 20.0394 108.384 22.7138L112.229 24.7643C113.291 22.7724 114.663 21.4026 116.326 20.5403L114.32 16.6721ZM108.399 22.6866C106.938 25.334 106.194 28.6527 106.03 32.5122L110.384 32.6975C110.53 29.2466 111.186 26.6547 112.214 24.7915L108.399 22.6866ZM106.029 32.553C105.951 35.8353 105.912 39.0023 105.912 42.0539H110.269C110.269 39.0394 110.307 35.9071 110.385 32.6567L106.029 32.553ZM105.912 42.0539C105.912 45.1054 105.951 48.3495 106.029 51.7858L110.385 51.6868C110.307 48.2794 110.269 45.0685 110.269 42.0539H105.912ZM106.03 51.8296C106.275 57.546 107.758 62.1619 110.89 65.1992L113.923 62.0711C111.922 60.1311 110.605 56.8145 110.383 51.643L106.03 51.8296ZM110.89 65.1992C113.925 68.1426 117.844 69.5468 122.439 69.5468V65.1895C118.79 65.1895 116.021 64.1051 113.923 62.0711L110.89 65.1992ZM172.941 82.1834L174.481 80.6429L174.481 80.6429L172.941 82.1834ZM172.941 2.15775L174.481 3.69828L174.481 3.69827L172.941 2.15775ZM192.422 2.15775L190.882 3.69827L190.933 3.74957L190.987 3.79734L192.422 2.15775ZM193.355 65.385H191.177V67.5637H193.355V65.385ZM230.685 66.3183L229.046 67.7529L229.141 67.8622L229.25 67.9579L230.685 66.3183ZM230.685 82.1834L229.25 80.5438L229.196 80.5916L229.145 80.6429L230.685 82.1834ZM175.04 80.8214C174.692 80.8214 174.57 80.7315 174.481 80.6429L171.4 83.7239C172.4 84.7241 173.678 85.1786 175.04 85.1786V80.8214ZM174.481 80.6429C174.393 80.5543 174.303 80.4316 174.303 80.0836H169.945C169.945 81.4465 170.4 82.7238 171.4 83.7239L174.481 80.6429ZM174.303 80.0836V4.25754H169.945V80.0836H174.303ZM174.303 4.25754C174.303 3.90951 174.393 3.78689 174.481 3.69828L171.4 0.617212C170.4 1.61738 169.945 2.89463 169.945 4.25754H174.303ZM174.481 3.69827C174.57 3.60966 174.692 3.51979 175.04 3.51979V-0.837484C173.678 -0.837484 172.4 -0.382955 171.4 0.617219L174.481 3.69827ZM175.04 3.51979H190.439V-0.837484H175.04V3.51979ZM190.439 3.51979C190.645 3.51979 190.75 3.56709 190.882 3.69827L193.963 0.617219C193.005 -0.34039 191.788 -0.837484 190.439 -0.837484V3.51979ZM190.987 3.79734C191.118 3.91187 191.177 4.00534 191.177 4.25754H195.534C195.534 2.7988 194.97 1.4924 193.857 0.518152L190.987 3.79734ZM191.177 4.25754V65.385H195.534V4.25754H191.177ZM193.355 67.5637H228.585V63.2064H193.355V67.5637ZM228.585 67.5637C228.837 67.5637 228.931 67.622 229.046 67.7529L232.325 64.8836C231.35 63.7702 230.044 63.2064 228.585 63.2064V67.5637ZM229.25 67.9579C229.381 68.0724 229.44 68.1659 229.44 68.4181H233.797C233.797 66.9593 233.233 65.6529 232.12 64.6787L229.25 67.9579ZM229.44 68.4181V80.0836H233.797V68.4181H229.44ZM229.44 80.0836C229.44 80.3358 229.381 80.4293 229.25 80.5438L232.12 83.823C233.233 82.8488 233.797 81.5424 233.797 80.0836H229.44ZM229.145 80.6429C229.056 80.7315 228.933 80.8214 228.585 80.8214V85.1786C229.948 85.1786 231.225 84.7241 232.226 83.7239L229.145 80.6429ZM228.585 80.8214H175.04V85.1786H228.585V80.8214ZM255.517 80.6669L256.397 78.6736L256.397 78.6736L255.517 80.6669ZM243.152 70.1679L241.303 71.3198L241.307 71.3267L241.311 71.3336L243.152 70.1679ZM238.252 52.4363L236.074 52.4869L236.075 52.5094L236.076 52.5319L238.252 52.4363ZM238.252 32.2549L236.076 32.1581L236.075 32.1817L236.074 32.2054L238.252 32.2549ZM243.152 14.6399L241.308 13.4799L241.303 13.4879L243.152 14.6399ZM292.614 3.79092L291.71 5.77331L291.721 5.77821L292.614 3.79092ZM305.212 14.6399L303.368 15.7999L303.373 15.8067L303.377 15.8134L305.212 14.6399ZM310.112 32.2549L307.935 32.3274L307.935 32.3406L307.936 32.3538L310.112 32.2549ZM310.112 52.4363L307.936 52.335L307.935 52.3406L310.112 52.4363ZM305.212 70.1679L307.053 71.3336L307.057 71.3267L307.062 71.3198L305.212 70.1679ZM292.847 80.6669L291.968 78.6736L291.968 78.6736L292.847 80.6669ZM284.214 63.6352L282.721 62.0487L282.709 62.0598L282.698 62.0711L284.214 63.6352ZM288.414 51.7363L286.238 51.6374L286.237 51.6557L286.236 51.6741L288.414 51.7363ZM288.414 32.6048L286.237 32.6975L286.238 32.7085L288.414 32.6048ZM286.314 23.739L284.366 24.7133L284.385 24.7528L284.407 24.7915L286.314 23.739ZM281.415 18.6062L280.412 20.5403L280.412 20.5403L281.415 18.6062ZM267.066 18.6062L266.063 16.6721L267.066 18.6062ZM262.05 23.739L263.957 24.7915L263.965 24.7779L263.972 24.7643L262.05 23.739ZM259.95 32.6048L257.773 32.5122L257.773 32.5326L257.772 32.553L259.95 32.6048ZM259.95 51.7363L257.772 51.7858L257.773 51.8077L257.773 51.8296L259.95 51.7363ZM274.182 81.9879C267.26 81.9879 261.35 80.8591 256.397 78.6736L254.638 82.6602C260.261 85.1409 266.794 86.3452 274.182 86.3452V81.9879ZM256.397 78.6736C251.484 76.5064 247.705 73.2858 244.992 69.0022L241.311 71.3336C244.509 76.3824 248.973 80.1612 254.638 82.6602L256.397 78.6736ZM245.001 69.0159C242.29 64.6642 240.728 59.1416 240.429 52.3406L236.076 52.5319C236.399 59.8851 238.103 66.1836 241.303 71.3198L245.001 69.0159ZM240.43 52.3856C240.353 49.0584 240.314 45.7311 240.314 42.4039H235.957C235.957 45.7649 235.996 49.1259 236.074 52.4869L240.43 52.3856ZM240.314 42.4039C240.314 39.0766 240.353 35.7101 240.43 32.3044L236.074 32.2054C235.996 35.6434 235.957 39.0429 235.957 42.4039H240.314ZM240.429 32.3516C240.727 25.6329 242.288 20.1471 245.001 15.7918L241.303 13.4879C238.105 18.6206 236.399 24.8782 236.076 32.1581L240.429 32.3516ZM244.996 15.7999C247.798 11.3459 251.628 8.01153 256.538 5.77328L254.73 1.80856C249.063 4.39208 244.572 8.29039 241.308 13.4799L244.996 15.7999ZM256.538 5.77328C261.487 3.51673 267.35 2.35324 274.182 2.35324V-2.00404C266.86 -2.00404 260.357 -0.756653 254.73 1.80856L256.538 5.77328ZM274.182 2.35324C280.932 2.35324 286.757 3.51541 291.71 5.77328L293.517 1.80856C287.893 -0.755328 281.431 -2.00404 274.182 -2.00404V2.35324ZM291.721 5.77821C296.709 8.01921 300.572 11.354 303.368 15.7999L307.057 13.4799C303.787 8.28222 299.251 4.3844 293.506 1.80364L291.721 5.77821ZM303.377 15.8134C306.153 20.1563 307.711 25.6246 307.935 32.3274L312.289 32.1823C312.046 24.8865 310.338 18.6115 307.048 13.4663L303.377 15.8134ZM307.936 32.3538C308.09 35.7435 308.167 39.0935 308.167 42.4039H312.524C312.524 39.026 312.445 35.61 312.288 32.1559L307.936 32.3538ZM308.167 42.4039C308.167 45.7142 308.09 49.0246 307.936 52.335L312.288 52.5375C312.445 49.1597 312.524 45.7818 312.524 42.4039H308.167ZM307.935 52.3406C307.637 59.1416 306.074 64.6642 303.363 69.0159L307.062 71.3198C310.261 66.1836 311.965 59.8851 312.289 52.5319L307.935 52.3406ZM303.372 69.0022C300.659 73.2858 296.88 76.5064 291.968 78.6736L293.726 82.6602C299.391 80.1612 303.855 76.3824 307.053 71.3336L303.372 69.0022ZM291.968 78.6736C287.014 80.8591 281.104 81.9879 274.182 81.9879V86.3452C281.57 86.3452 288.103 85.1409 293.726 82.6602L291.968 78.6736ZM274.182 69.5468C278.777 69.5468 282.696 68.1426 285.731 65.1992L282.698 62.0711C280.6 64.1051 277.831 65.1895 274.182 65.1895V69.5468ZM285.708 65.2217C288.944 62.1756 290.428 57.5353 290.592 51.7986L286.236 51.6741C286.089 56.8253 284.773 60.1175 282.721 62.0487L285.708 65.2217ZM290.59 51.8353C290.747 48.3845 290.826 45.1238 290.826 42.0539H286.469C286.469 45.0501 286.392 48.2443 286.238 51.6374L290.59 51.8353ZM290.826 42.0539C290.826 38.9838 290.747 35.7994 290.59 32.5012L286.238 32.7085C286.392 35.9429 286.469 39.058 286.469 42.0539H290.826ZM290.591 32.5122C290.426 28.6527 289.683 25.334 288.222 22.6866L284.407 24.7915C285.435 26.6547 286.091 29.2466 286.237 32.6975L290.591 32.5122ZM288.263 22.7647C286.913 20.0643 284.968 17.9946 282.418 16.6721L280.412 20.5403C282.061 21.3953 283.383 22.7475 284.366 24.7133L288.263 22.7647ZM282.418 16.6721C279.964 15.3999 277.2 14.7944 274.182 14.7944V19.1516C276.608 19.1516 278.666 19.6349 280.412 20.5403L282.418 16.6721ZM274.182 14.7944C271.231 14.7944 268.508 15.4044 266.063 16.6721L268.069 20.5403C269.824 19.6303 271.845 19.1516 274.182 19.1516V14.7944ZM266.063 16.6721C263.527 17.9873 261.554 20.0394 260.128 22.7138L263.972 24.7643C265.035 22.7724 266.406 21.4026 268.069 20.5403L266.063 16.6721ZM260.142 22.6866C258.682 25.334 257.938 28.6527 257.773 32.5122L262.127 32.6975C262.274 29.2466 262.93 26.6547 263.957 24.7915L260.142 22.6866ZM257.772 32.553C257.694 35.8353 257.655 39.0023 257.655 42.0539H262.012C262.012 39.0394 262.051 35.9071 262.128 32.6567L257.772 32.553ZM257.655 42.0539C257.655 45.1054 257.694 48.3495 257.772 51.7858L262.128 51.6868C262.051 48.2794 262.012 45.0685 262.012 42.0539H257.655ZM257.773 51.8296C258.018 57.546 259.501 62.1619 262.633 65.1992L265.666 62.0711C263.666 60.1311 262.348 56.8145 262.127 51.643L257.773 51.8296ZM262.633 65.1992C265.668 68.1426 269.587 69.5468 274.182 69.5468V65.1895C270.533 65.1895 267.764 64.1051 265.666 62.0711L262.633 65.1992ZM324.684 82.1834L326.224 80.6429L326.224 80.6429L324.684 82.1834ZM324.684 2.15775L326.224 3.69828L326.224 3.69827L324.684 2.15775ZM382.195 8.34048L380.823 10.0328L380.835 10.0429L380.848 10.0528L382.195 8.34048ZM386.861 41.9373L385.088 40.671L385.08 40.6831L385.071 40.6953L386.861 41.9373ZM376.362 50.5698L375.474 48.5804L373.294 49.5536L374.462 51.6357L376.362 50.5698ZM392.461 79.267L394.409 78.2927L394.386 78.2463L394.361 78.2011L392.461 79.267ZM391.994 82.3001L393.535 83.8406L393.535 83.8406L391.994 82.3001ZM371.579 81.9501L369.96 83.4075L369.998 83.4501L370.039 83.4906L371.579 81.9501ZM370.063 79.8503L372.012 78.876L372.004 78.8619L371.997 78.848L370.063 79.8503ZM356.764 54.1861L358.699 53.1837L358.089 52.0075H356.764V54.1861ZM344.749 54.1861V52.0075H342.57V54.1861H344.749ZM343.932 82.1834L342.392 80.6429L343.932 82.1834ZM344.749 37.7377H342.57V39.9163H344.749V37.7377ZM366.447 35.0546L364.939 33.4816L364.922 33.4977L364.906 33.5141L366.447 35.0546ZM366.563 20.356L364.957 21.8282L364.974 21.846L364.99 21.8634L366.563 20.356ZM344.749 17.5563V15.3776H342.57V17.5563H344.749ZM326.784 80.8214C326.436 80.8214 326.313 80.7315 326.224 80.6429L323.143 83.7239C324.144 84.7241 325.421 85.1786 326.784 85.1786V80.8214ZM326.224 80.6429C326.136 80.5543 326.046 80.4316 326.046 80.0836H321.689C321.689 81.4465 322.143 82.7238 323.143 83.7239L326.224 80.6429ZM326.046 80.0836V4.25754H321.689V80.0836H326.046ZM326.046 4.25754C326.046 3.90951 326.136 3.78689 326.224 3.69828L323.143 0.617212C322.143 1.61738 321.689 2.89463 321.689 4.25754H326.046ZM326.224 3.69827C326.313 3.60966 326.436 3.51979 326.784 3.51979V-0.837484C325.421 -0.837484 324.144 -0.382955 323.143 0.617219L326.224 3.69827ZM326.784 3.51979H358.514V-0.837484H326.784V3.51979ZM358.514 3.51979C368.223 3.51979 375.574 5.77676 380.823 10.0328L383.567 6.64821C377.306 1.57177 368.87 -0.837484 358.514 -0.837484V3.51979ZM380.848 10.0528C386.077 14.166 388.766 20.0222 388.766 27.9386H393.123C393.123 18.9011 389.979 11.6919 383.542 6.62817L380.848 10.0528ZM388.766 27.9386C388.766 33.0898 387.502 37.2924 385.088 40.671L388.634 43.2036C391.665 38.9607 393.123 33.8308 393.123 27.9386H388.766ZM385.071 40.6953C382.661 44.1697 379.477 46.7934 375.474 48.5804L377.25 52.5592C381.958 50.4576 385.774 47.3264 388.651 43.1793L385.071 40.6953ZM374.462 51.6357L390.561 80.3329L394.361 78.2011L378.262 49.5039L374.462 51.6357ZM390.512 80.2413C390.643 80.504 390.632 80.5948 390.632 80.5502H394.989C394.989 79.7279 394.745 78.9633 394.409 78.2927L390.512 80.2413ZM390.632 80.5502C390.632 80.5455 390.633 80.5376 390.635 80.5297C390.636 80.5221 390.637 80.5226 390.632 80.533C390.622 80.5544 390.58 80.6326 390.454 80.7595L393.535 83.8406C394.385 82.9904 394.989 81.881 394.989 80.5502H390.632ZM390.454 80.7595C390.418 80.7949 390.402 80.8006 390.398 80.8022C390.391 80.8048 390.349 80.8214 390.244 80.8214V85.1786C391.483 85.1786 392.633 84.7425 393.535 83.8406L390.454 80.7595ZM390.244 80.8214H374.846V85.1786H390.244V80.8214ZM374.846 80.8214C373.664 80.8214 373.248 80.5374 373.12 80.4096L370.039 83.4906C371.311 84.7627 373.072 85.1786 374.846 85.1786V80.8214ZM373.199 80.4927C372.571 79.7951 372.203 79.2588 372.012 78.876L368.114 80.8246C368.545 81.6861 369.188 82.5497 369.96 83.4075L373.199 80.4927ZM371.997 78.848L358.699 53.1837L354.83 55.1884L368.129 80.8527L371.997 78.848ZM356.764 52.0075H344.749V56.3647H356.764V52.0075ZM342.57 54.1861V80.0836H346.927V54.1861H342.57ZM342.57 80.0836C342.57 80.4316 342.48 80.5543 342.392 80.6429L345.473 83.7239C346.473 82.7238 346.927 81.4465 346.927 80.0836H342.57ZM342.392 80.6429C342.303 80.7315 342.18 80.8214 341.832 80.8214V85.1786C343.195 85.1786 344.472 84.7241 345.473 83.7239L342.392 80.6429ZM341.832 80.8214H326.784V85.1786H341.832V80.8214ZM344.749 39.9163H358.281V35.559H344.749V39.9163ZM358.281 39.9163C362.256 39.9163 365.638 38.9444 367.987 36.5951L364.906 33.5141C363.678 34.7423 361.616 35.559 358.281 35.559V39.9163ZM367.954 36.6275C370.335 34.3459 371.425 31.28 371.425 27.7053H367.068C367.068 30.3522 366.291 32.1859 364.939 33.4816L367.954 36.6275ZM371.425 27.7053C371.425 24.2147 370.38 21.1901 368.136 18.8486L364.99 21.8634C366.324 23.2548 367.068 25.1298 367.068 27.7053H371.425ZM368.169 18.8838C365.875 16.3813 362.394 15.3776 358.281 15.3776V19.7349C361.789 19.7349 363.829 20.5977 364.957 21.8282L368.169 18.8838ZM358.281 15.3776H344.749V19.7349H358.281V15.3776ZM342.57 17.5563V37.7377H346.927V17.5563H342.57ZM415.606 80.9002L414.73 82.8948L414.742 82.9004L414.755 82.9058L415.606 80.9002ZM403.94 72.151L402.188 73.446L402.188 73.446L403.94 72.151ZM399.741 60.7188H397.562V60.7607L397.564 60.8025L399.741 60.7188ZM400.441 59.0856L398.9 57.5451L398.9 57.5451L400.441 59.0856ZM419.456 58.8523L418.189 60.6251L418.244 60.6642L418.301 60.6998L419.456 58.8523ZM421.089 60.3688L423.011 59.3436L422.932 59.1957L422.832 59.0617L421.089 60.3688ZM423.655 63.7518L422.115 65.2924L422.141 65.3189L422.169 65.3445L423.655 63.7518ZM428.088 66.4349L427.294 68.4638L427.346 68.4841L427.399 68.5018L428.088 66.4349ZM445.12 65.2684L443.999 63.4002L443.985 63.4086L443.971 63.4173L445.12 65.2684ZM446.753 55.3526L445.263 56.942L445.29 56.9676L445.318 56.9922L446.753 55.3526ZM440.687 52.3196L439.98 54.3805L440.015 54.3924L440.05 54.4031L440.687 52.3196ZM429.721 49.5199L429.272 51.6518L429.28 51.6533L429.287 51.6548L429.721 49.5199ZM414.556 44.737L413.596 46.693L413.618 46.7037L413.641 46.714L414.556 44.737ZM405.107 36.9211L403.294 38.1296L403.301 38.1397L403.308 38.1497L405.107 36.9211ZM405.807 12.0735L404.046 10.7899L404.038 10.802L404.029 10.8142L405.807 12.0735ZM417.122 3.3243L416.253 1.32685L416.253 1.32685L417.122 3.3243ZM448.386 2.2744L447.673 4.33322L447.685 4.33731L448.386 2.2744ZM458.768 7.87386L460.163 6.20018L460.163 6.20018L458.768 7.87386ZM465.068 15.3398L463.142 16.3592L463.16 16.3934L463.18 16.4269L465.068 15.3398ZM467.401 22.9224H469.58V22.8884L469.579 22.8544L467.401 22.9224ZM466.701 24.6723L468.242 26.2128L468.301 26.1536L468.355 26.0901L466.701 24.6723ZM447.336 24.9056L446.362 26.8542L446.362 26.8542L447.336 24.9056ZM445.703 23.389L443.601 23.9623L443.694 24.3034L443.89 24.5975L445.703 23.389ZM441.97 18.9561L440.745 20.7577L440.786 20.7856L440.828 20.8116L441.97 18.9561ZM426.222 18.8395L427.376 20.687L427.386 20.6808L427.396 20.6745L426.222 18.8395ZM424.938 28.4052L423.292 29.8321L423.318 29.8624L423.346 29.8918L424.938 28.4052ZM430.188 31.4383L429.459 33.4915L429.469 33.4951L429.48 33.4986L430.188 31.4383ZM440.337 34.1213L439.872 36.2499L439.905 36.2569L439.937 36.2629L440.337 34.1213ZM457.485 39.1375L456.568 41.1136L456.582 41.1204L456.597 41.1269L457.485 39.1375ZM467.051 46.8368L465.211 48.0035L465.218 48.0139L465.224 48.0241L467.051 46.8368ZM465.534 72.3844L463.817 71.0444L463.813 71.0492L465.534 72.3844ZM453.169 81.1335L453.947 83.1685L453.169 81.1335ZM434.971 81.9879C427.379 81.9879 421.237 80.9224 416.457 78.8946L414.755 82.9058C420.241 85.2332 427.009 86.3452 434.971 86.3452V81.9879ZM416.482 78.9056C411.608 76.764 408.059 74.0581 405.692 70.8561L402.188 73.446C405.11 77.3988 409.338 80.5258 414.73 82.8948L416.482 78.9056ZM405.692 70.8561C403.281 67.5941 402.055 64.1987 401.918 60.6351L397.564 60.8025C397.738 65.3271 399.311 69.5531 402.188 73.446L405.692 70.8561ZM401.919 60.7188C401.919 60.7002 401.921 60.6929 401.921 60.694C401.921 60.6955 401.92 60.699 401.918 60.7021C401.917 60.705 401.918 60.7013 401.926 60.6903C401.934 60.6789 401.95 60.6571 401.981 60.6262L398.9 57.5451C398.052 58.3928 397.562 59.4811 397.562 60.7188H401.919ZM401.981 60.6262C402.162 60.4455 402.246 60.4477 402.307 60.4477V56.0904C400.969 56.0904 399.808 56.637 398.9 57.5451L401.981 60.6262ZM402.307 60.4477H417.006V56.0904H402.307V60.4477ZM417.006 60.4477C417.428 60.4477 417.728 60.486 417.93 60.5342C418.132 60.5823 418.196 60.6303 418.189 60.6251L420.722 57.0795C419.641 56.3075 418.288 56.0904 417.006 56.0904V60.4477ZM418.301 60.6998C418.682 60.938 419.031 61.2556 419.346 61.676L422.832 59.0617C422.214 58.2377 421.473 57.5444 420.61 57.0048L418.301 60.6998ZM419.166 61.3941C419.905 62.7785 420.898 64.076 422.115 65.2924L425.196 62.2113C424.234 61.2501 423.517 60.2923 423.011 59.3436L419.166 61.3941ZM422.169 65.3445C423.573 66.6552 425.3 67.6834 427.294 68.4638L428.882 64.4061C427.299 63.7865 426.071 63.0261 425.142 62.1591L422.169 65.3445ZM427.399 68.5018C429.555 69.2203 432.098 69.5468 434.971 69.5468V65.1895C432.4 65.1895 430.354 64.8939 428.777 64.3681L427.399 68.5018ZM434.971 69.5468C439.636 69.5468 443.504 68.8356 446.269 67.1194L443.971 63.4173C442.225 64.5009 439.327 65.1895 434.971 65.1895V69.5468ZM446.241 67.1365C449.129 65.4034 450.798 62.8391 450.798 59.5522H446.441C446.441 61.0872 445.777 62.3336 443.999 63.4002L446.241 67.1365ZM450.798 59.5522C450.798 57.238 449.923 55.2317 448.188 53.7131L445.318 56.9922C446.071 57.6512 446.441 58.4446 446.441 59.5522H450.798ZM448.243 53.7632C446.64 52.2606 444.244 51.1285 441.323 50.2361L440.05 54.4031C442.729 55.2216 444.377 56.1116 445.263 56.942L448.243 53.7632ZM441.393 50.2587C438.545 49.2821 434.787 48.3269 430.155 47.3849L429.287 51.6548C433.833 52.5793 437.385 53.4907 439.98 54.3805L441.393 50.2587ZM430.17 47.388C424.375 46.1679 419.485 44.6179 415.471 42.76L413.641 46.714C418.027 48.7446 423.247 50.3832 429.272 51.6518L430.17 47.388ZM415.516 42.781C411.668 40.8934 408.834 38.5161 406.906 35.6924L403.308 38.1497C405.735 41.7033 409.201 44.5365 413.596 46.693L415.516 42.781ZM406.92 35.7126C405.03 32.8784 404.019 29.2795 404.019 24.7889H399.662C399.662 29.9419 400.829 34.4311 403.294 38.1296L406.92 35.7126ZM404.019 24.7889C404.019 20.4783 405.211 16.6833 407.585 13.3327L404.029 10.8142C401.114 14.9295 399.662 19.6116 399.662 24.7889H404.019ZM407.567 13.3571C410.031 9.97825 413.476 7.28874 417.992 5.32175L416.253 1.32685C411.126 3.55946 407.027 6.70272 404.046 10.7899L407.567 13.3571ZM417.992 5.32175C422.479 3.36795 427.885 2.35324 434.271 2.35324V-2.00404C427.435 -2.00404 421.41 -0.918948 416.253 1.32685L417.992 5.32175ZM434.271 2.35324C439.453 2.35324 443.908 3.02989 447.673 4.33318L449.099 0.215617C444.776 -1.28082 439.821 -2.00404 434.271 -2.00404V2.35324ZM447.685 4.33731C451.602 5.66748 454.815 7.41544 457.374 9.54754L460.163 6.20018C457.122 3.66607 453.414 1.68105 449.087 0.211488L447.685 4.33731ZM457.374 9.54754C460.002 11.7377 461.901 14.0137 463.142 16.3592L466.993 14.3205C465.435 11.3775 463.134 8.67627 460.163 6.20018L457.374 9.54754ZM463.18 16.4269C464.512 18.7413 465.159 20.9222 465.223 22.9905L469.579 22.8544C469.488 19.9453 468.579 17.0712 466.956 14.2527L463.18 16.4269ZM465.222 22.9224C465.222 22.9463 465.23 23.0411 465.047 23.2544L468.355 26.0901C469.106 25.2146 469.58 24.1429 469.58 22.9224H465.222ZM465.16 23.1317C465.125 23.1671 465.108 23.1728 465.104 23.1744C465.098 23.177 465.056 23.1935 464.951 23.1935V27.5508C466.19 27.5508 467.34 27.1147 468.242 26.2128L465.16 23.1317ZM464.951 23.1935H449.553V27.5508H464.951V23.1935ZM449.553 23.1935C448.959 23.1935 448.569 23.086 448.311 22.9569L446.362 26.8542C447.348 27.3473 448.435 27.5508 449.553 27.5508V23.1935ZM448.311 22.9569C448.092 22.8476 447.816 22.6309 447.516 22.1805L443.89 24.5975C444.523 25.547 445.336 26.3413 446.362 26.8542L448.311 22.9569ZM447.805 22.8158C447.149 20.4112 445.442 18.5346 443.112 17.1007L440.828 20.8116C442.542 21.8663 443.324 22.9449 443.601 23.9623L447.805 22.8158ZM443.195 17.1546C440.782 15.5133 437.744 14.7944 434.271 14.7944V19.1516C437.174 19.1516 439.27 19.7547 440.745 20.7577L443.195 17.1546ZM434.271 14.7944C430.621 14.7944 427.473 15.4521 425.047 17.0045L427.396 20.6745C428.859 19.7382 431.077 19.1516 434.271 19.1516V14.7944ZM425.067 16.992C422.471 18.6146 421.243 21.1987 421.243 24.3223H425.6C425.6 22.4685 426.239 21.3974 427.376 20.687L425.067 16.992ZM421.243 24.3223C421.243 26.3975 421.935 28.2661 423.292 29.8321L426.585 26.9784C425.92 26.2112 425.6 25.3579 425.6 24.3223H421.243ZM423.346 29.8918C424.775 31.4229 426.897 32.5822 429.459 33.4915L430.916 29.3851C428.657 28.5834 427.28 27.7206 426.531 26.9187L423.346 29.8918ZM429.48 33.4986C432.083 34.3935 435.559 35.3088 439.872 36.2499L440.801 31.9928C436.56 31.0674 433.27 30.194 430.896 29.378L429.48 33.4986ZM439.937 36.2629C446.915 37.5665 452.438 39.196 456.568 41.1136L458.403 37.1615C453.823 35.0351 447.913 33.3204 440.737 31.9798L439.937 36.2629ZM456.597 41.1269C460.664 42.9424 463.472 45.2614 465.211 48.0035L468.891 45.67C466.586 42.035 463.017 39.2212 458.373 37.1481L456.597 41.1269ZM465.224 48.0241C466.96 50.6951 467.905 54.18 467.905 58.619H472.263C472.263 53.57 471.186 49.2001 468.878 45.6495L465.224 48.0241ZM467.905 58.619C467.905 63.4594 466.529 67.5673 463.817 71.0444L467.252 73.7243C470.606 69.4244 472.263 64.3554 472.263 58.619H467.905ZM463.813 71.0492C461.142 74.4934 457.372 77.1939 452.391 79.0986L453.947 83.1685C459.542 81.0291 464.017 77.8968 467.256 73.7195L463.813 71.0492ZM452.391 79.0986C447.397 81.0081 441.603 81.9879 434.971 81.9879V86.3452C442.026 86.3452 448.364 85.303 453.947 83.1685L452.391 79.0986Z" fill="#FF0054"/>
</g>
<defs>
<filter id="filter0_d_419_87" x="0.48291" y="0.174561" width="473.601" height="91.9919" filterUnits="userSpaceOnUse" color-interpolation-filters="sRGB">
<feFlood flood-opacity="0" result="BackgroundImageFix"/>
<feColorMatrix in="SourceAlpha" type="matrix" values="0 0 0 0 0 0 0 0 0 0 0 0 0 0 0 0 0 0 127 0" result="hardAlpha"/>
<feOffset dy="4"/>
<feGaussianBlur stdDeviation="2"/>
<feComposite in2="hardAlpha" operator="out"/>
<feColorMatrix type="matrix" values="0 0 0 0 0 0 0 0 0 0 0 0 0 0 0 0 0 0 0.25 0"/>
<feBlend mode="normal" in2="BackgroundImageFix" result="effect1_dropShadow_419_87"/>
<feBlend mode="normal" in="SourceGraphic" in2="effect1_dropShadow_419_87" result="shape"/>
</filter>
</defs>
</svg>
