<svg width="467" height="85" viewBox="0 0 467 85" fill="none" xmlns="http://www.w3.org/2000/svg">
<path d="M17.6312 80.5502L17.2112 81.4578L17.2164 81.4601L17.6312 80.5502ZM5.38234 69.9346L4.53111 70.4595L4.53752 70.4696L5.38234 69.9346ZM0.599463 52.5529L-0.400239 52.5773L-0.399989 52.5876L-0.399528 52.5978L0.599463 52.5529ZM0.599463 31.7882L-0.399481 31.7423L-0.400002 31.7536L-0.400266 31.765L0.599463 31.7882ZM5.49899 14.6399L6.34384 15.1749L6.34777 15.1686L5.49899 14.6399ZM17.8645 3.90758L18.2793 4.81755L18.2903 4.81239L17.8645 3.90758ZM50.878 2.15775L50.5875 3.11463L50.5954 3.11701L50.6033 3.11927L50.878 2.15775ZM62.3102 7.75721L61.7042 8.55264L61.7102 8.55726L61.7164 8.56178L62.3102 7.75721ZM69.8928 16.623L69.0024 17.0781L69.0085 17.0901L69.0149 17.1019L69.8928 16.623ZM72.8092 28.2886L71.8094 28.3064L71.8102 28.3529L71.8153 28.399L72.8092 28.2886ZM72.1093 30.0384L71.4585 29.2791L71.4293 29.3041L71.4022 29.3313L72.1093 30.0384ZM52.2778 30.1551L51.6271 30.9143L51.6606 30.9431L51.6966 30.9688L52.2778 30.1551ZM50.878 27.7053L49.9111 27.9607L49.9193 27.9914L49.9293 28.0215L50.878 27.7053ZM45.5118 19.3061L44.9697 20.1464L44.9853 20.1565L45.0013 20.166L45.5118 19.3061ZM26.3803 20.5893L27.0643 21.3188L27.0702 21.3132L27.0761 21.3076L26.3803 20.5893ZM22.2974 32.3715L21.2983 32.3293L21.2981 32.335L22.2974 32.3715ZM22.2974 51.9696L21.298 52.0045L21.2983 52.0119L22.2974 51.9696ZM26.3803 63.8685L25.6845 64.5867L25.6904 64.5924L25.6964 64.598L26.3803 63.8685ZM45.6285 65.0351L45.0985 64.1871L45.0985 64.1871L45.6285 65.0351ZM50.878 56.6359L49.9117 56.3782L49.9097 56.3857L49.9078 56.3933L50.878 56.6359ZM52.1612 54.3027L52.7424 55.1165L52.7519 55.1097L52.7612 55.1028L52.1612 54.3027ZM72.1093 54.3027L71.4022 55.0099L71.4293 55.037L71.4585 55.062L72.1093 54.3027ZM72.8092 56.0526L71.8153 55.9422L71.8102 55.9883L71.8094 56.0347L72.8092 56.0526ZM69.8928 67.8348L69.0104 67.3642L69.0066 67.3715L69.8928 67.8348ZM62.3102 76.7006L62.9041 77.5052L62.9102 77.5007L62.9163 77.496L62.3102 76.7006ZM50.878 82.3001L51.1527 83.2616L51.1606 83.2593L51.1685 83.2569L50.878 82.3001ZM36.646 83.1666C29.3635 83.1666 23.1739 81.978 18.046 79.6403L17.2164 81.4601C22.6652 83.9442 29.1522 85.1666 36.646 85.1666V83.1666ZM18.0511 79.6427C13.0077 77.3092 9.07536 73.8967 6.22716 69.3995L4.53752 70.4696C7.59987 75.3049 11.8334 78.9695 17.2112 81.4578L18.0511 79.6427ZM6.23351 69.4097C3.46589 64.9217 1.90388 59.3036 1.59845 52.508L-0.399528 52.5978C-0.0827859 59.6453 1.54378 65.6151 4.53117 70.4595L6.23351 69.4097ZM1.59917 52.5285C1.52162 49.3491 1.48281 45.9355 1.48281 42.2872H-0.517192C-0.517192 45.9494 -0.478234 49.3795 -0.400239 52.5773L1.59917 52.5285ZM1.48281 42.2872C1.48281 38.6391 1.52162 35.1472 1.59919 31.8115L-0.400266 31.765C-0.478232 35.1175 -0.517192 38.625 -0.517192 42.2872H1.48281ZM1.59841 31.8342C1.9033 25.2028 3.50044 19.6645 6.34381 15.1749L4.65418 14.1048C1.587 18.9477 -0.0822098 24.8417 -0.399481 31.7423L1.59841 31.8342ZM6.34777 15.1686C9.19473 10.5985 13.1624 7.1502 18.2793 4.81748L17.4497 2.99767C11.9898 5.48671 7.7138 9.19327 4.65022 14.1111L6.34777 15.1686ZM18.2903 4.81239C23.4177 2.39949 29.5265 1.1746 36.646 1.1746V-0.8254C29.3003 -0.8254 22.888 0.43836 17.4387 3.00276L18.2903 4.81239ZM36.646 1.1746C41.6928 1.1746 46.3377 1.8245 50.5875 3.11463L51.1685 1.20086C46.708 -0.153207 41.8649 -0.8254 36.646 -0.8254V1.1746ZM50.6033 3.11927C54.8509 4.33288 58.5467 6.14692 61.7042 8.55264L62.9163 6.96177C59.5411 4.39019 55.6153 2.47125 51.1527 1.19622L50.6033 3.11927ZM61.7164 8.56178C64.8624 10.8838 67.2865 13.721 69.0024 17.0781L70.7833 16.1679C68.9217 12.5258 66.2908 9.45234 62.9041 6.95263L61.7164 8.56178ZM69.0149 17.1019C70.7955 20.3662 71.7341 24.0933 71.8094 28.3064L73.8091 28.2707C73.7287 23.7735 72.7231 19.7236 70.7707 16.1442L69.0149 17.1019ZM71.8153 28.399C71.8558 28.763 71.7572 29.0231 71.4585 29.2791L72.7601 30.7977C73.5502 30.1204 73.9182 29.214 73.8031 28.1781L71.8153 28.399ZM71.4022 29.3313C71.1353 29.5981 70.812 29.7383 70.3594 29.7383V31.7383C71.3067 31.7383 72.15 31.4119 72.8164 30.7455L71.4022 29.3313ZM70.3594 29.7383H54.611V31.7383H70.3594V29.7383ZM54.611 29.7383C53.7079 29.7383 53.1672 29.5614 52.8591 29.3413L51.6966 30.9688C52.4772 31.5264 53.4919 31.7383 54.611 31.7383V29.7383ZM52.9286 29.3958C52.5882 29.104 52.1942 28.4917 51.8267 27.3891L49.9293 28.0215C50.3394 29.252 50.8787 30.2729 51.6271 30.9143L52.9286 29.3958ZM51.8448 27.4499C50.7205 23.1936 48.8239 20.1097 46.0224 18.4462L45.0013 20.166C47.1771 21.4578 48.8579 23.9733 49.9111 27.9607L51.8448 27.4499ZM46.054 18.4658C43.4458 16.7831 40.2517 15.973 36.5294 15.973V17.973C39.9619 17.973 42.7561 18.7183 44.9697 20.1464L46.054 18.4658ZM36.5294 15.973C32.0565 15.973 28.4013 17.2392 25.6845 19.8711L27.0761 21.3076C29.3367 19.1176 32.4474 17.973 36.5294 17.973V15.973ZM25.6964 19.8598C22.9276 22.4555 21.5361 26.7009 21.2983 32.3293L23.2965 32.4137C23.5253 26.9988 24.8557 23.3894 27.0643 21.3188L25.6964 19.8598ZM21.2981 32.335C21.0638 38.737 21.0639 45.2936 21.298 52.0045L23.2968 51.9348C23.0643 45.2692 23.0643 38.7603 23.2967 32.4081L21.2981 32.335ZM21.2983 52.0119C21.5362 57.6439 22.9288 61.9171 25.6845 64.5867L27.0761 63.1503C24.8546 60.9981 23.5251 57.3388 23.2965 51.9274L21.2983 52.0119ZM25.6964 64.598C28.4143 67.1461 32.0653 68.3682 36.5294 68.3682V66.3682C32.4386 66.3682 29.3236 65.2571 27.0643 63.139L25.6964 64.598ZM36.5294 68.3682C40.253 68.3682 43.4793 67.5576 46.1585 65.8831L45.0985 64.1871C42.8004 65.6234 39.9606 66.3682 36.5294 66.3682V68.3682ZM46.1585 65.8831C48.9446 64.1417 50.8008 61.0676 51.8481 56.8784L49.9078 56.3933C48.9331 60.2922 47.2897 62.8175 45.0985 64.1871L46.1585 65.8831ZM51.8442 56.8935C52.1382 55.7909 52.4884 55.2979 52.7424 55.1165L51.58 53.489C50.7452 54.0853 50.2399 55.1477 49.9117 56.3782L51.8442 56.8935ZM52.7612 55.1028C53.1646 54.8002 53.7513 54.6028 54.611 54.6028V52.6028C53.4486 52.6028 52.4021 52.8721 51.5612 53.5027L52.7612 55.1028ZM54.611 54.6028H70.3594V52.6028H54.611V54.6028ZM70.3594 54.6028C70.812 54.6028 71.1353 54.743 71.4022 55.0099L72.8164 53.5956C72.15 52.9292 71.3067 52.6028 70.3594 52.6028V54.6028ZM71.4585 55.062C71.7572 55.318 71.8558 55.5781 71.8153 55.9422L73.8031 56.163C73.9182 55.1272 73.5502 54.2207 72.7601 53.5435L71.4585 55.062ZM71.8094 56.0347C71.7341 60.2476 70.7955 64.0173 69.0105 67.3642L70.7752 68.3054C72.7232 64.6529 73.7287 60.5679 73.8091 56.0704L71.8094 56.0347ZM69.0066 67.3715C67.2901 70.6553 64.8615 73.4996 61.7042 75.9052L62.9163 77.496C66.2917 74.9243 68.9181 71.858 70.7791 68.298L69.0066 67.3715ZM61.7164 75.896C58.5521 78.2315 54.8467 80.0502 50.5875 81.3432L51.1685 83.2569C55.6196 81.9057 59.5356 79.9914 62.9041 77.5052L61.7164 75.896ZM50.6033 81.3385C46.3484 82.5542 41.6981 83.1666 36.646 83.1666V85.1666C41.8596 85.1666 46.6973 84.5346 51.1527 83.2616L50.6033 81.3385ZM99.7739 80.6669L100.178 79.752L100.178 79.752L99.7739 80.6669ZM87.4085 70.1679L86.5597 70.6967L86.5636 70.7029L87.4085 70.1679ZM82.5089 52.4363L81.5092 52.4595L81.5094 52.4698L81.5099 52.4802L82.5089 52.4363ZM82.5089 32.2549L81.5099 32.2105L81.5094 32.2213L81.5092 32.2321L82.5089 32.2549ZM87.4085 14.6399L86.562 14.1074L86.5597 14.1111L87.4085 14.6399ZM136.87 3.79092L136.456 4.70084L136.461 4.70309L136.87 3.79092ZM149.469 14.6399L148.623 15.1723L148.627 15.1785L149.469 14.6399ZM154.369 32.2549L153.369 32.2882L153.37 32.3003L154.369 32.2549ZM154.369 52.4363L153.37 52.3898L153.37 52.3923L154.369 52.4363ZM149.469 70.1679L150.314 70.703L150.318 70.6966L149.469 70.1679ZM137.104 80.6669L136.7 79.752L136.7 79.752L137.104 80.6669ZM128.471 63.6352L127.786 62.907L127.78 62.9121L127.775 62.9173L128.471 63.6352ZM132.671 51.7363L131.672 51.6909L131.671 51.6993L131.671 51.7078L132.671 51.7363ZM132.671 32.6048L131.672 32.6473L131.672 32.6524L132.671 32.6048ZM130.571 23.739L129.677 24.1862L129.686 24.2043L129.695 24.2221L130.571 23.739ZM125.671 18.6062L125.211 19.4939L125.211 19.4939L125.671 18.6062ZM111.323 18.6062L110.863 17.7184L111.323 18.6062ZM106.307 23.739L107.182 24.2221L107.186 24.2159L107.189 24.2096L106.307 23.739ZM104.207 32.6048L103.208 32.5623L103.207 32.5717L103.207 32.581L104.207 32.6048ZM104.207 51.7363L103.207 51.7591L103.207 51.7691L103.208 51.7791L104.207 51.7363ZM118.439 83.1666C111.391 83.1666 105.312 82.0173 100.178 79.752L99.3703 81.5818C104.812 83.9827 111.177 85.1666 118.439 85.1666V83.1666ZM100.178 79.752C95.0618 77.495 91.0973 74.1234 88.2533 69.6328L86.5636 70.7029C89.6301 75.5448 93.9094 79.1726 99.3703 81.5818L100.178 79.752ZM88.2572 69.6391C85.4141 65.0752 83.8135 59.3427 83.508 52.3923L81.5099 52.4802C81.8265 59.684 83.4922 65.7726 86.5597 70.6966L88.2572 69.6391ZM83.5087 52.413C83.4311 49.0766 83.3923 45.7403 83.3923 42.4039H81.3923C81.3923 45.7558 81.4313 49.1076 81.5092 52.4595L83.5087 52.413ZM83.3923 42.4039C83.3923 39.0675 83.4311 35.6921 83.5087 32.2776L81.5092 32.2321C81.4313 35.6614 81.3923 39.052 81.3923 42.4039H83.3923ZM83.5079 32.2993C83.8133 25.4287 85.4131 19.7342 88.2572 15.1686L86.5597 14.1111C83.4933 19.0335 81.8267 25.0823 81.5099 32.2105L83.5079 32.2993ZM88.2549 15.1723C91.1818 10.5194 95.1908 7.03247 100.305 4.70083L99.4758 2.88101C94.0136 5.37114 89.7012 9.11689 86.562 14.1074L88.2549 15.1723ZM100.305 4.70083C105.438 2.36079 111.474 1.1746 118.439 1.1746V-0.8254C111.249 -0.8254 104.92 0.399293 99.4758 2.88101L100.305 4.70083ZM118.439 1.1746C125.324 1.1746 131.321 2.36018 136.456 4.70083L137.285 2.88101C131.843 0.399901 125.553 -0.8254 118.439 -0.8254V1.1746ZM136.461 4.70309C141.653 7.036 145.698 10.5231 148.623 15.1723L150.316 14.1074C147.174 9.11314 142.82 5.36761 137.28 2.87875L136.461 4.70309ZM148.627 15.1785C151.542 19.7384 153.14 25.4249 153.369 32.2882L155.368 32.2215C155.13 25.0861 153.462 19.0293 150.312 14.1012L148.627 15.1785ZM153.37 32.3003C153.525 35.7074 153.602 39.0753 153.602 42.4039H155.602C155.602 39.0443 155.524 35.6461 155.368 32.2095L153.37 32.3003ZM153.602 42.4039C153.602 45.7325 153.525 49.0611 153.37 52.3898L155.368 52.4827C155.524 49.1231 155.602 45.7635 155.602 42.4039H153.602ZM153.37 52.3923C153.064 59.3427 151.464 65.0752 148.62 69.6391L150.318 70.6966C153.385 65.7726 155.051 59.684 155.368 52.4802L153.37 52.3923ZM148.624 69.6328C145.78 74.1234 141.816 77.495 136.7 79.752L137.507 81.5818C142.968 79.1726 147.248 75.5448 150.314 70.7029L148.624 69.6328ZM136.7 79.752C131.565 82.0173 125.487 83.1666 118.439 83.1666V85.1666C125.701 85.1666 132.065 83.9827 137.507 81.5818L136.7 79.752ZM118.439 68.3682C122.778 68.3682 126.386 67.0505 129.167 64.3531L127.775 62.9173C125.424 65.1972 122.344 66.3682 118.439 66.3682V68.3682ZM129.157 64.3634C132.073 61.6189 133.511 57.3432 133.67 51.7649L131.671 51.7078C131.52 57.0173 130.158 60.6742 127.786 62.907L129.157 64.3634ZM133.67 51.7817C133.826 48.3466 133.904 45.1039 133.904 42.0539H131.904C131.904 45.07 131.827 48.2823 131.672 51.6909L133.67 51.7817ZM133.904 42.0539C133.904 39.0038 133.826 35.8382 133.67 32.5573L131.672 32.6524C131.827 35.9041 131.904 39.0379 131.904 42.0539H133.904ZM133.67 32.5623C133.51 28.8133 132.79 25.6913 131.447 23.2559L129.695 24.2221C130.84 26.2974 131.52 29.0859 131.672 32.6473L133.67 32.5623ZM131.465 23.2918C130.215 20.7901 128.439 18.9145 126.132 17.7184L125.211 19.4939C127.104 20.4754 128.594 22.0217 129.677 24.1862L131.465 23.2918ZM126.132 17.7184C123.87 16.5455 121.297 15.973 118.439 15.973V17.973C121.025 17.973 123.274 18.4893 125.211 19.4939L126.132 17.7184ZM118.439 15.973C115.654 15.973 113.121 16.5475 110.863 17.7184L111.783 19.4939C113.725 18.4872 115.936 17.973 118.439 17.973V15.973ZM110.863 17.7184C108.562 18.9112 106.752 20.7787 105.424 23.2684L107.189 24.2096C108.35 22.0331 109.884 20.4787 111.783 19.4939L110.863 17.7184ZM105.431 23.2559C104.087 25.6913 103.367 28.8133 103.208 32.5623L105.206 32.6473C105.358 29.0859 106.037 26.2974 107.182 24.2221L105.431 23.2559ZM103.207 32.581C103.129 35.8547 103.09 39.0124 103.09 42.0539H105.09C105.09 39.0294 105.129 35.8877 105.207 32.6286L103.207 32.581ZM103.09 42.0539C103.09 45.0954 103.129 48.3305 103.207 51.7591L105.207 51.7136C105.129 48.2983 105.09 45.0785 105.09 42.0539H103.09ZM103.208 51.7791C103.446 57.3481 104.884 61.6126 107.71 64.3531L109.103 62.9173C106.796 60.6805 105.434 57.0124 105.206 51.6935L103.208 51.7791ZM107.71 64.3531C110.492 67.0505 114.1 68.3682 118.439 68.3682V66.3682C114.534 66.3682 111.454 65.1972 109.103 62.9173L107.71 64.3531ZM168.941 82.1834L169.648 81.4763L169.648 81.4763L168.941 82.1834ZM168.941 2.15775L169.648 2.86485L169.648 2.86485L168.941 2.15775ZM188.422 2.15775L187.715 2.86485L187.739 2.8884L187.764 2.91032L188.422 2.15775ZM189.355 65.385H188.355V66.385H189.355V65.385ZM226.685 66.3183L225.933 66.9768L225.976 67.0269L226.027 67.0708L226.685 66.3183ZM226.685 82.1834L226.027 81.4308L226.002 81.4528L225.978 81.4763L226.685 82.1834ZM171.04 82C170.418 82 169.983 81.8115 169.648 81.4763L168.234 82.8905C168.987 83.6441 169.952 84 171.04 84V82ZM169.648 81.4763C169.313 81.1411 169.124 80.7062 169.124 80.0836H167.124C167.124 81.172 167.48 82.1369 168.234 82.8905L169.648 81.4763ZM169.124 80.0836V4.25754H167.124V80.0836H169.124ZM169.124 4.25754C169.124 3.63499 169.313 3.20004 169.648 2.86485L168.234 1.45064C167.48 2.20423 167.124 3.16915 167.124 4.25754H169.124ZM169.648 2.86485C169.983 2.52966 170.418 2.34115 171.04 2.34115V0.341153C169.952 0.341153 168.987 0.697041 168.234 1.45064L169.648 2.86485ZM171.04 2.34115H186.439V0.341153H171.04V2.34115ZM186.439 2.34115C186.954 2.34115 187.36 2.51012 187.715 2.86485L189.129 1.45064C188.395 0.716579 187.479 0.341153 186.439 0.341153V2.34115ZM187.764 2.91032C188.16 3.25741 188.355 3.67897 188.355 4.25754H190.355C190.355 3.12516 189.928 2.14686 189.081 1.40517L187.764 2.91032ZM188.355 4.25754V65.385H190.355V4.25754H188.355ZM189.355 66.385H224.585V64.385H189.355V66.385ZM224.585 66.385C225.164 66.385 225.585 66.5801 225.933 66.9768L227.438 65.6598C226.696 64.8121 225.718 64.385 224.585 64.385V66.385ZM226.027 67.0708C226.423 67.4179 226.618 67.8395 226.618 68.4181H228.618C228.618 67.2857 228.191 66.3074 227.344 65.5657L226.027 67.0708ZM226.618 68.4181V80.0836H228.618V68.4181H226.618ZM226.618 80.0836C226.618 80.6622 226.423 81.0837 226.027 81.4308L227.344 82.936C228.191 82.1943 228.618 81.216 228.618 80.0836H226.618ZM225.978 81.4763C225.643 81.8115 225.208 82 224.585 82V84C225.674 84 226.639 83.6441 227.392 82.8905L225.978 81.4763ZM224.585 82H171.04V84H224.585V82ZM251.517 80.6669L251.921 79.752L251.921 79.752L251.517 80.6669ZM239.152 70.1679L238.303 70.6967L238.307 70.7029L239.152 70.1679ZM234.252 52.4363L233.252 52.4595L233.253 52.4698L233.253 52.4802L234.252 52.4363ZM234.252 32.2549L233.253 32.2105L233.253 32.2213L233.252 32.2321L234.252 32.2549ZM239.152 14.6399L238.305 14.1074L238.303 14.1111L239.152 14.6399ZM288.614 3.79092L288.199 4.70084L288.204 4.70309L288.614 3.79092ZM301.212 14.6399L300.366 15.1723L300.37 15.1785L301.212 14.6399ZM306.112 32.2549L305.112 32.2882L305.113 32.3003L306.112 32.2549ZM306.112 52.4363L305.113 52.3898L305.113 52.3923L306.112 52.4363ZM301.212 70.1679L302.057 70.703L302.061 70.6966L301.212 70.1679ZM288.847 80.6669L288.443 79.752L288.443 79.752L288.847 80.6669ZM280.214 63.6352L279.529 62.907L279.524 62.9121L279.518 62.9173L280.214 63.6352ZM284.414 51.7363L283.415 51.6909L283.415 51.6993L283.414 51.7078L284.414 51.7363ZM284.414 32.6048L283.415 32.6473L283.415 32.6524L284.414 32.6048ZM282.314 23.739L281.42 24.1862L281.429 24.2043L281.439 24.2221L282.314 23.739ZM277.415 18.6062L276.954 19.4939L276.954 19.4939L277.415 18.6062ZM263.066 18.6062L262.606 17.7184L263.066 18.6062ZM258.05 23.739L258.926 24.2221L258.929 24.2159L258.932 24.2096L258.05 23.739ZM255.95 32.6048L254.951 32.5623L254.951 32.5717L254.95 32.581L255.95 32.6048ZM255.95 51.7363L254.95 51.7591L254.951 51.7691L254.951 51.7791L255.95 51.7363ZM270.182 83.1666C263.134 83.1666 257.056 82.0173 251.921 79.752L251.114 81.5818C256.556 83.9827 262.92 85.1666 270.182 85.1666V83.1666ZM251.921 79.752C246.805 77.495 242.841 74.1234 239.997 69.6328L238.307 70.7029C241.373 75.5448 245.653 79.1726 251.114 81.5818L251.921 79.752ZM240.001 69.6391C237.157 65.0752 235.557 59.3427 235.251 52.3923L233.253 52.4802C233.57 59.684 235.236 65.7726 238.303 70.6966L240.001 69.6391ZM235.252 52.413C235.174 49.0766 235.136 45.7403 235.136 42.4039H233.136C233.136 45.7558 233.175 49.1076 233.252 52.4595L235.252 52.413ZM235.136 42.4039C235.136 39.0675 235.174 35.6921 235.252 32.2776L233.252 32.2321C233.175 35.6614 233.136 39.052 233.136 42.4039H235.136ZM235.251 32.2993C235.557 25.4287 237.156 19.7342 240.001 15.1686L238.303 14.1111C235.237 19.0335 233.57 25.0823 233.253 32.2105L235.251 32.2993ZM239.998 15.1723C242.925 10.5194 246.934 7.03247 252.049 4.70083L251.219 2.88101C245.757 5.37114 241.444 9.11689 238.305 14.1074L239.998 15.1723ZM252.049 4.70083C257.182 2.36079 263.218 1.1746 270.182 1.1746V-0.8254C262.992 -0.8254 256.663 0.399293 251.219 2.88101L252.049 4.70083ZM270.182 1.1746C277.067 1.1746 283.065 2.36018 288.199 4.70083L289.028 2.88101C283.586 0.399901 277.296 -0.8254 270.182 -0.8254V1.1746ZM288.204 4.70309C293.396 7.036 297.441 10.5231 300.366 15.1723L302.059 14.1074C298.917 9.11314 294.563 5.36761 289.023 2.87875L288.204 4.70309ZM300.37 15.1785C303.285 19.7384 304.884 25.4249 305.113 32.2882L307.111 32.2215C306.874 25.0861 305.206 19.0293 302.055 14.1012L300.37 15.1785ZM305.113 32.3003C305.268 35.7074 305.345 39.0753 305.345 42.4039H307.345C307.345 39.0443 307.267 35.6461 307.111 32.2095L305.113 32.3003ZM305.345 42.4039C305.345 45.7325 305.268 49.0611 305.113 52.3898L307.111 52.4827C307.267 49.1231 307.345 45.7635 307.345 42.4039H305.345ZM305.113 52.3923C304.807 59.3427 303.207 65.0752 300.364 69.6391L302.061 70.6966C305.129 65.7726 306.794 59.684 307.111 52.4802L305.113 52.3923ZM300.368 69.6328C297.524 74.1234 293.559 77.495 288.443 79.752L289.251 81.5818C294.712 79.1726 298.991 75.5448 302.057 70.7029L300.368 69.6328ZM288.443 79.752C283.309 82.0173 277.23 83.1666 270.182 83.1666V85.1666C277.444 85.1666 283.809 83.9827 289.251 81.5818L288.443 79.752ZM270.182 68.3682C274.521 68.3682 278.129 67.0505 280.911 64.3531L279.518 62.9173C277.167 65.1972 274.087 66.3682 270.182 66.3682V68.3682ZM280.9 64.3634C283.816 61.6189 285.254 57.3432 285.414 51.7649L283.414 51.7078C283.263 57.0173 281.901 60.6742 279.529 62.907L280.9 64.3634ZM285.413 51.7817C285.569 48.3466 285.647 45.1039 285.647 42.0539H283.647C283.647 45.07 283.57 48.2823 283.415 51.6909L285.413 51.7817ZM285.647 42.0539C285.647 39.0038 285.569 35.8382 285.413 32.5573L283.415 32.6524C283.57 35.9041 283.647 39.0379 283.647 42.0539H285.647ZM285.413 32.5623C285.254 28.8133 284.533 25.6913 283.19 23.2559L281.439 24.2221C282.584 26.2974 283.263 29.0859 283.415 32.6473L285.413 32.5623ZM283.209 23.2918C281.958 20.7901 280.182 18.9145 277.875 17.7184L276.954 19.4939C278.847 20.4754 280.338 22.0217 281.42 24.1862L283.209 23.2918ZM277.875 17.7184C275.613 16.5455 273.04 15.973 270.182 15.973V17.973C272.768 17.973 275.017 18.4893 276.954 19.4939L277.875 17.7184ZM270.182 15.973C267.397 15.973 264.864 16.5475 262.606 17.7184L263.526 19.4939C265.468 18.4872 267.679 17.973 270.182 17.973V15.973ZM262.606 17.7184C260.306 18.9112 258.495 20.7787 257.168 23.2684L258.932 24.2096C260.093 22.0331 261.627 20.4787 263.526 19.4939L262.606 17.7184ZM257.174 23.2559C255.831 25.6913 255.111 28.8133 254.951 32.5623L256.949 32.6473C257.101 29.0859 257.78 26.2974 258.926 24.2221L257.174 23.2559ZM254.95 32.581C254.872 35.8547 254.833 39.0124 254.833 42.0539H256.833C256.833 39.0294 256.872 35.8877 256.95 32.6286L254.95 32.581ZM254.833 42.0539C254.833 45.0954 254.872 48.3305 254.95 51.7591L256.95 51.7136C256.872 48.2983 256.833 45.0785 256.833 42.0539H254.833ZM254.951 51.7791C255.19 57.3481 256.627 61.6126 259.454 64.3531L260.846 62.9173C258.539 60.6805 257.177 57.0124 256.949 51.6935L254.951 51.7791ZM259.454 64.3531C262.235 67.0505 265.843 68.3682 270.182 68.3682V66.3682C266.277 66.3682 263.197 65.1972 260.846 62.9173L259.454 64.3531ZM320.684 82.1834L321.391 81.4763L321.391 81.4763L320.684 82.1834ZM320.684 2.15775L321.391 2.86485L321.391 2.86485L320.684 2.15775ZM378.195 8.34048L377.565 9.11724L377.571 9.12188L377.577 9.12644L378.195 8.34048ZM382.861 41.9373L382.047 41.356L382.04 41.3672L382.861 41.9373ZM372.362 50.5698L371.955 49.6566L370.954 50.1033L371.49 51.059L372.362 50.5698ZM388.461 79.267L389.355 78.8198L389.345 78.7985L389.333 78.7778L388.461 79.267ZM387.994 82.3001L388.701 83.0072L388.701 83.0072L387.994 82.3001ZM367.579 81.9501L366.836 82.6191L366.854 82.6386L366.872 82.6572L367.579 81.9501ZM366.063 79.8503L366.957 79.4031L366.954 79.3966L366.951 79.3902L366.063 79.8503ZM352.764 54.1861L353.652 53.726L353.372 53.1861H352.764V54.1861ZM340.749 54.1861V53.1861H339.749V54.1861H340.749ZM339.932 82.1834L339.225 81.4763L339.932 82.1834ZM340.749 37.7377H339.749V38.7377H340.749V37.7377ZM362.447 35.0546L361.755 34.3326L361.747 34.34L361.739 34.3475L362.447 35.0546ZM362.563 20.356L361.826 21.0317L361.834 21.0399L361.841 21.0479L362.563 20.356ZM340.749 17.5563V16.5563H339.749V17.5563H340.749ZM322.784 82C322.161 82 321.726 81.8115 321.391 81.4763L319.977 82.8905C320.73 83.6441 321.695 84 322.784 84V82ZM321.391 81.4763C321.056 81.1411 320.867 80.7062 320.867 80.0836H318.867C318.867 81.172 319.223 82.1369 319.977 82.8905L321.391 81.4763ZM320.867 80.0836V4.25754H318.867V80.0836H320.867ZM320.867 4.25754C320.867 3.63499 321.056 3.20004 321.391 2.86485L319.977 1.45064C319.223 2.20423 318.867 3.16915 318.867 4.25754H320.867ZM321.391 2.86485C321.726 2.52966 322.161 2.34115 322.784 2.34115V0.341153C321.695 0.341153 320.73 0.697041 319.977 1.45064L321.391 2.86485ZM322.784 2.34115H354.514V0.341153H322.784V2.34115ZM354.514 2.34115C364.398 2.34115 372.042 4.63931 377.565 9.11724L378.825 7.56373C372.838 2.70921 364.695 0.341153 354.514 0.341153V2.34115ZM377.577 9.12644C383.132 13.4967 385.944 19.7189 385.944 27.9386H387.944C387.944 19.2044 384.923 12.3611 378.813 7.55453L377.577 9.12644ZM385.944 27.9386C385.944 33.2903 384.628 37.7436 382.048 41.356L383.675 42.5185C386.539 38.5094 387.944 33.6303 387.944 27.9386H385.944ZM382.04 41.3672C379.503 45.0235 376.148 47.7846 371.955 49.6566L372.77 51.4829C377.287 49.4664 380.932 46.4725 383.683 42.5073L382.04 41.3672ZM371.49 51.059L387.589 79.7563L389.333 78.7778L373.234 50.0805L371.49 51.059ZM387.566 79.7142C387.753 80.0873 387.811 80.3603 387.811 80.5502H389.811C389.811 79.9624 389.635 79.38 389.355 78.8198L387.566 79.7142ZM387.811 80.5502C387.811 80.8472 387.691 81.1889 387.287 81.593L388.701 83.0072C389.386 82.3224 389.811 81.4976 389.811 80.5502H387.811ZM387.287 81.593C387.02 81.8598 386.697 82 386.244 82V84C387.192 84 388.035 83.6736 388.701 83.0072L387.287 81.593ZM386.244 82H370.846V84H386.244V82ZM370.846 82C369.504 82 368.724 81.6803 368.287 81.243L366.872 82.6572C367.835 83.6197 369.232 84 370.846 84V82ZM368.323 81.2811C367.656 80.5402 367.213 79.9154 366.957 79.4031L365.168 80.2975C365.534 81.0295 366.103 81.8046 366.836 82.6191L368.323 81.2811ZM366.951 79.3902L353.652 53.726L351.876 54.6462L365.175 80.3104L366.951 79.3902ZM352.764 53.1861H340.749V55.1861H352.764V53.1861ZM339.749 54.1861V80.0836H341.749V54.1861H339.749ZM339.749 80.0836C339.749 80.7062 339.56 81.1411 339.225 81.4763L340.639 82.8905C341.393 82.1369 341.749 81.172 341.749 80.0836H339.749ZM339.225 81.4763C338.89 81.8115 338.455 82 337.832 82V84C338.921 84 339.886 83.6441 340.639 82.8905L339.225 81.4763ZM337.832 82H322.784V84H337.832V82ZM340.749 38.7377H354.281V36.7377H340.749V38.7377ZM354.281 38.7377C358.083 38.7377 361.108 37.8077 363.154 35.7617L361.739 34.3475C360.208 35.8789 357.789 36.7377 354.281 36.7377V38.7377ZM363.138 35.7766C365.241 33.7616 366.246 31.029 366.246 27.7053H364.246C364.246 30.6032 363.385 32.7701 361.755 34.3326L363.138 35.7766ZM366.246 27.7053C366.246 24.4622 365.283 21.7486 363.285 19.6641L361.841 21.0479C363.421 22.6963 364.246 24.8823 364.246 27.7053H366.246ZM363.3 19.6803C361.322 17.5218 358.23 16.5563 354.281 16.5563V18.5563C357.953 18.5563 360.383 19.4572 361.826 21.0317L363.3 19.6803ZM354.281 16.5563H340.749V18.5563H354.281V16.5563ZM339.749 17.5563V37.7377H341.749V17.5563H339.749ZM411.606 80.9002L411.204 81.8158L411.215 81.8208L411.606 80.9002ZM399.94 72.151L399.136 72.7454L399.136 72.7454L399.94 72.151ZM395.741 60.7188H394.741V60.738L394.742 60.7572L395.741 60.7188ZM396.441 59.0856L395.734 58.3785L395.734 58.3785L396.441 59.0856ZM415.456 58.8523L414.874 59.666L414.899 59.684L414.926 59.7003L415.456 58.8523ZM417.089 60.3688L417.971 59.8982L417.935 59.8304L417.889 59.7688L417.089 60.3688ZM419.655 63.7518L418.948 64.459L418.96 64.4711L418.973 64.4829L419.655 63.7518ZM424.088 66.4349L423.724 67.3662L423.748 67.3755L423.772 67.3836L424.088 66.4349ZM441.12 65.2684L440.605 64.4109L440.599 64.4147L440.592 64.4187L441.12 65.2684ZM442.753 55.3526L442.069 56.0822L442.082 56.0939L442.094 56.1052L442.753 55.3526ZM436.687 52.3196L436.363 53.2656L436.378 53.271L436.395 53.276L436.687 52.3196ZM425.721 49.5199L425.515 50.4984L425.522 50.4998L425.721 49.5199ZM410.556 44.737L410.116 45.6348L410.126 45.6397L410.136 45.6445L410.556 44.737ZM401.107 36.9211L400.275 37.4758L400.281 37.485L401.107 36.9211ZM401.807 12.0735L400.999 11.4842L400.991 11.4954L401.807 12.0735ZM413.122 3.3243L412.723 2.40746L412.723 2.40746L413.122 3.3243ZM444.386 2.2744L444.059 3.2194L444.065 3.22128L444.386 2.2744ZM454.768 7.87386L455.409 7.10564L455.409 7.10564L454.768 7.87386ZM461.068 15.3398L460.184 15.8077L460.192 15.8234L460.201 15.8388L461.068 15.3398ZM463.401 22.9224H464.401V22.9068L464.4 22.8912L463.401 22.9224ZM462.701 24.6723L463.408 25.3794L463.435 25.3522L463.46 25.323L462.701 24.6723ZM443.336 24.9056L442.889 25.8L442.889 25.8L443.336 24.9056ZM441.703 23.389L440.738 23.6522L440.781 23.8087L440.871 23.9437L441.703 23.389ZM437.97 18.9561L437.408 19.7831L437.427 19.7959L437.446 19.8078L437.97 18.9561ZM422.222 18.8395L422.752 19.6875L422.761 19.6818L422.222 18.8395ZM420.938 28.4052L420.183 29.0602L420.195 29.0741L420.207 29.0875L420.938 28.4052ZM426.188 31.4383L425.853 32.3807L425.863 32.384L426.188 31.4383ZM436.337 34.1213L436.124 35.0984L436.138 35.1016L436.153 35.1043L436.337 34.1213ZM453.485 39.1375L453.064 40.0445L453.071 40.0477L453.078 40.0507L453.485 39.1375ZM463.051 46.8368L462.206 47.3724L462.213 47.3818L463.051 46.8368ZM461.534 72.3844L460.746 71.7693L460.744 71.7715L461.534 72.3844ZM449.169 81.1335L449.526 82.0676L449.169 81.1335ZM430.971 83.1666C423.279 83.1666 416.967 82.0884 411.996 79.9796L411.215 81.8208C416.51 84.0671 423.109 85.1666 430.971 85.1666V83.1666ZM412.008 79.9847C406.994 77.7815 403.261 74.9618 400.745 71.5566L399.136 72.7454C401.908 76.4952 405.952 79.5082 411.204 81.8157L412.008 79.9847ZM400.745 71.5566C398.207 68.124 396.887 64.5039 396.74 60.6804L394.742 60.7572C394.906 65.0218 396.385 69.0232 399.136 72.7454L400.745 71.5566ZM396.741 60.7188C396.741 60.3792 396.856 60.0844 397.148 59.7927L395.734 58.3785C395.092 59.02 394.741 59.8141 394.741 60.7188H396.741ZM397.148 59.7927C397.525 59.4153 397.9 59.269 398.307 59.269V57.269C397.314 57.269 396.445 57.6672 395.734 58.3785L397.148 59.7927ZM398.307 59.269H413.006V57.269H398.307V59.269ZM413.006 59.269C414.006 59.269 414.576 59.453 414.874 59.666L416.037 58.0386C415.246 57.4739 414.183 57.269 413.006 57.269V59.269ZM414.926 59.7003C415.437 60.02 415.892 60.4393 416.289 60.9688L417.889 59.7688C417.353 59.0541 416.718 58.4623 415.986 58.0043L414.926 59.7003ZM416.206 60.8394C416.882 62.106 417.801 63.3116 418.948 64.459L420.362 63.0447C419.332 62.0145 418.54 60.9648 417.971 59.8982L416.206 60.8394ZM418.973 64.4829C420.248 65.6735 421.841 66.6293 423.724 67.3662L424.452 65.5037C422.758 64.8406 421.395 64.0077 420.337 63.0208L418.973 64.4829ZM423.772 67.3836C425.771 68.05 428.179 68.3682 430.971 68.3682V66.3682C428.318 66.3682 426.138 66.0642 424.404 65.4862L423.772 67.3836ZM430.971 68.3682C435.552 68.3682 439.158 67.663 441.647 66.118L440.592 64.4187C438.571 65.6734 435.41 66.3682 430.971 66.3682V68.3682ZM441.634 66.1259C444.222 64.573 445.619 62.3652 445.619 59.5522H443.619C443.619 61.5611 442.683 63.164 440.605 64.4109L441.634 66.1259ZM445.619 59.5522C445.619 57.5644 444.881 55.8862 443.411 54.6001L442.094 56.1052C443.113 56.9967 443.619 58.1182 443.619 59.5522H445.619ZM443.437 54.6231C442.028 53.3023 439.834 52.2357 436.979 51.3633L436.395 53.276C439.139 54.1144 440.989 55.0699 442.069 56.0822L443.437 54.6231ZM437.011 51.3737C434.231 50.4205 430.529 49.4772 425.921 48.5399L425.522 50.4998C430.091 51.4291 433.699 52.3522 436.363 53.2656L437.011 51.3737ZM425.927 48.5413C420.069 47.3081 415.09 45.7342 410.976 43.8295L410.136 45.6445C414.421 47.6283 419.552 49.243 425.515 50.4984L425.927 48.5413ZM410.996 43.8392C407 41.8789 403.996 39.3782 401.933 36.3571L400.281 37.485C402.573 40.8411 405.868 43.5511 410.116 45.6348L410.996 43.8392ZM401.939 36.3664C399.894 33.2984 398.841 29.4586 398.841 24.7889H396.841C396.841 29.7627 397.965 34.0111 400.275 37.4758L401.939 36.3664ZM398.841 24.7889C398.841 20.2438 400.103 16.2089 402.623 12.6515L400.991 11.4954C398.222 15.4039 396.841 19.846 396.841 24.7889H398.841ZM402.615 12.6626C405.218 9.09222 408.84 6.27997 413.522 4.24113L412.723 2.40746C407.761 4.56822 403.839 7.58875 400.999 11.4843L402.615 12.6626ZM413.522 4.24113C418.19 2.20835 423.764 1.1746 430.271 1.1746V-0.8254C423.557 -0.8254 417.699 0.240652 412.723 2.40746L413.522 4.24113ZM430.271 1.1746C435.553 1.1746 440.143 1.86385 444.059 3.21939L444.713 1.32941C440.541 -0.11478 435.721 -0.8254 430.271 -0.8254V1.1746ZM444.065 3.22128C448.092 4.58915 451.439 6.40124 454.128 8.64208L455.409 7.10564C452.498 4.68027 448.924 2.75938 444.708 1.32752L444.065 3.22128ZM454.128 8.64208C456.849 10.9096 458.857 13.3006 460.184 15.8077L461.952 14.8719C460.479 12.0906 458.287 9.50437 455.409 7.10564L454.128 8.64208ZM460.201 15.8388C461.612 18.2895 462.33 20.658 462.401 22.9537L464.4 22.8912C464.317 20.2096 463.479 17.5229 461.934 14.8408L460.201 15.8388ZM462.401 22.9224C462.401 23.27 462.278 23.629 461.942 24.0215L463.46 25.323C464.057 24.6267 464.401 23.8192 464.401 22.9224H462.401ZM461.994 23.9651C461.727 24.232 461.404 24.3722 460.951 24.3722V26.3722C461.898 26.3722 462.742 26.0458 463.408 25.3794L461.994 23.9651ZM460.951 24.3722H445.553V26.3722H460.951V24.3722ZM445.553 24.3722C444.817 24.3722 444.238 24.2387 443.783 24.0111L442.889 25.8C443.678 26.1946 444.577 26.3722 445.553 26.3722V24.3722ZM443.783 24.0111C443.346 23.7927 442.925 23.4197 442.535 22.8343L440.871 23.9437C441.414 24.7582 442.082 25.3963 442.889 25.8L443.783 24.0111ZM442.668 23.1259C442.114 21.0966 440.658 19.4358 438.494 18.1045L437.446 19.8078C439.327 20.9651 440.358 22.2596 440.738 23.6522L442.668 23.1259ZM438.532 18.1292C436.373 16.6606 433.59 15.973 430.271 15.973V17.973C433.329 17.973 435.679 18.6074 437.408 19.7831L438.532 18.1292ZM430.271 15.973C426.744 15.973 423.848 16.6115 421.683 17.9972L422.761 19.6818C424.484 18.5788 426.953 17.973 430.271 17.973V15.973ZM421.692 17.9915C419.49 19.3674 418.422 21.5422 418.422 24.3223H420.422C420.422 22.1251 421.22 20.6447 422.752 19.6875L421.692 17.9915ZM418.422 24.3223C418.422 26.1163 419.013 27.7103 420.183 29.0602L421.694 27.7503C420.842 26.7671 420.422 25.6391 420.422 24.3223H418.422ZM420.207 29.0875C421.452 30.4215 423.373 31.5005 425.853 32.3807L426.522 30.4958C424.181 29.6651 422.602 28.7221 421.669 27.7229L420.207 29.0875ZM425.863 32.384C428.404 33.2575 431.83 34.1615 436.124 35.0984L436.55 33.1443C432.289 32.2147 428.949 31.3299 426.513 30.4926L425.863 32.384ZM436.153 35.1043C443.185 36.4179 448.812 38.0704 453.064 40.0445L453.906 38.2305C449.448 36.1606 443.643 34.469 436.521 33.1384L436.153 35.1043ZM453.078 40.0507C457.3 41.9358 460.314 44.3887 462.206 47.3723L463.895 46.3013C461.744 42.9078 458.38 40.2278 453.893 38.2244L453.078 40.0507ZM462.213 47.3818C464.103 50.2907 465.084 54.015 465.084 58.619H467.084C467.084 53.735 466.043 49.6045 463.889 46.2918L462.213 47.3818ZM465.084 58.619C465.084 63.7018 463.632 68.0696 460.746 71.7693L462.323 72.9994C465.503 68.922 467.084 64.113 467.084 58.619H465.084ZM460.744 71.7715C457.919 75.414 453.959 78.2313 448.812 80.1995L449.526 82.0676C454.955 79.9917 459.239 76.9762 462.325 72.9972L460.744 71.7715ZM448.812 80.1995C443.659 82.1698 437.717 83.1666 430.971 83.1666V85.1666C437.912 85.1666 444.103 84.1412 449.526 82.0676L448.812 80.1995Z" fill="#FF0054" fill-opacity="0.4"/>
</svg>
