<svg width="467" height="85" viewBox="0 0 467 85" fill="none" xmlns="http://www.w3.org/2000/svg">
<path d="M36.646 84.1666C29.2578 84.1666 22.9195 82.9611 17.6312 80.5502C12.4206 78.1394 8.33761 74.6008 5.38234 69.9346C2.50484 65.2684 0.910545 59.4745 0.599463 52.5529C0.521693 49.3643 0.482808 45.9424 0.482808 42.2872C0.482808 38.632 0.521693 35.1324 0.599463 31.7882C0.910545 25.0222 2.54372 19.3061 5.49899 14.6399C8.45427 9.89589 12.5761 6.31846 17.8645 3.90758C23.1529 1.41893 29.4134 0.1746 36.646 0.1746C41.7789 0.1746 46.5228 0.835648 50.878 2.15775C55.2331 3.40207 59.0439 5.26856 62.3102 7.75721C65.5766 10.1681 68.1041 13.1234 69.8928 16.623C71.7593 20.0449 72.7314 23.9334 72.8092 28.2886C72.887 28.9885 72.6537 29.5718 72.1093 30.0384C71.6427 30.505 71.0594 30.7383 70.3594 30.7383H54.611C53.5999 30.7383 52.8222 30.5439 52.2778 30.1551C51.7335 29.6884 51.2668 28.8719 50.878 27.7053C49.7892 23.5835 48.0005 20.7837 45.5118 19.3061C43.1009 17.7507 40.1068 16.973 36.5294 16.973C32.252 16.973 28.869 18.1784 26.3803 20.5893C23.8917 22.9224 22.5307 26.8498 22.2974 32.3715C22.0641 38.7487 22.0641 45.2814 22.2974 51.9696C22.5307 57.4913 23.8917 61.4576 26.3803 63.8685C28.869 66.2016 32.252 67.3682 36.5294 67.3682C40.1068 67.3682 43.1398 66.5905 45.6285 65.0351C48.1171 63.4796 49.867 60.6799 50.878 56.6359C51.1891 55.4693 51.6168 54.6916 52.1612 54.3027C52.7834 53.8361 53.5999 53.6028 54.611 53.6028H70.3594C71.0594 53.6028 71.6427 53.8361 72.1093 54.3027C72.6537 54.7694 72.887 55.3526 72.8092 56.0526C72.7314 60.4077 71.7593 64.3351 69.8928 67.8348C68.1041 71.2567 65.5766 74.212 62.3102 76.7006C59.0439 79.1115 55.2331 80.978 50.878 82.3001C46.5228 83.5444 41.7789 84.1666 36.646 84.1666ZM118.439 84.1666C111.284 84.1666 105.062 83 99.7739 80.6669C94.4856 78.3338 90.3637 74.8341 87.4085 70.1679C84.4532 65.4239 82.82 59.5134 82.5089 52.4363C82.4312 49.0921 82.3923 45.748 82.3923 42.4039C82.3923 39.0598 82.4312 35.6768 82.5089 32.2549C82.82 25.2555 84.4532 19.3839 87.4085 14.6399C90.4415 9.81812 94.6022 6.2018 99.8906 3.79092C105.179 1.38004 111.362 0.1746 118.439 0.1746C125.438 0.1746 131.582 1.38004 136.87 3.79092C142.237 6.2018 146.436 9.81812 149.469 14.6399C152.502 19.3839 154.135 25.2555 154.369 32.2549C154.524 35.6768 154.602 39.0598 154.602 42.4039C154.602 45.748 154.524 49.0921 154.369 52.4363C154.058 59.5134 152.424 65.4239 149.469 70.1679C146.514 74.8341 142.392 78.3338 137.104 80.6669C131.815 83 125.594 84.1666 118.439 84.1666ZM118.439 67.3682C122.561 67.3682 125.905 66.1238 128.471 63.6352C131.115 61.1465 132.515 57.1803 132.671 51.7363C132.826 48.3144 132.904 45.087 132.904 42.0539C132.904 39.0209 132.826 35.8712 132.671 32.6048C132.515 28.9496 131.815 25.9943 130.571 23.739C129.404 21.4059 127.771 19.695 125.671 18.6062C123.572 17.5174 121.161 16.973 118.439 16.973C115.795 16.973 113.423 17.5174 111.323 18.6062C109.223 19.695 107.551 21.4059 106.307 23.739C105.062 25.9943 104.362 28.9496 104.207 32.6048C104.129 35.8712 104.09 39.0209 104.09 42.0539C104.09 45.087 104.129 48.3144 104.207 51.7363C104.44 57.1803 105.84 61.1465 108.406 63.6352C110.973 66.1238 114.317 67.3682 118.439 67.3682ZM171.04 83C170.185 83 169.485 82.7278 168.941 82.1834C168.396 81.639 168.124 80.9391 168.124 80.0836V4.25754C168.124 3.40207 168.396 2.70214 168.941 2.15775C169.485 1.61335 170.185 1.34115 171.04 1.34115H186.439C187.217 1.34115 187.878 1.61335 188.422 2.15775C189.044 2.70214 189.355 3.40207 189.355 4.25754V65.385H224.585C225.441 65.385 226.141 65.6961 226.685 66.3183C227.307 66.8627 227.618 67.5626 227.618 68.4181V80.0836C227.618 80.9391 227.307 81.639 226.685 82.1834C226.141 82.7278 225.441 83 224.585 83H171.04ZM270.182 84.1666C263.027 84.1666 256.806 83 251.517 80.6669C246.229 78.3338 242.107 74.8341 239.152 70.1679C236.196 65.4239 234.563 59.5134 234.252 52.4363C234.174 49.0921 234.136 45.748 234.136 42.4039C234.136 39.0598 234.174 35.6768 234.252 32.2549C234.563 25.2555 236.196 19.3839 239.152 14.6399C242.185 9.81812 246.345 6.2018 251.634 3.79092C256.922 1.38004 263.105 0.1746 270.182 0.1746C277.181 0.1746 283.325 1.38004 288.614 3.79092C293.98 6.2018 298.179 9.81812 301.212 14.6399C304.245 19.3839 305.879 25.2555 306.112 32.2549C306.268 35.6768 306.345 39.0598 306.345 42.4039C306.345 45.748 306.268 49.0921 306.112 52.4363C305.801 59.5134 304.168 65.4239 301.212 70.1679C298.257 74.8341 294.135 78.3338 288.847 80.6669C283.559 83 277.337 84.1666 270.182 84.1666ZM270.182 67.3682C274.304 67.3682 277.648 66.1238 280.214 63.6352C282.859 61.1465 284.259 57.1803 284.414 51.7363C284.57 48.3144 284.647 45.087 284.647 42.0539C284.647 39.0209 284.57 35.8712 284.414 32.6048C284.259 28.9496 283.559 25.9943 282.314 23.739C281.148 21.4059 279.515 19.695 277.415 18.6062C275.315 17.5174 272.904 16.973 270.182 16.973C267.538 16.973 265.166 17.5174 263.066 18.6062C260.966 19.695 259.294 21.4059 258.05 23.739C256.806 25.9943 256.106 28.9496 255.95 32.6048C255.872 35.8712 255.833 39.0209 255.833 42.0539C255.833 45.087 255.872 48.3144 255.95 51.7363C256.183 57.1803 257.583 61.1465 260.15 63.6352C262.716 66.1238 266.06 67.3682 270.182 67.3682ZM322.784 83C321.928 83 321.228 82.7278 320.684 82.1834C320.139 81.639 319.867 80.9391 319.867 80.0836V4.25754C319.867 3.40207 320.139 2.70214 320.684 2.15775C321.228 1.61335 321.928 1.34115 322.784 1.34115H354.514C364.546 1.34115 372.44 3.67426 378.195 8.34048C384.028 12.9289 386.944 19.4616 386.944 27.9386C386.944 33.4603 385.583 38.1265 382.861 41.9373C380.217 45.748 376.717 48.6255 372.362 50.5698L388.461 79.267C388.694 79.7336 388.811 80.1614 388.811 80.5502C388.811 81.1724 388.538 81.7557 387.994 82.3001C387.527 82.7667 386.944 83 386.244 83H370.846C369.368 83 368.279 82.65 367.579 81.9501C366.879 81.1724 366.374 80.4725 366.063 79.8503L352.764 54.1861H340.749V80.0836C340.749 80.9391 340.476 81.639 339.932 82.1834C339.388 82.7278 338.688 83 337.832 83H322.784ZM340.749 37.7377H354.281C357.936 37.7377 360.658 36.8433 362.447 35.0546C364.313 33.2659 365.246 30.8161 365.246 27.7053C365.246 24.6723 364.352 22.2225 362.563 20.356C360.852 18.4895 358.091 17.5563 354.281 17.5563H340.749V37.7377ZM430.971 84.1666C423.194 84.1666 416.739 83.0778 411.606 80.9002C406.473 78.6449 402.585 75.7285 399.94 72.151C397.296 68.5736 395.896 64.7629 395.741 60.7188C395.741 60.0966 395.974 59.5522 396.441 59.0856C396.985 58.5412 397.607 58.269 398.307 58.269H413.006C414.095 58.269 414.911 58.4635 415.456 58.8523C416.078 59.2412 416.622 59.7467 417.089 60.3688C417.711 61.5354 418.566 62.6631 419.655 63.7518C420.822 64.8406 422.299 65.735 424.088 66.4349C425.955 67.0571 428.249 67.3682 430.971 67.3682C435.481 67.3682 438.864 66.6682 441.12 65.2684C443.453 63.8685 444.619 61.9631 444.619 59.5522C444.619 57.8413 443.997 56.4414 442.753 55.3526C441.509 54.1861 439.487 53.1751 436.687 52.3196C433.965 51.3864 430.31 50.4531 425.721 49.5199C419.811 48.2755 414.756 46.6813 410.556 44.737C406.434 42.715 403.284 40.1097 401.107 36.9211C398.929 33.6547 397.841 29.6107 397.841 24.7889C397.841 20.0449 399.163 15.8064 401.807 12.0735C404.529 8.34049 408.301 5.4241 413.122 3.3243C417.944 1.2245 423.66 0.1746 430.271 0.1746C435.637 0.1746 440.342 0.874533 444.386 2.2744C448.508 3.67427 451.969 5.54075 454.768 7.87386C457.568 10.207 459.668 12.6956 461.068 15.3398C462.545 17.9062 463.323 20.4338 463.401 22.9224C463.401 23.5446 463.168 24.1279 462.701 24.6723C462.234 25.1389 461.651 25.3722 460.951 25.3722H445.553C444.697 25.3722 443.958 25.2166 443.336 24.9056C442.714 24.5945 442.17 24.089 441.703 23.389C441.236 21.6781 439.992 20.2005 437.97 18.9561C436.026 17.634 433.459 16.973 430.271 16.973C426.849 16.973 424.166 17.5952 422.222 18.8395C420.355 20.006 419.422 21.8336 419.422 24.3223C419.422 25.8777 419.927 27.2387 420.938 28.4052C422.027 29.5718 423.777 30.5828 426.188 31.4383C428.677 32.2937 432.06 33.1881 436.337 34.1213C443.414 35.4434 449.13 37.1155 453.485 39.1375C457.84 41.0818 461.029 43.6482 463.051 46.8368C465.073 49.9476 466.084 53.875 466.084 58.619C466.084 63.9074 464.568 68.4958 461.534 72.3844C458.579 76.1951 454.457 79.1115 449.169 81.1335C443.881 83.1555 437.815 84.1666 430.971 84.1666Z" fill="#FF0054" fill-opacity="0.1"/>
</svg>
