<svg width="930" height="930" viewBox="0 0 930 930" fill="none" xmlns="http://www.w3.org/2000/svg">
<g opacity="0.4">
<path d="M308.704 465.018C308.704 378.689 378.689 308.739 464.983 308.739C551.277 308.739 621.296 378.724 621.296 465.018C621.296 551.311 551.311 621.331 464.983 621.331C378.654 621.331 308.704 551.346 308.704 465.018Z" stroke="url(#paint0_linear_418_43)" stroke-width="0.26" stroke-miterlimit="10"/>
<path d="M659.781 465.018C659.781 572.579 572.579 659.781 465.018 659.781C357.456 659.781 270.254 572.579 270.254 465.018C270.254 357.456 357.456 270.254 465.018 270.254C572.579 270.254 659.781 357.456 659.781 465.018Z" stroke="url(#paint1_linear_418_43)" stroke-width="0.26" stroke-miterlimit="10"/>
<path d="M698.231 465.018C698.231 593.812 593.812 698.231 465.018 698.231C336.223 698.231 231.804 593.812 231.804 465.018C231.804 336.223 336.223 231.804 465.018 231.804C593.812 231.804 698.231 336.223 698.231 465.018Z" stroke="url(#paint2_linear_418_43)" stroke-width="0.26" stroke-miterlimit="10"/>
<path d="M736.681 465.018C736.681 615.08 615.045 736.716 464.983 736.716C314.92 736.716 193.284 615.08 193.284 465.018C193.284 314.955 314.92 193.319 464.983 193.319C615.045 193.319 736.681 314.955 736.681 465.018Z" stroke="url(#paint3_linear_418_43)" stroke-width="0.26" stroke-miterlimit="10"/>
<path d="M775.166 465.018C775.166 636.313 636.313 775.166 465.018 775.166C293.722 775.166 154.869 636.313 154.869 465.018C154.869 293.722 293.722 154.869 465.018 154.869C636.313 154.869 775.166 293.722 775.166 465.018Z" stroke="url(#paint4_linear_418_43)" stroke-width="0.26" stroke-miterlimit="10"/>
<path d="M813.616 465.018C813.616 657.546 657.546 813.65 465.018 813.65C272.489 813.65 116.419 657.581 116.419 465.018C116.419 272.454 272.489 116.419 465.018 116.419C657.546 116.419 813.616 272.489 813.616 465.018Z" stroke="url(#paint5_linear_418_43)" stroke-width="0.26" stroke-miterlimit="10"/>
<path d="M852.065 465.018C852.065 678.779 678.779 852.1 464.983 852.1C251.186 852.1 77.9346 678.779 77.9346 465.018C77.9346 251.256 251.221 77.9346 465.018 77.9346C678.814 77.9346 852.1 251.221 852.1 465.018H852.065Z" stroke="url(#paint6_linear_418_43)" stroke-width="0.26" stroke-miterlimit="10"/>
<path d="M890.55 465.018C890.55 700.047 700.047 890.55 465.018 890.55C229.988 890.55 39.4848 700.012 39.4848 465.018C39.4848 230.023 229.988 39.4848 465.018 39.4848C700.047 39.4848 890.55 229.988 890.55 465.018Z" stroke="url(#paint7_linear_418_43)" stroke-width="0.26" stroke-miterlimit="10"/>
<path d="M1 465.017C1 208.755 208.755 1 465.017 1C721.28 1 929 208.72 929 464.983C929 721.245 721.28 929 465.017 929C208.755 929 1 721.28 1 465.017Z" stroke="url(#paint8_linear_418_43)" stroke-width="0.26" stroke-miterlimit="10"/>
</g>
<path opacity="0.11" d="M507.721 693.012C509.641 693.012 511.212 694.584 511.212 696.506C511.212 698.428 509.657 700 507.721 700C505.785 700 504.229 698.428 504.229 696.506C504.229 694.584 505.785 693.012 507.721 693.012ZM469.236 696.506C469.236 698.428 470.791 700 472.727 700C474.663 700 476.218 698.428 476.218 696.506C476.218 694.584 474.647 693.012 472.727 693.012C470.807 693.012 469.236 694.584 469.236 696.506ZM434.242 696.506C434.242 698.428 435.797 700 437.733 700C439.669 700 441.225 698.428 441.225 696.506C441.225 694.584 439.669 693.012 437.733 693.012C435.797 693.012 434.242 694.584 434.242 696.506ZM399.232 696.506C399.232 698.428 400.787 700 402.724 700C404.66 700 406.215 698.428 406.215 696.506C406.215 694.584 404.66 693.012 402.724 693.012C400.787 693.012 399.232 694.584 399.232 696.506ZM556.744 674.287C556.744 676.209 558.299 677.781 560.235 677.781C562.171 677.781 563.727 676.225 563.727 674.287C563.727 672.35 562.171 670.793 560.235 670.793C558.299 670.793 556.744 672.35 556.744 674.287ZM521.734 674.287C521.734 676.209 523.289 677.781 525.226 677.781C527.162 677.781 528.717 676.225 528.717 674.287C528.717 672.35 527.162 670.793 525.226 670.793C523.289 670.793 521.734 672.35 521.734 674.287ZM486.74 674.287C486.74 676.209 488.296 677.781 490.232 677.781C492.168 677.781 493.723 676.225 493.723 674.287C493.723 672.35 492.168 670.793 490.232 670.793C488.296 670.793 486.74 672.366 486.74 674.287ZM451.747 674.287C451.747 676.209 453.302 677.781 455.222 677.781C457.142 677.781 458.714 676.225 458.714 674.287C458.714 672.35 457.158 670.793 455.222 670.793C453.286 670.793 451.747 672.366 451.747 674.287ZM416.737 674.287C416.737 676.209 418.292 677.781 420.228 677.781C422.165 677.781 423.72 676.225 423.72 674.287C423.72 672.35 422.149 670.793 420.228 670.793C418.308 670.793 416.737 672.366 416.737 674.287ZM381.727 674.287C381.727 676.209 383.283 677.781 385.219 677.781C387.155 677.781 388.71 676.225 388.71 674.287C388.71 672.35 387.155 670.793 385.219 670.793C383.283 670.793 381.727 672.366 381.727 674.287ZM346.718 674.287C346.718 676.209 348.273 677.781 350.209 677.781C352.145 677.781 353.701 676.225 353.701 674.287C353.701 672.35 352.145 670.793 350.209 670.793C348.273 670.793 346.718 672.366 346.718 674.287ZM609.226 652.069C609.226 653.991 610.798 655.563 612.718 655.563C614.638 655.563 616.209 653.991 616.209 652.069C616.209 650.147 614.654 648.575 612.718 648.575C610.782 648.575 609.226 650.131 609.226 652.069ZM574.217 652.069C574.217 653.991 575.788 655.563 577.708 655.563C579.628 655.563 581.2 653.991 581.2 652.069C581.2 650.147 579.644 648.575 577.708 648.575C575.772 648.575 574.217 650.131 574.217 652.069ZM539.223 652.069C539.223 653.991 540.778 655.563 542.714 655.563C544.651 655.563 546.206 653.991 546.206 652.069C546.206 650.147 544.651 648.575 542.714 648.575C540.778 648.575 539.223 650.131 539.223 652.069ZM504.213 652.069C504.213 653.991 505.769 655.563 507.705 655.563C509.641 655.563 511.196 653.991 511.196 652.069C511.196 650.147 509.641 648.575 507.705 648.575C505.769 648.575 504.213 650.131 504.213 652.069ZM469.22 652.069C469.22 653.991 470.775 655.563 472.711 655.563C474.647 655.563 476.203 653.991 476.203 652.069C476.203 650.147 474.631 648.575 472.711 648.575C470.791 648.575 469.22 650.131 469.22 652.069ZM434.226 652.069C434.226 653.991 435.781 655.563 437.717 655.563C439.654 655.563 441.209 653.991 441.209 652.069C441.209 650.147 439.654 648.575 437.717 648.575C435.781 648.575 434.226 650.131 434.226 652.069ZM399.216 652.069C399.216 653.991 400.772 655.563 402.708 655.563C404.644 655.563 406.199 653.991 406.199 652.069C406.199 650.147 404.644 648.575 402.708 648.575C400.772 648.575 399.216 650.131 399.216 652.069ZM364.207 652.069C364.207 653.991 365.762 655.563 367.698 655.563C369.634 655.563 371.19 653.991 371.19 652.069C371.19 650.147 369.634 648.575 367.698 648.575C365.762 648.575 364.207 650.131 364.207 652.069ZM329.213 652.069C329.213 653.991 330.768 655.563 332.704 655.563C334.641 655.563 336.196 653.991 336.196 652.069C336.196 650.147 334.625 648.575 332.704 648.575C330.784 648.575 329.213 650.131 329.213 652.069ZM294.203 652.069C294.203 653.991 295.759 655.563 297.695 655.563C299.631 655.563 301.186 653.991 301.186 652.069C301.186 650.147 299.615 648.575 297.695 648.575C295.775 648.575 294.203 650.131 294.203 652.069ZM626.715 629.85C626.715 631.772 628.286 633.328 630.207 633.328C632.127 633.328 633.698 631.772 633.698 629.85C633.698 627.928 632.143 626.356 630.207 626.356C628.271 626.356 626.715 627.913 626.715 629.85ZM591.722 629.85C591.722 631.772 593.293 633.328 595.213 633.328C597.133 633.328 598.704 631.772 598.704 629.85C598.704 627.928 597.133 626.356 595.213 626.356C593.293 626.356 591.722 627.913 591.722 629.85ZM556.728 629.85C556.728 631.772 558.283 633.328 560.219 633.328C562.155 633.328 563.711 631.772 563.711 629.85C563.711 627.928 562.155 626.356 560.219 626.356C558.283 626.356 556.728 627.913 556.728 629.85ZM521.718 629.85C521.718 631.772 523.274 633.328 525.21 633.328C527.146 633.328 528.701 631.772 528.701 629.85C528.701 627.928 527.146 626.356 525.21 626.356C523.274 626.356 521.718 627.913 521.718 629.85ZM486.724 629.85C486.724 631.772 488.28 633.328 490.216 633.328C492.152 633.328 493.707 631.772 493.707 629.85C493.707 627.928 492.152 626.356 490.216 626.356C488.28 626.356 486.724 627.913 486.724 629.85ZM451.731 629.85C451.731 631.772 453.286 633.328 455.206 633.328C457.127 633.328 458.698 631.772 458.698 629.85C458.698 627.928 457.142 626.356 455.206 626.356C453.27 626.356 451.731 627.913 451.731 629.85ZM416.721 629.85C416.721 631.772 418.276 633.328 420.213 633.328C422.149 633.328 423.704 631.772 423.704 629.85C423.704 627.928 422.133 626.356 420.213 626.356C418.292 626.356 416.721 627.913 416.721 629.85ZM381.712 629.85C381.712 631.772 383.267 633.328 385.203 633.328C387.139 633.328 388.694 631.772 388.694 629.85C388.694 627.928 387.139 626.356 385.203 626.356C383.267 626.356 381.712 627.913 381.712 629.85ZM346.702 629.85C346.702 631.772 348.257 633.328 350.193 633.328C352.13 633.328 353.685 631.772 353.685 629.85C353.685 627.928 352.13 626.356 350.193 626.356C348.257 626.356 346.702 627.913 346.702 629.85ZM311.708 629.85C311.708 631.772 313.263 633.328 315.2 633.328C317.136 633.328 318.691 631.772 318.691 629.85C318.691 627.928 317.136 626.356 315.2 626.356C313.263 626.356 311.708 627.913 311.708 629.85ZM276.699 629.85C276.699 631.772 278.254 633.328 280.19 633.328C282.126 633.328 283.681 631.772 283.681 629.85C283.681 627.928 282.11 626.356 280.19 626.356C278.27 626.356 276.699 627.913 276.699 629.85ZM644.22 607.616C644.22 609.553 645.775 611.11 647.712 611.11C649.648 611.11 651.203 609.553 651.203 607.616C651.203 605.678 649.648 604.122 647.712 604.122C645.775 604.122 644.22 605.678 644.22 607.616ZM609.211 607.616C609.211 609.553 610.782 611.11 612.702 611.11C614.622 611.11 616.193 609.553 616.193 607.616C616.193 605.678 614.638 604.122 612.702 604.122C610.766 604.122 609.211 605.678 609.211 607.616ZM574.201 607.616C574.201 609.553 575.772 611.11 577.692 611.11C579.613 611.11 581.184 609.553 581.184 607.616C581.184 605.678 579.628 604.122 577.692 604.122C575.756 604.122 574.201 605.678 574.201 607.616ZM539.207 607.616C539.207 609.553 540.762 611.11 542.699 611.11C544.635 611.11 546.19 609.553 546.19 607.616C546.19 605.678 544.635 604.122 542.699 604.122C540.762 604.122 539.207 605.678 539.207 607.616ZM504.198 607.616C504.198 609.553 505.753 611.11 507.689 611.11C509.625 611.11 511.18 609.553 511.18 607.616C511.18 605.678 509.625 604.122 507.689 604.122C505.753 604.122 504.198 605.678 504.198 607.616ZM469.204 607.616C469.204 609.553 470.759 611.11 472.695 611.11C474.631 611.11 476.187 609.553 476.187 607.616C476.187 605.678 474.616 604.122 472.695 604.122C470.775 604.122 469.204 605.678 469.204 607.616ZM434.21 607.616C434.21 609.553 435.765 611.11 437.702 611.11C439.638 611.11 441.193 609.553 441.193 607.616C441.193 605.678 439.638 604.122 437.702 604.122C435.765 604.122 434.21 605.678 434.21 607.616ZM399.2 607.616C399.2 609.553 400.756 611.11 402.692 611.11C404.628 611.11 406.183 609.553 406.183 607.616C406.183 605.678 404.628 604.122 402.692 604.122C400.756 604.122 399.2 605.678 399.2 607.616ZM364.191 607.616C364.191 609.553 365.746 611.11 367.682 611.11C369.618 611.11 371.174 609.553 371.174 607.616C371.174 605.678 369.618 604.122 367.682 604.122C365.746 604.122 364.191 605.678 364.191 607.616ZM329.197 607.616C329.197 609.553 330.752 611.11 332.689 611.11C334.625 611.11 336.18 609.553 336.18 607.616C336.18 605.678 334.609 604.122 332.689 604.122C330.768 604.122 329.197 605.678 329.197 607.616ZM294.188 607.616C294.188 609.553 295.743 611.11 297.679 611.11C299.615 611.11 301.17 609.553 301.17 607.616C301.17 605.678 299.599 604.122 297.679 604.122C295.759 604.122 294.188 605.678 294.188 607.616ZM259.178 607.616C259.178 609.553 260.733 611.11 262.669 611.11C264.606 611.11 266.161 609.553 266.161 607.616C266.161 605.678 264.606 604.122 262.669 604.122C260.733 604.122 259.178 605.678 259.178 607.616ZM661.693 585.397C661.693 587.335 663.248 588.891 665.185 588.891C667.121 588.891 668.676 587.335 668.676 585.397C668.676 583.46 667.121 581.903 665.185 581.903C663.248 581.903 661.693 583.46 661.693 585.397ZM626.684 585.397C626.684 587.335 628.255 588.891 630.175 588.891C632.095 588.891 633.666 587.335 633.666 585.397C633.666 583.46 632.095 581.903 630.175 581.903C628.255 581.903 626.684 583.46 626.684 585.397ZM591.69 585.397C591.69 587.335 593.261 588.891 595.181 588.891C597.102 588.891 598.673 587.335 598.673 585.397C598.673 583.46 597.102 581.903 595.181 581.903C593.261 581.903 591.69 583.46 591.69 585.397ZM556.696 585.397C556.696 587.335 558.251 588.891 560.188 588.891C562.124 588.891 563.679 587.335 563.679 585.397C563.679 583.46 562.124 581.903 560.188 581.903C558.251 581.903 556.696 583.46 556.696 585.397ZM521.686 585.397C521.686 587.335 523.242 588.891 525.178 588.891C527.114 588.891 528.669 587.335 528.669 585.397C528.669 583.46 527.114 581.903 525.178 581.903C523.242 581.903 521.686 583.46 521.686 585.397ZM486.693 585.397C486.693 587.335 488.248 588.891 490.184 588.891C492.12 588.891 493.676 587.335 493.676 585.397C493.676 583.46 492.12 581.903 490.184 581.903C488.248 581.903 486.693 583.46 486.693 585.397ZM451.683 585.397C451.683 587.335 453.238 588.891 455.175 588.891C457.111 588.891 458.666 587.335 458.666 585.397C458.666 583.46 457.111 581.903 455.175 581.903C453.238 581.903 451.683 583.46 451.683 585.397ZM416.689 585.397C416.689 587.335 418.245 588.891 420.181 588.891C422.117 588.891 423.672 587.335 423.672 585.397C423.672 583.46 422.101 581.903 420.181 581.903C418.261 581.903 416.689 583.46 416.689 585.397ZM381.68 585.397C381.68 587.335 383.235 588.891 385.171 588.891C387.107 588.891 388.663 587.335 388.663 585.397C388.663 583.46 387.107 581.903 385.171 581.903C383.235 581.903 381.68 583.46 381.68 585.397ZM346.67 585.397C346.67 587.335 348.225 588.891 350.162 588.891C352.098 588.891 353.653 587.335 353.653 585.397C353.653 583.46 352.098 581.903 350.162 581.903C348.225 581.903 346.67 583.46 346.67 585.397ZM311.676 585.397C311.676 587.335 313.232 588.891 315.168 588.891C317.104 588.891 318.659 587.335 318.659 585.397C318.659 583.46 317.104 581.903 315.168 581.903C313.232 581.903 311.676 583.46 311.676 585.397ZM276.667 585.397C276.667 587.335 278.222 588.891 280.158 588.891C282.094 588.891 283.65 587.335 283.65 585.397C283.65 583.46 282.079 581.903 280.158 581.903C278.238 581.903 276.667 583.46 276.667 585.397ZM241.657 585.397C241.657 587.335 243.228 588.891 245.149 588.891C247.069 588.891 248.64 587.335 248.64 585.397C248.64 583.46 247.069 581.903 245.149 581.903C243.228 581.903 241.657 583.46 241.657 585.397ZM679.182 563.178C679.182 565.1 680.737 566.672 682.674 566.672C684.61 566.672 686.165 565.116 686.165 563.178C686.165 561.241 684.61 559.685 682.674 559.685C680.737 559.685 679.182 561.241 679.182 563.178ZM644.188 563.178C644.188 565.1 645.744 566.672 647.68 566.672C649.616 566.672 651.171 565.116 651.171 563.178C651.171 561.241 649.616 559.685 647.68 559.685C645.744 559.685 644.188 561.241 644.188 563.178ZM609.179 563.178C609.179 565.1 610.75 566.672 612.67 566.672C614.591 566.672 616.162 565.116 616.162 563.178C616.162 561.241 614.606 559.685 612.67 559.685C610.734 559.685 609.179 561.241 609.179 563.178ZM574.169 563.178C574.169 565.1 575.74 566.672 577.661 566.672C579.581 566.672 581.152 565.116 581.152 563.178C581.152 561.241 579.597 559.685 577.661 559.685C575.724 559.685 574.169 561.241 574.169 563.178ZM539.175 563.178C539.175 565.1 540.731 566.672 542.667 566.672C544.603 566.672 546.158 565.116 546.158 563.178C546.158 561.241 544.603 559.685 542.667 559.685C540.731 559.685 539.175 561.241 539.175 563.178ZM504.166 563.178C504.166 565.1 505.721 566.672 507.657 566.672C509.593 566.672 511.149 565.116 511.149 563.178C511.149 561.241 509.593 559.685 507.657 559.685C505.721 559.685 504.166 561.241 504.166 563.178ZM469.172 563.178C469.172 565.1 470.727 566.672 472.664 566.672C474.6 566.672 476.155 565.116 476.155 563.178C476.155 561.241 474.584 559.685 472.664 559.685C470.743 559.685 469.172 561.241 469.172 563.178ZM434.178 563.178C434.178 565.1 435.734 566.672 437.67 566.672C439.606 566.672 441.161 565.116 441.161 563.178C441.161 561.241 439.606 559.685 437.67 559.685C435.734 559.685 434.178 561.241 434.178 563.178ZM399.169 563.178C399.169 565.1 400.724 566.672 402.66 566.672C404.596 566.672 406.152 565.116 406.152 563.178C406.152 561.241 404.596 559.685 402.66 559.685C400.724 559.685 399.169 561.241 399.169 563.178ZM364.159 563.178C364.159 565.1 365.714 566.672 367.651 566.672C369.587 566.672 371.142 565.116 371.142 563.178C371.142 561.241 369.587 559.685 367.651 559.685C365.714 559.685 364.159 561.241 364.159 563.178ZM329.165 563.178C329.165 565.1 330.721 566.672 332.657 566.672C334.593 566.672 336.148 565.116 336.148 563.178C336.148 561.241 334.577 559.685 332.657 559.685C330.737 559.685 329.165 561.241 329.165 563.178ZM294.156 563.178C294.156 565.1 295.711 566.672 297.647 566.672C299.583 566.672 301.139 565.116 301.139 563.178C301.139 561.241 299.568 559.685 297.647 559.685C295.727 559.685 294.156 561.241 294.156 563.178ZM259.146 563.178C259.146 565.1 260.701 566.672 262.638 566.672C264.574 566.672 266.129 565.116 266.129 563.178C266.129 561.241 264.574 559.685 262.638 559.685C260.701 559.685 259.146 561.241 259.146 563.178ZM224.152 563.178C224.152 565.1 225.708 566.672 227.644 566.672C229.58 566.672 231.135 565.116 231.135 563.178C231.135 561.241 229.564 559.685 227.644 559.685C225.724 559.685 224.152 561.241 224.152 563.178ZM696.671 540.96C696.671 542.882 698.226 544.438 700.147 544.438C702.067 544.438 703.638 542.882 703.638 540.96C703.638 539.038 702.067 537.466 700.147 537.466C698.226 537.466 696.671 539.022 696.671 540.96ZM661.661 540.96C661.661 542.882 663.217 544.438 665.153 544.438C667.089 544.438 668.644 542.882 668.644 540.96C668.644 539.038 667.089 537.466 665.153 537.466C663.217 537.466 661.661 539.022 661.661 540.96ZM626.652 540.96C626.652 542.882 628.223 544.438 630.143 544.438C632.064 544.438 633.635 542.882 633.635 540.96C633.635 539.038 632.064 537.466 630.143 537.466C628.223 537.466 626.652 539.022 626.652 540.96ZM591.658 540.96C591.658 542.882 593.229 544.438 595.15 544.438C597.07 544.438 598.641 542.882 598.641 540.96C598.641 539.038 597.07 537.466 595.15 537.466C593.229 537.466 591.658 539.022 591.658 540.96ZM556.664 540.96C556.664 542.882 558.22 544.438 560.156 544.438C562.092 544.438 563.647 542.882 563.647 540.96C563.647 539.038 562.092 537.466 560.156 537.466C558.22 537.466 556.664 539.022 556.664 540.96ZM521.655 540.96C521.655 542.882 523.21 544.438 525.146 544.438C527.082 544.438 528.638 542.882 528.638 540.96C528.638 539.038 527.082 537.466 525.146 537.466C523.21 537.466 521.655 539.022 521.655 540.96ZM486.661 540.96C486.661 542.882 488.216 544.438 490.152 544.438C492.089 544.438 493.644 542.882 493.644 540.96C493.644 539.038 492.089 537.466 490.152 537.466C488.216 537.466 486.661 539.022 486.661 540.96ZM451.651 540.96C451.651 542.882 453.207 544.438 455.143 544.438C457.079 544.438 458.634 542.882 458.634 540.96C458.634 539.038 457.079 537.466 455.143 537.466C453.207 537.466 451.651 539.022 451.651 540.96ZM416.658 540.96C416.658 542.882 418.213 544.438 420.149 544.438C422.085 544.438 423.641 542.882 423.641 540.96C423.641 539.038 422.069 537.466 420.149 537.466C418.229 537.466 416.658 539.022 416.658 540.96ZM381.648 540.96C381.648 542.882 383.203 544.438 385.139 544.438C387.076 544.438 388.631 542.882 388.631 540.96C388.631 539.038 387.076 537.466 385.139 537.466C383.203 537.466 381.648 539.022 381.648 540.96ZM346.638 540.96C346.638 542.882 348.194 544.438 350.13 544.438C352.066 544.438 353.621 542.882 353.621 540.96C353.621 539.038 352.066 537.466 350.13 537.466C348.194 537.466 346.638 539.022 346.638 540.96ZM311.645 540.96C311.645 542.882 313.2 544.438 315.136 544.438C317.072 544.438 318.628 542.882 318.628 540.96C318.628 539.038 317.072 537.466 315.136 537.466C313.2 537.466 311.645 539.022 311.645 540.96ZM276.635 540.96C276.635 542.882 278.19 544.438 280.127 544.438C282.063 544.438 283.618 542.882 283.618 540.96C283.618 539.038 282.047 537.466 280.127 537.466C278.206 537.466 276.635 539.022 276.635 540.96ZM241.625 540.96C241.625 542.882 243.197 544.438 245.117 544.438C247.037 544.438 248.608 542.882 248.608 540.96C248.608 539.038 247.037 537.466 245.117 537.466C243.197 537.466 241.625 539.022 241.625 540.96ZM206.616 540.96C206.616 542.882 208.187 544.438 210.107 544.438C212.028 544.438 213.599 542.882 213.599 540.96C213.599 539.038 212.043 537.466 210.107 537.466C208.171 537.466 206.616 539.022 206.616 540.96ZM679.135 518.741C679.135 520.663 680.69 522.235 682.626 522.235C684.562 522.235 686.117 520.679 686.117 518.741C686.117 516.804 684.562 515.247 682.626 515.247C680.69 515.247 679.135 516.804 679.135 518.741ZM644.141 518.741C644.141 520.663 645.696 522.235 647.632 522.235C649.568 522.235 651.124 520.679 651.124 518.741C651.124 516.804 649.568 515.247 647.632 515.247C645.696 515.247 644.141 516.804 644.141 518.741ZM609.131 518.741C609.131 520.663 610.702 522.235 612.623 522.235C614.543 522.235 616.114 520.679 616.114 518.741C616.114 516.804 614.559 515.247 612.623 515.247C610.686 515.247 609.131 516.804 609.131 518.741ZM574.122 518.741C574.122 520.663 575.693 522.235 577.613 522.235C579.533 522.235 581.104 520.679 581.104 518.741C581.104 516.804 579.549 515.247 577.613 515.247C575.677 515.247 574.122 516.804 574.122 518.741ZM539.128 518.741C539.128 520.663 540.683 522.235 542.619 522.235C544.555 522.235 546.111 520.679 546.111 518.741C546.111 516.804 544.555 515.247 542.619 515.247C540.683 515.247 539.128 516.804 539.128 518.741ZM504.118 518.741C504.118 520.663 505.673 522.235 507.61 522.235C509.546 522.235 511.101 520.679 511.101 518.741C511.101 516.804 509.546 515.247 507.61 515.247C505.673 515.247 504.118 516.804 504.118 518.741ZM469.124 518.741C469.124 520.663 470.68 522.235 472.616 522.235C474.552 522.235 476.107 520.679 476.107 518.741C476.107 516.804 474.536 515.247 472.616 515.247C470.696 515.247 469.124 516.804 469.124 518.741ZM434.131 518.741C434.131 520.663 435.686 522.235 437.622 522.235C439.558 522.235 441.114 520.679 441.114 518.741C441.114 516.804 439.558 515.247 437.622 515.247C435.686 515.247 434.131 516.804 434.131 518.741ZM399.121 518.741C399.121 520.663 400.676 522.235 402.613 522.235C404.549 522.235 406.104 520.679 406.104 518.741C406.104 516.804 404.549 515.247 402.613 515.247C400.676 515.247 399.121 516.804 399.121 518.741ZM364.112 518.741C364.112 520.663 365.667 522.235 367.603 522.235C369.539 522.235 371.094 520.679 371.094 518.741C371.094 516.804 369.539 515.247 367.603 515.247C365.667 515.247 364.112 516.804 364.112 518.741ZM329.118 518.741C329.118 520.663 330.673 522.235 332.609 522.235C334.545 522.235 336.101 520.679 336.101 518.741C336.101 516.804 334.529 515.247 332.609 515.247C330.689 515.247 329.118 516.804 329.118 518.741ZM294.108 518.741C294.108 520.663 295.663 522.235 297.6 522.235C299.536 522.235 301.091 520.679 301.091 518.741C301.091 516.804 299.52 515.247 297.6 515.247C295.679 515.247 294.108 516.804 294.108 518.741ZM259.099 518.741C259.099 520.663 260.654 522.235 262.59 522.235C264.526 522.235 266.081 520.679 266.081 518.741C266.081 516.804 264.526 515.247 262.59 515.247C260.654 515.247 259.099 516.804 259.099 518.741ZM224.105 518.741C224.105 520.663 225.66 522.235 227.596 522.235C229.532 522.235 231.088 520.679 231.088 518.741C231.088 516.804 229.517 515.247 227.596 515.247C225.676 515.247 224.105 516.804 224.105 518.741ZM696.623 496.523C696.623 498.444 698.179 500.017 700.099 500.017C702.019 500.017 703.59 498.46 703.59 496.523C703.59 494.585 702.019 493.029 700.099 493.029C698.179 493.029 696.623 494.585 696.623 496.523ZM661.614 496.523C661.614 498.444 663.169 500.017 665.105 500.017C667.041 500.017 668.597 498.46 668.597 496.523C668.597 494.585 667.041 493.029 665.105 493.029C663.169 493.029 661.614 494.585 661.614 496.523ZM626.604 496.523C626.604 498.444 628.175 500.017 630.096 500.017C632.016 500.017 633.587 498.46 633.587 496.523C633.587 494.585 632.016 493.029 630.096 493.029C628.175 493.029 626.604 494.585 626.604 496.523ZM591.61 496.523C591.61 498.444 593.182 500.017 595.102 500.017C597.022 500.017 598.593 498.46 598.593 496.523C598.593 494.585 597.022 493.029 595.102 493.029C593.182 493.029 591.61 494.585 591.61 496.523ZM556.617 496.523C556.617 498.444 558.172 500.017 560.108 500.017C562.044 500.017 563.6 498.46 563.6 496.523C563.6 494.585 562.044 493.029 560.108 493.029C558.172 493.029 556.617 494.585 556.617 496.523ZM521.607 496.523C521.607 498.444 523.162 500.017 525.099 500.017C527.035 500.017 528.59 498.46 528.59 496.523C528.59 494.585 527.035 493.029 525.099 493.029C523.162 493.029 521.607 494.585 521.607 496.523ZM486.613 496.523C486.613 498.444 488.169 500.017 490.105 500.017C492.041 500.017 493.596 498.46 493.596 496.523C493.596 494.585 492.041 493.029 490.105 493.029C488.169 493.029 486.613 494.585 486.613 496.523ZM451.604 496.523C451.604 498.444 453.159 500.017 455.095 500.017C457.031 500.017 458.587 498.46 458.587 496.523C458.587 494.585 457.031 493.029 455.095 493.029C453.159 493.029 451.604 494.585 451.604 496.523ZM416.61 496.523C416.61 498.444 418.165 500.017 420.101 500.017C422.038 500.017 423.593 498.46 423.593 496.523C423.593 494.585 422.022 493.029 420.101 493.029C418.181 493.029 416.61 494.585 416.61 496.523ZM381.6 496.523C381.6 498.444 383.156 500.017 385.092 500.017C387.028 500.017 388.583 498.46 388.583 496.523C388.583 494.585 387.028 493.029 385.092 493.029C383.156 493.029 381.6 494.585 381.6 496.523ZM346.591 496.523C346.591 498.444 348.146 500.017 350.082 500.017C352.018 500.017 353.574 498.46 353.574 496.523C353.574 494.585 352.018 493.029 350.082 493.029C348.146 493.029 346.591 494.585 346.591 496.523ZM311.597 496.523C311.597 498.444 313.152 500.017 315.089 500.017C317.025 500.017 318.58 498.46 318.58 496.523C318.58 494.585 317.025 493.029 315.089 493.029C313.152 493.029 311.597 494.585 311.597 496.523ZM276.587 496.523C276.587 498.444 278.143 500.017 280.079 500.017C282.015 500.017 283.57 498.46 283.57 496.523C283.57 494.585 281.999 493.029 280.079 493.029C278.159 493.029 276.587 494.585 276.587 496.523ZM241.578 496.523C241.578 498.444 243.149 500.017 245.069 500.017C246.99 500.017 248.561 498.46 248.561 496.523C248.561 494.585 246.99 493.029 245.069 493.029C243.149 493.029 241.578 494.585 241.578 496.523ZM206.568 496.523C206.568 498.444 208.139 500.017 210.06 500.017C211.98 500.017 213.551 498.46 213.551 496.523C213.551 494.585 211.996 493.029 210.06 493.029C208.124 493.029 206.568 494.585 206.568 496.523ZM714.097 474.304C714.097 476.226 715.652 477.798 717.588 477.798C719.524 477.798 721.079 476.226 721.079 474.304C721.079 472.382 719.508 470.81 717.588 470.81C715.668 470.81 714.097 472.367 714.097 474.304ZM679.087 474.304C679.087 476.226 680.642 477.798 682.578 477.798C684.515 477.798 686.07 476.226 686.07 474.304C686.07 472.382 684.515 470.81 682.578 470.81C680.642 470.81 679.087 472.367 679.087 474.304ZM644.093 474.304C644.093 476.226 645.648 477.798 647.585 477.798C649.521 477.798 651.076 476.226 651.076 474.304C651.076 472.382 649.521 470.81 647.585 470.81C645.648 470.81 644.093 472.367 644.093 474.304ZM609.084 474.304C609.084 476.226 610.655 477.798 612.575 477.798C614.495 477.798 616.066 476.226 616.066 474.304C616.066 472.382 614.511 470.81 612.575 470.81C610.639 470.81 609.084 472.367 609.084 474.304ZM574.074 474.304C574.074 476.226 575.645 477.798 577.565 477.798C579.486 477.798 581.057 476.226 581.057 474.304C581.057 472.382 579.502 470.81 577.565 470.81C575.629 470.81 574.074 472.367 574.074 474.304ZM539.08 474.304C539.08 476.226 540.635 477.798 542.572 477.798C544.508 477.798 546.063 476.226 546.063 474.304C546.063 472.382 544.508 470.81 542.572 470.81C540.635 470.81 539.08 472.367 539.08 474.304ZM504.071 474.304C504.071 476.226 505.626 477.798 507.562 477.798C509.498 477.798 511.053 476.226 511.053 474.304C511.053 472.382 509.498 470.81 507.562 470.81C505.626 470.81 504.071 472.367 504.071 474.304ZM469.077 474.304C469.077 476.226 470.632 477.798 472.568 477.798C474.504 477.798 476.06 476.226 476.06 474.304C476.06 472.382 474.489 470.81 472.568 470.81C470.648 470.81 469.077 472.367 469.077 474.304ZM434.083 474.304C434.083 476.226 435.638 477.798 437.575 477.798C439.511 477.798 441.066 476.226 441.066 474.304C441.066 472.382 439.511 470.81 437.575 470.81C435.638 470.81 434.083 472.367 434.083 474.304ZM399.074 474.304C399.074 476.226 400.629 477.798 402.565 477.798C404.501 477.798 406.056 476.226 406.056 474.304C406.056 472.382 404.501 470.81 402.565 470.81C400.629 470.81 399.074 472.367 399.074 474.304ZM364.064 474.304C364.064 476.226 365.619 477.798 367.555 477.798C369.492 477.798 371.047 476.226 371.047 474.304C371.047 472.382 369.492 470.81 367.555 470.81C365.619 470.81 364.064 472.367 364.064 474.304ZM329.07 474.304C329.07 476.226 330.625 477.798 332.562 477.798C334.498 477.798 336.053 476.226 336.053 474.304C336.053 472.382 334.482 470.81 332.562 470.81C330.641 470.81 329.07 472.367 329.07 474.304ZM294.061 474.304C294.061 476.226 295.616 477.798 297.552 477.798C299.488 477.798 301.043 476.226 301.043 474.304C301.043 472.382 299.472 470.81 297.552 470.81C295.632 470.81 294.061 472.367 294.061 474.304ZM259.051 474.304C259.051 476.226 260.606 477.798 262.542 477.798C264.479 477.798 266.034 476.226 266.034 474.304C266.034 472.382 264.479 470.81 262.542 470.81C260.606 470.81 259.051 472.367 259.051 474.304ZM224.057 474.304C224.057 476.226 225.612 477.798 227.549 477.798C229.485 477.798 231.04 476.226 231.04 474.304C231.04 472.382 229.469 470.81 227.549 470.81C225.628 470.81 224.057 472.367 224.057 474.304ZM189.048 474.304C189.048 476.226 190.603 477.798 192.539 477.798C194.475 477.798 196.03 476.226 196.03 474.304C196.03 472.382 194.475 470.81 192.539 470.81C190.603 470.81 189.048 472.367 189.048 474.304ZM696.576 452.085C696.576 454.007 698.131 455.579 700.051 455.579C701.972 455.579 703.543 454.023 703.543 452.085C703.543 450.148 701.972 448.591 700.051 448.591C698.131 448.591 696.576 450.148 696.576 452.085ZM661.566 452.085C661.566 454.007 663.121 455.579 665.058 455.579C666.994 455.579 668.549 454.023 668.549 452.085C668.549 450.148 666.994 448.591 665.058 448.591C663.121 448.591 661.566 450.148 661.566 452.085ZM626.557 452.085C626.557 454.007 628.128 455.579 630.048 455.579C631.968 455.579 633.54 454.023 633.54 452.085C633.54 450.148 631.968 448.591 630.048 448.591C628.128 448.591 626.557 450.148 626.557 452.085ZM591.563 452.085C591.563 454.007 593.134 455.579 595.054 455.579C596.975 455.579 598.546 454.023 598.546 452.085C598.546 450.148 596.975 448.591 595.054 448.591C593.134 448.591 591.563 450.148 591.563 452.085ZM556.569 452.085C556.569 454.007 558.124 455.579 560.061 455.579C561.997 455.579 563.552 454.023 563.552 452.085C563.552 450.148 561.997 448.591 560.061 448.591C558.124 448.591 556.569 450.148 556.569 452.085ZM521.56 452.085C521.56 454.007 523.115 455.579 525.051 455.579C526.987 455.579 528.542 454.023 528.542 452.085C528.542 450.148 526.987 448.591 525.051 448.591C523.115 448.591 521.56 450.148 521.56 452.085ZM486.566 452.085C486.566 454.007 488.121 455.579 490.057 455.579C491.993 455.579 493.549 454.023 493.549 452.085C493.549 450.148 491.993 448.591 490.057 448.591C488.121 448.591 486.566 450.148 486.566 452.085ZM451.556 452.085C451.556 454.007 453.111 455.579 455.048 455.579C456.984 455.579 458.539 454.023 458.539 452.085C458.539 450.148 456.984 448.591 455.048 448.591C453.111 448.591 451.556 450.148 451.556 452.085ZM416.562 452.085C416.562 454.007 418.118 455.579 420.054 455.579C421.99 455.579 423.545 454.023 423.545 452.085C423.545 450.148 421.974 448.591 420.054 448.591C418.134 448.591 416.562 450.148 416.562 452.085ZM381.553 452.085C381.553 454.007 383.108 455.579 385.044 455.579C386.98 455.579 388.536 454.023 388.536 452.085C388.536 450.148 386.98 448.591 385.044 448.591C383.108 448.591 381.553 450.148 381.553 452.085ZM346.543 452.085C346.543 454.007 348.099 455.579 350.035 455.579C351.971 455.579 353.526 454.023 353.526 452.085C353.526 450.148 351.971 448.591 350.035 448.591C348.099 448.591 346.543 450.148 346.543 452.085ZM311.549 452.085C311.549 454.007 313.105 455.579 315.041 455.579C316.977 455.579 318.532 454.023 318.532 452.085C318.532 450.148 316.977 448.591 315.041 448.591C313.105 448.591 311.549 450.148 311.549 452.085ZM276.54 452.085C276.54 454.007 278.095 455.579 280.031 455.579C281.967 455.579 283.523 454.023 283.523 452.085C283.523 450.148 281.952 448.591 280.031 448.591C278.111 448.591 276.54 450.148 276.54 452.085ZM241.53 452.085C241.53 454.007 243.101 455.579 245.022 455.579C246.942 455.579 248.513 454.023 248.513 452.085C248.513 450.148 246.942 448.591 245.022 448.591C243.101 448.591 241.53 450.148 241.53 452.085ZM206.521 452.085C206.521 454.007 208.092 455.579 210.012 455.579C211.932 455.579 213.504 454.023 213.504 452.085C213.504 450.148 211.948 448.591 210.012 448.591C208.076 448.591 206.521 450.148 206.521 452.085ZM714.049 429.867C714.049 431.789 715.604 433.361 717.54 433.361C719.477 433.361 721.032 431.804 721.032 429.867C721.032 427.929 719.461 426.373 717.54 426.373C715.62 426.373 714.049 427.929 714.049 429.867ZM679.039 429.867C679.039 431.789 680.595 433.361 682.531 433.361C684.467 433.361 686.022 431.804 686.022 429.867C686.022 427.929 684.467 426.373 682.531 426.373C680.595 426.373 679.039 427.929 679.039 429.867ZM644.046 429.867C644.046 431.789 645.601 433.361 647.537 433.361C649.473 433.361 651.028 431.804 651.028 429.867C651.028 427.929 649.473 426.373 647.537 426.373C645.601 426.373 644.046 427.929 644.046 429.867ZM609.036 429.867C609.036 431.789 610.607 433.361 612.527 433.361C614.448 433.361 616.019 431.804 616.019 429.867C616.019 427.929 614.464 426.373 612.527 426.373C610.591 426.373 609.036 427.929 609.036 429.867ZM574.026 429.867C574.026 431.789 575.597 433.361 577.518 433.361C579.438 433.361 581.009 431.804 581.009 429.867C581.009 427.929 579.454 426.373 577.518 426.373C575.582 426.373 574.026 427.929 574.026 429.867ZM539.033 429.867C539.033 431.789 540.588 433.361 542.524 433.361C544.46 433.361 546.015 431.804 546.015 429.867C546.015 427.929 544.46 426.373 542.524 426.373C540.588 426.373 539.033 427.929 539.033 429.867ZM504.023 429.867C504.023 431.789 505.578 433.361 507.514 433.361C509.451 433.361 511.006 431.804 511.006 429.867C511.006 427.929 509.451 426.373 507.514 426.373C505.578 426.373 504.023 427.929 504.023 429.867ZM469.029 429.867C469.029 431.789 470.584 433.361 472.521 433.361C474.457 433.361 476.012 431.804 476.012 429.867C476.012 427.929 474.441 426.373 472.521 426.373C470.6 426.373 469.029 427.929 469.029 429.867ZM434.035 429.867C434.035 431.789 435.591 433.361 437.527 433.361C439.463 433.361 441.018 431.804 441.018 429.867C441.018 427.929 439.463 426.373 437.527 426.373C435.591 426.373 434.035 427.929 434.035 429.867ZM399.026 429.867C399.026 431.789 400.581 433.361 402.517 433.361C404.453 433.361 406.009 431.804 406.009 429.867C406.009 427.929 404.453 426.373 402.517 426.373C400.581 426.373 399.026 427.929 399.026 429.867ZM364.016 429.867C364.016 431.789 365.572 433.361 367.508 433.361C369.444 433.361 370.999 431.804 370.999 429.867C370.999 427.929 369.444 426.373 367.508 426.373C365.572 426.373 364.016 427.929 364.016 429.867ZM329.023 429.867C329.023 431.789 330.578 433.361 332.514 433.361C334.45 433.361 336.005 431.804 336.005 429.867C336.005 427.929 334.434 426.373 332.514 426.373C330.594 426.373 329.023 427.929 329.023 429.867ZM294.013 429.867C294.013 431.789 295.568 433.361 297.504 433.361C299.441 433.361 300.996 431.804 300.996 429.867C300.996 427.929 299.425 426.373 297.504 426.373C295.584 426.373 294.013 427.929 294.013 429.867ZM259.003 429.867C259.003 431.789 260.559 433.361 262.495 433.361C264.431 433.361 265.986 431.804 265.986 429.867C265.986 427.929 264.431 426.373 262.495 426.373C260.559 426.373 259.003 427.929 259.003 429.867ZM224.01 429.867C224.01 431.789 225.565 433.361 227.501 433.361C229.437 433.361 230.992 431.804 230.992 429.867C230.992 427.929 229.421 426.373 227.501 426.373C225.581 426.373 224.01 427.929 224.01 429.867ZM189 429.867C189 431.789 190.555 433.361 192.491 433.361C194.428 433.361 195.983 431.804 195.983 429.867C195.983 427.929 194.428 426.373 192.491 426.373C190.555 426.373 189 427.929 189 429.867ZM696.528 407.664C696.528 409.586 698.084 411.142 700.004 411.142C701.924 411.142 703.495 409.586 703.495 407.664C703.495 405.742 701.924 404.17 700.004 404.17C698.084 404.17 696.528 405.727 696.528 407.664ZM661.519 407.664C661.519 409.586 663.074 411.142 665.01 411.142C666.946 411.142 668.501 409.586 668.501 407.664C668.501 405.742 666.946 404.17 665.01 404.17C663.074 404.17 661.519 405.727 661.519 407.664ZM626.509 407.664C626.509 409.586 628.08 411.142 630 411.142C631.921 411.142 633.492 409.586 633.492 407.664C633.492 405.742 631.921 404.17 630 404.17C628.08 404.17 626.509 405.727 626.509 407.664ZM591.515 407.664C591.515 409.586 593.086 411.142 595.007 411.142C596.927 411.142 598.498 409.586 598.498 407.664C598.498 405.742 596.927 404.17 595.007 404.17C593.086 404.17 591.515 405.727 591.515 407.664ZM556.522 407.664C556.522 409.586 558.077 411.142 560.013 411.142C561.949 411.142 563.504 409.586 563.504 407.664C563.504 405.742 561.949 404.17 560.013 404.17C558.077 404.17 556.522 405.727 556.522 407.664ZM521.512 407.664C521.512 409.586 523.067 411.142 525.003 411.142C526.94 411.142 528.495 409.586 528.495 407.664C528.495 405.742 526.94 404.17 525.003 404.17C523.067 404.17 521.512 405.727 521.512 407.664ZM486.518 407.664C486.518 409.586 488.073 411.142 490.01 411.142C491.946 411.142 493.501 409.586 493.501 407.664C493.501 405.742 491.946 404.17 490.01 404.17C488.073 404.17 486.518 405.727 486.518 407.664ZM451.509 407.664C451.509 409.586 453.064 411.142 455 411.142C456.936 411.142 458.491 409.586 458.491 407.664C458.491 405.742 456.936 404.17 455 404.17C453.064 404.17 451.509 405.727 451.509 407.664ZM416.515 407.664C416.515 409.586 418.07 411.142 420.006 411.142C421.942 411.142 423.498 409.586 423.498 407.664C423.498 405.742 421.927 404.17 420.006 404.17C418.086 404.17 416.515 405.727 416.515 407.664ZM381.505 407.664C381.505 409.586 383.06 411.142 384.997 411.142C386.933 411.142 388.488 409.586 388.488 407.664C388.488 405.742 386.933 404.17 384.997 404.17C383.06 404.17 381.505 405.727 381.505 407.664ZM346.496 407.664C346.496 409.586 348.051 411.142 349.987 411.142C351.923 411.142 353.479 409.586 353.479 407.664C353.479 405.742 351.923 404.17 349.987 404.17C348.051 404.17 346.496 405.727 346.496 407.664ZM311.502 407.664C311.502 409.586 313.057 411.142 314.993 411.142C316.929 411.142 318.485 409.586 318.485 407.664C318.485 405.742 316.929 404.17 314.993 404.17C313.057 404.17 311.502 405.727 311.502 407.664ZM276.492 407.664C276.492 409.586 278.048 411.142 279.984 411.142C281.92 411.142 283.475 409.586 283.475 407.664C283.475 405.742 281.904 404.17 279.984 404.17C278.063 404.17 276.492 405.727 276.492 407.664ZM241.483 407.664C241.483 409.586 243.054 411.142 244.974 411.142C246.894 411.142 248.466 409.586 248.466 407.664C248.466 405.742 246.894 404.17 244.974 404.17C243.054 404.17 241.483 405.727 241.483 407.664ZM206.473 407.664C206.473 409.586 208.044 411.142 209.965 411.142C211.885 411.142 213.456 409.586 213.456 407.664C213.456 405.742 211.901 404.17 209.965 404.17C208.028 404.17 206.473 405.727 206.473 407.664ZM678.992 385.43C678.992 387.351 680.547 388.924 682.483 388.924C684.419 388.924 685.975 387.351 685.975 385.43C685.975 383.508 684.419 381.936 682.483 381.936C680.547 381.936 678.992 383.492 678.992 385.43ZM643.998 385.43C643.998 387.351 645.553 388.924 647.489 388.924C649.426 388.924 650.981 387.351 650.981 385.43C650.981 383.508 649.426 381.936 647.489 381.936C645.553 381.936 643.998 383.492 643.998 385.43ZM608.988 385.43C608.988 387.351 610.56 388.924 612.48 388.924C614.4 388.924 615.971 387.351 615.971 385.43C615.971 383.508 614.416 381.936 612.48 381.936C610.544 381.936 608.988 383.492 608.988 385.43ZM573.979 385.43C573.979 387.351 575.55 388.924 577.47 388.924C579.39 388.924 580.962 387.351 580.962 385.43C580.962 383.508 579.406 381.936 577.47 381.936C575.534 381.936 573.979 383.492 573.979 385.43ZM538.985 385.43C538.985 387.351 540.54 388.924 542.476 388.924C544.413 388.924 545.968 387.351 545.968 385.43C545.968 383.508 544.413 381.936 542.476 381.936C540.54 381.936 538.985 383.492 538.985 385.43ZM503.975 385.43C503.975 387.351 505.531 388.924 507.467 388.924C509.403 388.924 510.958 387.351 510.958 385.43C510.958 383.508 509.403 381.936 507.467 381.936C505.531 381.936 503.975 383.492 503.975 385.43ZM468.982 385.43C468.982 387.351 470.537 388.924 472.473 388.924C474.409 388.924 475.965 387.351 475.965 385.43C475.965 383.508 474.393 381.936 472.473 381.936C470.553 381.936 468.982 383.492 468.982 385.43ZM433.988 385.43C433.988 387.351 435.543 388.924 437.479 388.924C439.415 388.924 440.971 387.351 440.971 385.43C440.971 383.508 439.415 381.936 437.479 381.936C435.543 381.936 433.988 383.492 433.988 385.43ZM398.978 385.43C398.978 387.351 400.534 388.924 402.47 388.924C404.406 388.924 405.961 387.351 405.961 385.43C405.961 383.508 404.406 381.936 402.47 381.936C400.534 381.936 398.978 383.492 398.978 385.43ZM363.969 385.43C363.969 387.351 365.524 388.924 367.46 388.924C369.396 388.924 370.952 387.351 370.952 385.43C370.952 383.508 369.396 381.936 367.46 381.936C365.524 381.936 363.969 383.492 363.969 385.43ZM328.975 385.43C328.975 387.351 330.53 388.924 332.466 388.924C334.403 388.924 335.958 387.351 335.958 385.43C335.958 383.508 334.387 381.936 332.466 381.936C330.546 381.936 328.975 383.492 328.975 385.43ZM293.965 385.43C293.965 387.351 295.521 388.924 297.457 388.924C299.393 388.924 300.948 387.351 300.948 385.43C300.948 383.508 299.377 381.936 297.457 381.936C295.536 381.936 293.965 383.492 293.965 385.43ZM258.956 385.43C258.956 387.351 260.511 388.924 262.447 388.924C264.383 388.924 265.939 387.351 265.939 385.43C265.939 383.508 264.383 381.936 262.447 381.936C260.511 381.936 258.956 383.492 258.956 385.43ZM223.962 385.43C223.962 387.351 225.517 388.924 227.453 388.924C229.39 388.924 230.945 387.351 230.945 385.43C230.945 383.508 229.374 381.936 227.453 381.936C225.533 381.936 223.962 383.492 223.962 385.43ZM696.481 363.227C696.481 365.149 698.036 366.721 699.956 366.721C701.876 366.721 703.448 365.165 703.448 363.227C703.448 361.289 701.876 359.733 699.956 359.733C698.036 359.733 696.481 361.289 696.481 363.227ZM661.471 363.227C661.471 365.149 663.026 366.721 664.962 366.721C666.899 366.721 668.454 365.165 668.454 363.227C668.454 361.289 666.899 359.733 664.962 359.733C663.026 359.733 661.471 361.289 661.471 363.227ZM626.461 363.227C626.461 365.149 628.033 366.721 629.953 366.721C631.873 366.721 633.444 365.165 633.444 363.227C633.444 361.289 631.873 359.733 629.953 359.733C628.033 359.733 626.461 361.289 626.461 363.227ZM591.468 363.227C591.468 365.149 593.039 366.721 594.959 366.721C596.879 366.721 598.451 365.165 598.451 363.227C598.451 361.289 596.879 359.733 594.959 359.733C593.039 359.733 591.468 361.289 591.468 363.227ZM556.474 363.227C556.474 365.149 558.029 366.721 559.965 366.721C561.902 366.721 563.457 365.165 563.457 363.227C563.457 361.289 561.902 359.733 559.965 359.733C558.029 359.733 556.474 361.289 556.474 363.227ZM521.464 363.227C521.464 365.149 523.02 366.721 524.956 366.721C526.892 366.721 528.447 365.165 528.447 363.227C528.447 361.289 526.892 359.733 524.956 359.733C523.02 359.733 521.464 361.289 521.464 363.227ZM486.471 363.227C486.471 365.149 488.026 366.721 489.962 366.721C491.898 366.721 493.453 365.165 493.453 363.227C493.453 361.289 491.898 359.733 489.962 359.733C488.026 359.733 486.471 361.289 486.471 363.227ZM451.461 363.227C451.461 365.149 453.016 366.721 454.952 366.721C456.889 366.721 458.444 365.165 458.444 363.227C458.444 361.289 456.889 359.733 454.952 359.733C453.016 359.733 451.461 361.289 451.461 363.227ZM416.467 363.227C416.467 365.149 418.023 366.721 419.959 366.721C421.895 366.721 423.45 365.165 423.45 363.227C423.45 361.289 421.879 359.733 419.959 359.733C418.038 359.733 416.467 361.289 416.467 363.227ZM381.458 363.227C381.458 365.149 383.013 366.721 384.949 366.721C386.885 366.721 388.44 365.165 388.44 363.227C388.44 361.289 386.885 359.733 384.949 359.733C383.013 359.733 381.458 361.289 381.458 363.227ZM346.448 363.227C346.448 365.149 348.003 366.721 349.939 366.721C351.876 366.721 353.431 365.165 353.431 363.227C353.431 361.289 351.876 359.733 349.939 359.733C348.003 359.733 346.448 361.289 346.448 363.227ZM311.454 363.227C311.454 365.149 313.01 366.721 314.946 366.721C316.882 366.721 318.437 365.165 318.437 363.227C318.437 361.289 316.882 359.733 314.946 359.733C313.01 359.733 311.454 361.289 311.454 363.227ZM276.445 363.227C276.445 365.149 278 366.721 279.936 366.721C281.872 366.721 283.428 365.165 283.428 363.227C283.428 361.289 281.856 359.733 279.936 359.733C278.016 359.733 276.445 361.289 276.445 363.227ZM241.435 363.227C241.435 365.149 243.006 366.721 244.926 366.721C246.847 366.721 248.418 365.165 248.418 363.227C248.418 361.289 246.847 359.733 244.926 359.733C243.006 359.733 241.435 361.289 241.435 363.227ZM206.425 363.227C206.425 365.149 207.997 366.721 209.917 366.721C211.837 366.721 213.408 365.165 213.408 363.227C213.408 361.289 211.853 359.733 209.917 359.733C207.981 359.733 206.425 361.289 206.425 363.227ZM678.944 341.008C678.944 342.93 680.499 344.502 682.436 344.502C684.372 344.502 685.927 342.946 685.927 341.008C685.927 339.071 684.372 337.514 682.436 337.514C680.499 337.514 678.944 339.071 678.944 341.008ZM643.95 341.008C643.95 342.93 645.506 344.502 647.442 344.502C649.378 344.502 650.933 342.946 650.933 341.008C650.933 339.071 649.378 337.514 647.442 337.514C645.506 337.514 643.95 339.071 643.95 341.008ZM608.941 341.008C608.941 342.93 610.512 344.502 612.432 344.502C614.352 344.502 615.924 342.946 615.924 341.008C615.924 339.071 614.368 337.514 612.432 337.514C610.496 337.514 608.941 339.071 608.941 341.008ZM573.931 341.008C573.931 342.93 575.502 344.502 577.423 344.502C579.343 344.502 580.914 342.946 580.914 341.008C580.914 339.071 579.359 337.514 577.423 337.514C575.486 337.514 573.931 339.071 573.931 341.008ZM538.937 341.008C538.937 342.93 540.493 344.502 542.429 344.502C544.365 344.502 545.92 342.946 545.92 341.008C545.92 339.071 544.365 337.514 542.429 337.514C540.493 337.514 538.937 339.071 538.937 341.008ZM503.928 341.008C503.928 342.93 505.483 344.502 507.419 344.502C509.355 344.502 510.911 342.946 510.911 341.008C510.911 339.071 509.355 337.514 507.419 337.514C505.483 337.514 503.928 339.071 503.928 341.008ZM468.934 341.008C468.934 342.93 470.489 344.502 472.425 344.502C474.362 344.502 475.917 342.946 475.917 341.008C475.917 339.071 474.346 337.514 472.425 337.514C470.505 337.514 468.934 339.071 468.934 341.008ZM433.94 341.008C433.94 342.93 435.496 344.502 437.432 344.502C439.368 344.502 440.923 342.946 440.923 341.008C440.923 339.071 439.368 337.514 437.432 337.514C435.496 337.514 433.94 339.071 433.94 341.008ZM398.931 341.008C398.931 342.93 400.486 344.502 402.422 344.502C404.358 344.502 405.914 342.946 405.914 341.008C405.914 339.071 404.358 337.514 402.422 337.514C400.486 337.514 398.931 339.071 398.931 341.008ZM363.921 341.008C363.921 342.93 365.476 344.502 367.413 344.502C369.349 344.502 370.904 342.946 370.904 341.008C370.904 339.071 369.349 337.514 367.413 337.514C365.476 337.514 363.921 339.071 363.921 341.008ZM328.927 341.008C328.927 342.93 330.483 344.502 332.419 344.502C334.355 344.502 335.91 342.946 335.91 341.008C335.91 339.071 334.339 337.514 332.419 337.514C330.498 337.514 328.927 339.071 328.927 341.008ZM293.918 341.008C293.918 342.93 295.473 344.502 297.409 344.502C299.345 344.502 300.901 342.946 300.901 341.008C300.901 339.071 299.329 337.514 297.409 337.514C295.489 337.514 293.918 339.071 293.918 341.008ZM258.908 341.008C258.908 342.93 260.463 344.502 262.4 344.502C264.336 344.502 265.891 342.946 265.891 341.008C265.891 339.071 264.336 337.514 262.4 337.514C260.463 337.514 258.908 339.071 258.908 341.008ZM223.914 341.008C223.914 342.93 225.47 344.502 227.406 344.502C229.342 344.502 230.897 342.946 230.897 341.008C230.897 339.071 229.326 337.514 227.406 337.514C225.486 337.514 223.914 339.071 223.914 341.008ZM661.439 318.79C661.439 320.711 662.995 322.284 664.931 322.284C666.867 322.284 668.422 320.727 668.422 318.79C668.422 316.852 666.867 315.296 664.931 315.296C662.995 315.296 661.439 316.868 661.439 318.79ZM626.43 318.79C626.43 320.711 628.001 322.284 629.921 322.284C631.841 322.284 633.413 320.727 633.413 318.79C633.413 316.852 631.841 315.296 629.921 315.296C628.001 315.296 626.43 316.868 626.43 318.79ZM591.436 318.79C591.436 320.711 593.007 322.284 594.927 322.284C596.848 322.284 598.419 320.727 598.419 318.79C598.419 316.852 596.848 315.296 594.927 315.296C593.007 315.296 591.436 316.868 591.436 318.79ZM556.442 318.79C556.442 320.711 557.997 322.284 559.934 322.284C561.87 322.284 563.425 320.727 563.425 318.79C563.425 316.852 561.87 315.296 559.934 315.296C557.997 315.296 556.442 316.868 556.442 318.79ZM521.433 318.79C521.433 320.711 522.988 322.284 524.924 322.284C526.86 322.284 528.415 320.727 528.415 318.79C528.415 316.852 526.86 315.296 524.924 315.296C522.988 315.296 521.433 316.868 521.433 318.79ZM486.439 318.79C486.439 320.711 487.994 322.284 489.93 322.284C491.866 322.284 493.422 320.727 493.422 318.79C493.422 316.852 491.866 315.296 489.93 315.296C487.994 315.296 486.439 316.868 486.439 318.79ZM451.429 318.79C451.429 320.711 452.984 322.284 454.921 322.284C456.857 322.284 458.412 320.727 458.412 318.79C458.412 316.852 456.857 315.296 454.921 315.296C452.984 315.296 451.429 316.868 451.429 318.79ZM416.435 318.79C416.435 320.711 417.991 322.284 419.927 322.284C421.863 322.284 423.418 320.727 423.418 318.79C423.418 316.852 421.847 315.296 419.927 315.296C418.007 315.296 416.435 316.868 416.435 318.79ZM381.426 318.79C381.426 320.711 382.981 322.284 384.917 322.284C386.853 322.284 388.409 320.727 388.409 318.79C388.409 316.852 386.853 315.296 384.917 315.296C382.981 315.296 381.426 316.868 381.426 318.79ZM346.416 318.79C346.416 320.711 347.972 322.284 349.908 322.284C351.844 322.284 353.399 320.727 353.399 318.79C353.399 316.852 351.844 315.296 349.908 315.296C347.972 315.296 346.416 316.868 346.416 318.79ZM311.423 318.79C311.423 320.711 312.978 322.284 314.914 322.284C316.85 322.284 318.405 320.727 318.405 318.79C318.405 316.852 316.85 315.296 314.914 315.296C312.978 315.296 311.423 316.868 311.423 318.79ZM276.413 318.79C276.413 320.711 277.968 322.284 279.904 322.284C281.841 322.284 283.396 320.727 283.396 318.79C283.396 316.852 281.825 315.296 279.904 315.296C277.984 315.296 276.413 316.868 276.413 318.79ZM241.403 318.79C241.403 320.711 242.974 322.284 244.895 322.284C246.815 322.284 248.386 320.727 248.386 318.79C248.386 316.852 246.815 315.296 244.895 315.296C242.974 315.296 241.403 316.868 241.403 318.79ZM643.919 296.571C643.919 298.509 645.474 300.065 647.41 300.065C649.346 300.065 650.901 298.509 650.901 296.571C650.901 294.634 649.346 293.077 647.41 293.077C645.474 293.077 643.919 294.634 643.919 296.571ZM608.909 296.571C608.909 298.509 610.48 300.065 612.4 300.065C614.321 300.065 615.892 298.509 615.892 296.571C615.892 294.634 614.337 293.077 612.4 293.077C610.464 293.077 608.909 294.634 608.909 296.571ZM573.899 296.571C573.899 298.509 575.471 300.065 577.391 300.065C579.311 300.065 580.882 298.509 580.882 296.571C580.882 294.634 579.327 293.077 577.391 293.077C575.455 293.077 573.899 294.634 573.899 296.571ZM538.906 296.571C538.906 298.509 540.461 300.065 542.397 300.065C544.333 300.065 545.889 298.509 545.889 296.571C545.889 294.634 544.333 293.077 542.397 293.077C540.461 293.077 538.906 294.634 538.906 296.571ZM503.896 296.571C503.896 298.509 505.451 300.065 507.387 300.065C509.324 300.065 510.879 298.509 510.879 296.571C510.879 294.634 509.324 293.077 507.387 293.077C505.451 293.077 503.896 294.634 503.896 296.571ZM468.902 296.571C468.902 298.509 470.458 300.065 472.394 300.065C474.33 300.065 475.885 298.509 475.885 296.571C475.885 294.634 474.314 293.077 472.394 293.077C470.473 293.077 468.902 294.634 468.902 296.571ZM433.909 296.571C433.909 298.509 435.464 300.065 437.4 300.065C439.336 300.065 440.891 298.509 440.891 296.571C440.891 294.634 439.336 293.077 437.4 293.077C435.464 293.077 433.909 294.634 433.909 296.571ZM398.899 296.571C398.899 298.509 400.454 300.065 402.39 300.065C404.327 300.065 405.882 298.509 405.882 296.571C405.882 294.634 404.327 293.077 402.39 293.077C400.454 293.077 398.899 294.634 398.899 296.571ZM363.889 296.571C363.889 298.509 365.445 300.065 367.381 300.065C369.317 300.065 370.872 298.509 370.872 296.571C370.872 294.634 369.317 293.077 367.381 293.077C365.445 293.077 363.889 294.634 363.889 296.571ZM328.896 296.571C328.896 298.509 330.451 300.065 332.387 300.065C334.323 300.065 335.878 298.509 335.878 296.571C335.878 294.634 334.307 293.077 332.387 293.077C330.467 293.077 328.896 294.634 328.896 296.571ZM293.886 296.571C293.886 298.509 295.441 300.065 297.377 300.065C299.314 300.065 300.869 298.509 300.869 296.571C300.869 294.634 299.298 293.077 297.377 293.077C295.457 293.077 293.886 294.634 293.886 296.571ZM258.876 296.571C258.876 298.509 260.432 300.065 262.368 300.065C264.304 300.065 265.859 298.509 265.859 296.571C265.859 294.634 264.304 293.077 262.368 293.077C260.432 293.077 258.876 294.634 258.876 296.571ZM626.398 274.353C626.398 276.29 627.969 277.847 629.889 277.847C631.81 277.847 633.381 276.29 633.381 274.353C633.381 272.415 631.81 270.859 629.889 270.859C627.969 270.859 626.398 272.415 626.398 274.353ZM591.404 274.353C591.404 276.29 592.975 277.847 594.896 277.847C596.816 277.847 598.387 276.29 598.387 274.353C598.387 272.415 596.816 270.859 594.896 270.859C592.975 270.859 591.404 272.415 591.404 274.353ZM556.41 274.353C556.41 276.29 557.966 277.847 559.902 277.847C561.838 277.847 563.393 276.29 563.393 274.353C563.393 272.415 561.838 270.859 559.902 270.859C557.966 270.859 556.41 272.415 556.41 274.353ZM521.401 274.353C521.401 276.29 522.956 277.847 524.892 277.847C526.828 277.847 528.384 276.29 528.384 274.353C528.384 272.415 526.828 270.859 524.892 270.859C522.956 270.859 521.401 272.415 521.401 274.353ZM486.407 274.353C486.407 276.29 487.962 277.847 489.899 277.847C491.835 277.847 493.39 276.29 493.39 274.353C493.39 272.415 491.835 270.859 489.899 270.859C487.962 270.859 486.407 272.415 486.407 274.353ZM451.397 274.353C451.397 276.29 452.953 277.847 454.889 277.847C456.825 277.847 458.38 276.29 458.38 274.353C458.38 272.415 456.825 270.859 454.889 270.859C452.953 270.859 451.397 272.415 451.397 274.353ZM416.404 274.353C416.404 276.29 417.959 277.847 419.895 277.847C421.831 277.847 423.387 276.29 423.387 274.353C423.387 272.415 421.815 270.859 419.895 270.859C417.975 270.859 416.404 272.415 416.404 274.353ZM381.394 274.353C381.394 276.29 382.949 277.847 384.886 277.847C386.822 277.847 388.377 276.29 388.377 274.353C388.377 272.415 386.822 270.859 384.886 270.859C382.949 270.859 381.394 272.415 381.394 274.353ZM346.385 274.353C346.385 276.29 347.94 277.847 349.876 277.847C351.812 277.847 353.367 276.29 353.367 274.353C353.367 272.415 351.812 270.859 349.876 270.859C347.94 270.859 346.385 272.415 346.385 274.353ZM311.391 274.353C311.391 276.29 312.946 277.847 314.882 277.847C316.818 277.847 318.374 276.29 318.374 274.353C318.374 272.415 316.818 270.859 314.882 270.859C312.946 270.859 311.391 272.415 311.391 274.353ZM276.381 274.353C276.381 276.29 277.936 277.847 279.873 277.847C281.809 277.847 283.364 276.29 283.364 274.353C283.364 272.415 281.793 270.859 279.873 270.859C277.952 270.859 276.381 272.415 276.381 274.353ZM608.893 252.134C608.893 254.056 610.464 255.628 612.385 255.628C614.305 255.628 615.876 254.071 615.876 252.134C615.876 250.196 614.321 248.64 612.385 248.64C610.448 248.64 608.893 250.196 608.893 252.134ZM573.884 252.134C573.884 254.056 575.455 255.628 577.375 255.628C579.295 255.628 580.866 254.071 580.866 252.134C580.866 250.196 579.311 248.64 577.375 248.64C575.439 248.64 573.884 250.196 573.884 252.134ZM538.89 252.134C538.89 254.056 540.445 255.628 542.381 255.628C544.317 255.628 545.873 254.071 545.873 252.134C545.873 250.196 544.317 248.64 542.381 248.64C540.445 248.64 538.89 250.196 538.89 252.134ZM503.88 252.134C503.88 254.056 505.435 255.628 507.372 255.628C509.308 255.628 510.863 254.071 510.863 252.134C510.863 250.196 509.308 248.64 507.372 248.64C505.435 248.64 503.88 250.196 503.88 252.134ZM468.886 252.134C468.886 254.056 470.442 255.628 472.378 255.628C474.314 255.628 475.869 254.071 475.869 252.134C475.869 250.196 474.298 248.64 472.378 248.64C470.458 248.64 468.886 250.196 468.886 252.134ZM433.893 252.134C433.893 254.056 435.448 255.628 437.384 255.628C439.32 255.628 440.876 254.071 440.876 252.134C440.876 250.196 439.32 248.64 437.384 248.64C435.448 248.64 433.893 250.196 433.893 252.134ZM398.883 252.134C398.883 254.056 400.438 255.628 402.374 255.628C404.311 255.628 405.866 254.071 405.866 252.134C405.866 250.196 404.311 248.64 402.374 248.64C400.438 248.64 398.883 250.196 398.883 252.134ZM363.873 252.134C363.873 254.056 365.429 255.628 367.365 255.628C369.301 255.628 370.856 254.071 370.856 252.134C370.856 250.196 369.301 248.64 367.365 248.64C365.429 248.64 363.873 250.196 363.873 252.134ZM328.88 252.134C328.88 254.056 330.435 255.628 332.371 255.628C334.307 255.628 335.863 254.071 335.863 252.134C335.863 250.196 334.291 248.64 332.371 248.64C330.451 248.64 328.88 250.196 328.88 252.134ZM293.87 252.134C293.87 254.056 295.425 255.628 297.362 255.628C299.298 255.628 300.853 254.071 300.853 252.134C300.853 250.196 299.282 248.64 297.362 248.64C295.441 248.64 293.87 250.196 293.87 252.134ZM591.388 229.915C591.388 231.853 592.959 233.409 594.88 233.409C596.8 233.409 598.371 231.853 598.371 229.915C598.371 227.978 596.8 226.421 594.88 226.421C592.959 226.421 591.388 227.978 591.388 229.915ZM556.395 229.915C556.395 231.853 557.95 233.409 559.886 233.409C561.822 233.409 563.377 231.853 563.377 229.915C563.377 227.978 561.822 226.421 559.886 226.421C557.95 226.421 556.395 227.978 556.395 229.915ZM521.385 229.915C521.385 231.853 522.94 233.409 524.876 233.409C526.813 233.409 528.368 231.853 528.368 229.915C528.368 227.978 526.813 226.421 524.876 226.421C522.94 226.421 521.385 227.978 521.385 229.915ZM486.391 229.915C486.391 231.853 487.946 233.409 489.883 233.409C491.819 233.409 493.374 231.853 493.374 229.915C493.374 227.978 491.819 226.421 489.883 226.421C487.946 226.421 486.391 227.978 486.391 229.915ZM451.382 229.915C451.382 231.853 452.937 233.409 454.873 233.409C456.809 233.409 458.364 231.853 458.364 229.915C458.364 227.978 456.809 226.421 454.873 226.421C452.937 226.421 451.382 227.978 451.382 229.915ZM416.388 229.915C416.388 231.853 417.943 233.409 419.879 233.409C421.815 233.409 423.371 231.853 423.371 229.915C423.371 227.978 421.8 226.421 419.879 226.421C417.959 226.421 416.388 227.978 416.388 229.915ZM381.378 229.915C381.378 231.853 382.934 233.409 384.87 233.409C386.806 233.409 388.361 231.853 388.361 229.915C388.361 227.978 386.806 226.421 384.87 226.421C382.934 226.421 381.378 227.978 381.378 229.915ZM346.369 229.915C346.369 231.853 347.924 233.409 349.86 233.409C351.796 233.409 353.352 231.853 353.352 229.915C353.352 227.978 351.796 226.421 349.86 226.421C347.924 226.421 346.369 227.978 346.369 229.915ZM311.375 229.915C311.375 231.853 312.93 233.409 314.866 233.409C316.803 233.409 318.358 231.853 318.358 229.915C318.358 227.978 316.803 226.421 314.866 226.421C312.93 226.421 311.375 227.978 311.375 229.915ZM573.884 207.697C573.884 209.618 575.455 211.191 577.375 211.191C579.295 211.191 580.866 209.634 580.866 207.697C580.866 205.759 579.311 204.203 577.375 204.203C575.439 204.203 573.884 205.759 573.884 207.697ZM538.89 207.697C538.89 209.618 540.445 211.191 542.381 211.191C544.317 211.191 545.873 209.634 545.873 207.697C545.873 205.759 544.317 204.203 542.381 204.203C540.445 204.203 538.89 205.759 538.89 207.697ZM503.88 207.697C503.88 209.618 505.435 211.191 507.372 211.191C509.308 211.191 510.863 209.634 510.863 207.697C510.863 205.759 509.308 204.203 507.372 204.203C505.435 204.203 503.88 205.759 503.88 207.697ZM468.886 207.697C468.886 209.618 470.442 211.191 472.378 211.191C474.314 211.191 475.869 209.634 475.869 207.697C475.869 205.759 474.298 204.203 472.378 204.203C470.458 204.203 468.886 205.759 468.886 207.697ZM433.893 207.697C433.893 209.618 435.448 211.191 437.384 211.191C439.32 211.191 440.876 209.634 440.876 207.697C440.876 205.759 439.32 204.203 437.384 204.203C435.448 204.203 433.893 205.759 433.893 207.697ZM398.883 207.697C398.883 209.618 400.438 211.191 402.374 211.191C404.311 211.191 405.866 209.634 405.866 207.697C405.866 205.759 404.311 204.203 402.374 204.203C400.438 204.203 398.883 205.759 398.883 207.697ZM363.873 207.697C363.873 209.618 365.429 211.191 367.365 211.191C369.301 211.191 370.856 209.634 370.856 207.697C370.856 205.759 369.301 204.203 367.365 204.203C365.429 204.203 363.873 205.759 363.873 207.697ZM328.88 207.697C328.88 209.618 330.435 211.191 332.371 211.191C334.307 211.191 335.863 209.634 335.863 207.697C335.863 205.759 334.291 204.203 332.371 204.203C330.451 204.203 328.88 205.759 328.88 207.697ZM521.734 185.494C521.734 187.416 523.289 188.988 525.226 188.988C527.162 188.988 528.717 187.432 528.717 185.494C528.717 183.556 527.162 182 525.226 182C523.289 182 521.734 183.556 521.734 185.494ZM486.74 185.494C486.74 187.416 488.296 188.988 490.232 188.988C492.168 188.988 493.723 187.432 493.723 185.494C493.723 183.556 492.168 182 490.232 182C488.296 182 486.74 183.556 486.74 185.494ZM451.731 185.494C451.731 187.416 453.286 188.988 455.222 188.988C457.158 188.988 458.714 187.432 458.714 185.494C458.714 183.556 457.158 182 455.222 182C453.286 182 451.731 183.556 451.731 185.494ZM416.737 185.494C416.737 187.416 418.292 188.988 420.228 188.988C422.165 188.988 423.72 187.432 423.72 185.494C423.72 183.556 422.149 182 420.228 182C418.308 182 416.737 183.556 416.737 185.494ZM381.727 185.494C381.727 187.416 383.283 188.988 385.219 188.988C387.155 188.988 388.71 187.432 388.71 185.494C388.71 183.556 387.155 182 385.219 182C383.283 182 381.727 183.556 381.727 185.494Z" fill="black"/>
<path d="M304.474 491.767L305.54 496.784L313.149 489.913L303.405 486.77L304.474 491.767Z" fill="#FF0054"/>
<path d="M646.14 676.78L651.252 677.083L646.654 667.941L641.026 676.497L646.14 676.78Z" fill="#FF0054"/>
<path d="M247.574 594.641L249.214 599.484L255.958 591.778L245.914 589.796L247.574 594.641Z" fill="#FF0054"/>
<path d="M377.87 288.395L385.686 295.002L386.591 289.971L387.507 284.931L377.87 288.395Z" fill="#FF0054"/>
<path d="M657.041 323.238L656.251 333.442L660.862 331.235L665.486 329.032L657.041 323.238Z" fill="#FF0054"/>
<path d="M558.651 369.84L555.39 373.785L552.139 377.741L557.176 378.582L562.222 379.434L558.651 369.84Z" fill="#FF0054"/>
<path d="M607.044 538.833L602.327 536.833L597.621 534.823L598.237 539.896L598.842 544.978L607.044 538.833Z" fill="#FF0054"/>
<path d="M597.797 439.501L597.17 444.58L596.554 449.651L601.273 447.651L605.973 445.649L597.797 439.501Z" fill="#FF0054"/>
<path d="M168.165 237.653C180.277 236.105 221.892 229.597 274.999 251.288C305.123 265.852 332.142 307.065 332.142 307.065C332.142 307.065 365.062 341.461 399.224 351.687C433.386 361.913 468.79 342.391 468.79 342.391C468.79 342.391 512.579 417.69 523.449 437.832C530.592 451.467 532.145 460.454 532.145 476.567C531.524 502.597 508.542 519.33 508.542 519.33C508.542 519.33 493.635 529.246 486.803 532.654C457.61 540.711 441.15 531.105 441.15 531.105C422.516 523.048 411.025 502.906 411.025 502.906L303.57 318.531C303.57 318.531 290.527 286.924 272.203 285.374C253.88 283.824 242.389 287.544 210.712 312.333C179.035 337.123 178.103 342.081 157.606 359.744C137.109 377.407 128.102 372.139 115.99 368.421C103.878 364.702 83.3812 339.603 80.2755 324.108C77.1699 308.614 73.4432 303.346 89.903 279.177C106.363 255.007 156.053 239.202 168.165 237.653Z" fill="url(#paint9_linear_418_43)"/>
<path d="M412.183 256.114C411.076 254.2 411.731 251.751 413.646 250.646L492.65 205.054C494.557 203.953 496.995 204.601 498.104 206.503L605.308 390.334C621.325 418.064 629.099 444.897 628.63 470.832C628.067 496.603 620.168 520.41 604.933 542.252C589.697 564.094 567.963 583.162 539.731 599.454C511.825 615.559 484.437 624.839 457.569 627.295C430.864 629.657 406.043 624.732 383.107 612.522C360.239 600.055 340.796 579.956 324.779 552.225L217.594 368.426C216.477 366.511 217.13 364.054 219.05 362.946L298.275 317.226C300.187 316.122 302.631 316.776 303.737 318.686L402.971 490.135C411.451 504.816 420.497 515.581 430.111 522.431C439.63 529.117 449.695 532.226 460.304 531.758C470.913 531.29 482.011 527.713 493.598 521.027C505.348 514.246 513.996 506.428 519.543 497.572C525.09 488.716 527.265 478.543 526.068 467.054C524.778 455.402 519.892 442.235 511.413 427.554L412.183 256.114Z" fill="white"/>
<path opacity="0.5" d="M636.091 385.951L636.09 385.949L510.812 171.319C509.564 169.181 506.822 168.452 504.678 169.689L411.456 223.438C409.299 224.681 408.562 227.439 409.809 229.592L525.79 429.793C525.79 429.793 525.79 429.793 525.79 429.793C535.653 446.853 541.313 462.117 542.807 475.593C544.191 488.871 541.674 500.601 535.275 510.808C528.865 521.033 518.854 530.086 505.21 537.952C491.758 545.709 478.901 549.842 466.634 550.382C454.389 550.922 442.766 547.34 431.753 539.611C420.627 531.691 410.128 519.221 400.267 502.164L400.267 502.164L284.277 301.949C283.033 299.801 280.286 299.067 278.136 300.306L184.651 354.207C182.49 355.453 181.755 358.219 183.012 360.374L308.268 574.965C326.972 607.317 349.693 630.796 376.443 645.366L376.447 645.369C403.268 659.634 432.294 665.386 463.512 662.627L463.514 662.627C494.913 659.76 526.902 648.925 559.477 630.143C592.432 611.143 617.823 588.894 635.631 563.388C653.442 537.876 662.682 510.059 663.34 479.947L663.34 479.945C663.889 449.636 654.794 418.302 636.091 385.951Z" stroke="url(#paint10_linear_418_43)"/>
<defs>
<linearGradient id="paint0_linear_418_43" x1="51" y1="687" x2="1097" y2="17" gradientUnits="userSpaceOnUse">
<stop stop-color="#638DFF"/>
<stop offset="1" stop-color="#638DFF" stop-opacity="0"/>
</linearGradient>
<linearGradient id="paint1_linear_418_43" x1="51" y1="687" x2="1097" y2="17" gradientUnits="userSpaceOnUse">
<stop stop-color="#638DFF"/>
<stop offset="1" stop-color="#638DFF" stop-opacity="0"/>
</linearGradient>
<linearGradient id="paint2_linear_418_43" x1="51" y1="687" x2="1097" y2="17" gradientUnits="userSpaceOnUse">
<stop stop-color="#638DFF"/>
<stop offset="1" stop-color="#638DFF" stop-opacity="0"/>
</linearGradient>
<linearGradient id="paint3_linear_418_43" x1="51" y1="687" x2="1097" y2="17" gradientUnits="userSpaceOnUse">
<stop stop-color="#638DFF"/>
<stop offset="1" stop-color="#638DFF" stop-opacity="0"/>
</linearGradient>
<linearGradient id="paint4_linear_418_43" x1="51" y1="687" x2="1097" y2="17" gradientUnits="userSpaceOnUse">
<stop stop-color="#638DFF"/>
<stop offset="1" stop-color="#638DFF" stop-opacity="0"/>
</linearGradient>
<linearGradient id="paint5_linear_418_43" x1="51" y1="687" x2="1097" y2="17" gradientUnits="userSpaceOnUse">
<stop stop-color="#638DFF"/>
<stop offset="1" stop-color="#638DFF" stop-opacity="0"/>
</linearGradient>
<linearGradient id="paint6_linear_418_43" x1="51" y1="687" x2="1097" y2="17" gradientUnits="userSpaceOnUse">
<stop stop-color="#638DFF"/>
<stop offset="1" stop-color="#638DFF" stop-opacity="0"/>
</linearGradient>
<linearGradient id="paint7_linear_418_43" x1="51" y1="687" x2="1097" y2="17" gradientUnits="userSpaceOnUse">
<stop stop-color="#638DFF"/>
<stop offset="1" stop-color="#638DFF" stop-opacity="0"/>
</linearGradient>
<linearGradient id="paint8_linear_418_43" x1="51" y1="687" x2="1097" y2="17" gradientUnits="userSpaceOnUse">
<stop stop-color="#638DFF"/>
<stop offset="1" stop-color="#638DFF" stop-opacity="0"/>
</linearGradient>
<linearGradient id="paint9_linear_418_43" x1="304.86" y1="235.533" x2="305.082" y2="558.013" gradientUnits="userSpaceOnUse">
<stop stop-color="#FF0054"/>
<stop offset="1" stop-color="#FF0054" stop-opacity="0"/>
</linearGradient>
<linearGradient id="paint10_linear_418_43" x1="662.864" y1="763.335" x2="278.65" y2="348.441" gradientUnits="userSpaceOnUse">
<stop stop-color="white"/>
<stop offset="1" stop-color="white" stop-opacity="0"/>
</linearGradient>
</defs>
</svg>
