<svg width="290" height="286" viewBox="0 0 290 286" fill="none" xmlns="http://www.w3.org/2000/svg">
<path fill-rule="evenodd" clip-rule="evenodd" d="M37.7396 162.43C28.9096 129.636 27.8746 89.4863 51.9464 65.4029C74.3838 42.9548 111.464 57.6719 143.215 56.9041C163.477 56.4142 182.856 53.8695 201.489 61.787C223.235 71.0275 247.757 81.765 254.727 104.288C261.821 127.209 249.224 151.247 235.223 170.792C222.642 188.355 202.158 195.003 182.812 204.682C154.655 218.768 128.916 247.884 98.7118 239.087C66.0594 229.577 46.5593 195.186 37.7396 162.43Z" fill="#FF0054"/>
<path fill-rule="evenodd" clip-rule="evenodd" d="M39.8903 138.746C40.3557 105.793 50.0495 68.0437 78.9115 51.9564C105.814 36.9613 136.516 60.5427 166.355 68.2561C185.397 73.1785 204.16 75.9485 219.449 88.2854C237.293 102.684 257.33 119.217 257.856 142.09C258.391 165.367 240.252 184.458 221.994 198.984C205.588 212.036 184.704 212.802 164.078 216.7C134.057 222.372 102.303 242.713 76.4468 226.483C48.4952 208.938 39.4255 171.661 39.8903 138.746Z" stroke="#D6C1C1"/>
<mask id="mask0_660_114" style="mask-type:alpha" maskUnits="userSpaceOnUse" x="27" y="31" width="226" height="223">
<path fill-rule="evenodd" clip-rule="evenodd" d="M170.277 32.8033C199.715 40.1634 214.06 76.0556 228.018 102.929C242.102 130.045 258.282 158.655 251.029 188.271C243.605 218.587 210.852 234.58 181.694 245.931C155.667 256.064 127.227 256.405 100.995 246.68C75.8955 237.376 56.429 218.368 43.8163 194.818C30.9474 170.789 20.7402 142.122 31.6541 117.208C42.0603 93.4532 63.5201 79.0012 85.7099 65.4902C111.559 49.7512 140.847 25.4452 170.277 32.8033Z" fill="url(#paint0_linear_660_114)"/>
</mask>
<g mask="url(#mask0_660_114)">
<path fill-rule="evenodd" clip-rule="evenodd" d="M170.277 32.8033C199.715 40.1634 214.06 76.0556 228.018 102.929C242.102 130.045 258.282 158.655 251.029 188.271C243.605 218.587 210.852 234.58 181.694 245.931C155.667 256.064 127.227 256.405 100.995 246.68C75.8955 237.376 56.429 218.368 43.8163 194.818C30.9474 170.789 20.7402 142.122 31.6541 117.208C42.0603 93.4532 63.5201 79.0012 85.7099 65.4902C111.559 49.7512 140.847 25.4452 170.277 32.8033Z" fill="#414667"/>
</g>
<defs>
<linearGradient id="paint0_linear_660_114" x1="179.217" y1="35.6138" x2="109.879" y2="249.663" gradientUnits="userSpaceOnUse">
<stop stop-color="#3A3D5A"/>
<stop offset="1" stop-color="#1E2033"/>
</linearGradient>
</defs>
</svg>
