<svg width="1282" height="1024" viewBox="0 0 1282 1024" fill="none" xmlns="http://www.w3.org/2000/svg">
<g opacity="0.4">
<path d="M724.631 379.961C797.557 426.162 819.192 522.716 773.01 595.612C726.827 668.508 630.235 690.203 557.339 644.021C484.443 597.838 462.749 501.246 508.95 428.321C555.151 355.395 651.706 333.76 724.631 379.961Z" stroke="url(#paint0_linear_658_107)" stroke-miterlimit="10"/>
<path d="M536.743 676.53C445.881 618.966 418.887 498.634 476.451 407.773C534.015 316.911 654.347 289.916 745.209 347.48C836.071 405.045 863.065 525.376 805.501 616.238C747.936 707.1 627.605 734.095 536.743 676.53Z" stroke="url(#paint1_linear_658_107)" stroke-miterlimit="10"/>
<path d="M516.166 709.01C407.368 640.083 375.043 495.993 443.971 387.195C512.899 278.397 656.988 246.072 765.786 315C874.584 383.928 906.909 528.017 837.981 636.815C769.053 745.614 624.964 777.938 516.166 709.01Z" stroke="url(#paint2_linear_658_107)" stroke-miterlimit="10"/>
<path d="M495.588 741.491C368.824 661.181 331.17 493.334 411.48 366.57C491.79 239.805 659.637 202.151 786.401 282.461C913.165 362.771 950.819 530.618 870.509 657.382C790.2 784.146 622.353 821.8 495.588 741.491Z" stroke="url(#paint3_linear_658_107)" stroke-miterlimit="10"/>
<path d="M474.992 774C330.292 682.327 287.308 490.722 378.981 346.022C470.654 201.321 662.259 158.337 806.96 250.01C951.66 341.684 994.644 533.288 902.971 677.989C811.298 822.689 619.693 865.673 474.992 774Z" stroke="url(#paint4_linear_658_107)" stroke-miterlimit="10"/>
<path d="M454.415 806.48C291.778 703.444 243.435 488.062 346.471 325.426C449.508 162.789 664.871 114.475 827.537 217.53C990.203 320.585 1038.49 535.929 935.451 698.566C832.414 861.203 617.052 909.517 454.415 806.48Z" stroke="url(#paint5_linear_658_107)" stroke-miterlimit="10"/>
<path d="M433.837 838.961C253.264 724.561 199.591 485.421 314.01 304.819C428.428 124.216 667.56 70.6206 848.133 185.021C1028.71 299.42 1082.38 538.56 967.961 719.162C853.542 899.765 614.422 953.409 433.819 838.99L433.837 838.961Z" stroke="url(#paint6_linear_658_107)" stroke-miterlimit="10"/>
<path d="M413.241 871.47C214.702 745.688 155.729 482.81 281.511 284.271C407.293 85.7316 670.201 26.777 868.711 152.54C1067.22 278.304 1126.22 541.201 1000.44 739.74C874.659 938.279 611.78 997.252 413.241 871.47Z" stroke="url(#paint7_linear_658_107)" stroke-miterlimit="10"/>
<path d="M889.307 120.031C1105.78 257.176 1170.1 543.86 1032.95 760.336C895.805 976.811 609.169 1041.11 392.694 903.969C176.218 766.824 111.886 480.169 249.031 263.693C386.176 47.2179 672.831 -17.1147 889.307 120.031Z" stroke="url(#paint8_linear_658_107)" stroke-miterlimit="10"/>
</g>
<path d="M463 473.014C463 462.973 516.139 518.461 555.599 493.623C595.059 468.786 624.522 457.688 662.93 473.014C701.338 488.339 662.93 677 662.93 677H463C463 677 463 483.055 463 473.014Z" fill="url(#paint9_linear_658_107)"/>
<path d="M680.712 789C673.281 789 667.476 786.914 663.296 782.741C659.581 779.031 656.563 775.786 654.24 773.004L630.556 741.707C612.444 747.735 591.777 750.748 568.557 750.748C525.831 750.748 488.679 743.794 457.099 729.884C425.983 715.974 401.37 695.11 383.258 667.29C365.61 639.007 356.09 603.769 354.697 561.577C354.232 541.64 354 521.702 354 501.765C354 481.828 354.232 461.659 354.697 441.258C356.09 399.529 365.842 364.523 383.954 336.24C402.066 307.493 426.912 285.933 458.492 271.56C490.072 257.187 526.76 250 568.557 250C610.818 250 647.739 257.187 679.319 271.56C710.898 285.933 735.744 307.493 753.856 336.24C771.968 364.523 781.721 399.529 783.114 441.258C784.043 461.659 784.507 481.828 784.507 501.765C784.507 521.702 784.043 541.64 783.114 561.577C780.328 619.07 763.609 663.581 732.958 695.11L783.811 767.44C784.275 767.904 784.739 768.831 785.204 770.222C785.668 771.613 785.9 773.004 785.9 774.395C786.365 778.104 785.204 781.35 782.417 784.132C779.631 787.377 776.148 789 771.968 789H680.712ZM568.557 650.599C593.171 650.599 613.14 643.18 628.466 628.343C644.256 613.506 652.615 589.86 653.544 557.404C654.473 537.003 654.937 517.761 654.937 499.679C654.937 481.596 654.473 462.818 653.544 443.345C653.079 421.553 649.132 403.934 641.701 390.488C634.271 376.578 624.286 366.378 611.747 359.886C599.208 353.395 584.811 350.15 568.557 350.15C552.767 350.15 538.603 353.395 526.064 359.886C513.525 366.378 503.54 376.578 496.109 390.488C488.679 403.934 484.731 421.553 484.267 443.345C483.802 462.818 483.57 481.596 483.57 499.679C483.57 517.761 483.802 537.003 484.267 557.404C485.196 589.86 493.323 613.506 508.648 628.343C524.438 643.18 544.408 650.599 568.557 650.599Z" fill="white"/>
<path opacity="0.5" d="M694.994 796.817L695.002 796.826L695.01 796.835C697.625 799.72 701.019 803.079 705.188 806.911C709.989 811.324 716.628 813.5 725.038 813.5H827.279C832.091 813.5 836.122 811.776 839.339 808.333C842.548 805.376 843.92 801.887 843.388 797.901C843.384 796.415 843.113 794.934 842.578 793.459C842.132 792.23 841.669 791.293 841.172 790.696C841.093 790.6 841.027 790.525 840.966 790.457C840.884 790.364 840.812 790.283 840.731 790.177L786.153 718.704C785.069 717.283 785.23 715.268 786.51 714.001C819.316 681.533 837.218 636.322 840.266 578.43L840.266 578.429C841.307 557.855 841.828 537.28 841.828 516.706C841.828 496.133 841.307 475.321 840.266 454.271C838.702 411.152 827.755 374.945 807.399 345.677C787.049 315.939 759.134 293.64 723.671 278.779C688.216 263.921 646.783 256.5 599.383 256.5C552.503 256.5 511.331 263.922 475.877 278.779C440.414 293.64 412.499 315.939 392.148 345.676C371.792 374.945 360.844 411.152 359.281 454.272H359.281L359.281 454.278C358.76 475.326 358.5 496.136 358.5 516.706C358.5 537.276 358.76 557.846 359.281 578.417L359.281 578.422C360.844 622.017 371.53 658.463 391.366 687.732L391.371 687.74C411.722 716.52 439.377 738.1 474.319 752.482L474.321 752.483C509.775 766.861 551.466 774.042 599.383 774.042C624.346 774.042 646.693 771.184 666.418 765.461C667.787 765.064 669.26 765.508 670.159 766.602L694.994 796.817ZM666.176 646.898L666.171 646.903C649.109 662.111 626.863 669.734 599.383 669.734C572.429 669.734 550.178 662.113 532.593 646.9C515.566 631.721 506.485 607.487 505.447 574.084C504.927 553.044 504.667 533.201 504.667 514.554C504.667 495.905 504.927 476.539 505.447 456.456L505.447 456.454C505.966 434.03 510.377 415.948 518.644 402.176L518.647 402.17C526.925 387.902 538.039 377.453 551.99 370.804C565.963 364.144 581.757 360.808 599.383 360.808C617.532 360.808 633.586 364.145 647.557 370.804C661.508 377.453 672.622 387.902 680.9 402.17L680.903 402.176C689.17 415.948 693.581 434.03 694.1 456.454L694.1 456.461L694.101 456.468C695.141 476.548 695.661 495.91 695.661 514.554C695.661 533.197 695.141 553.038 694.101 574.075L694.1 574.084C693.062 607.485 683.722 631.718 666.176 646.898Z" stroke="url(#paint10_linear_658_107)"/>
<path d="M451 602.771C451 603.327 450.83 603.772 450.489 604.105C450.186 604.401 449.921 604.642 449.694 604.827L446.969 606.828C447.575 608.421 447.877 610.236 447.877 612.274C447.877 615.645 447.31 618.553 446.174 620.998C445.039 623.443 443.335 625.351 441.065 626.722C438.756 628.055 435.86 628.796 432.378 628.944C430.751 628.981 429.142 629 427.552 629C425.925 629 424.278 628.981 422.613 628.944C419.206 628.796 416.349 628.037 414.04 626.666C411.693 625.258 409.933 623.332 408.76 620.887C407.587 618.405 407 615.534 407 612.274C407 609.014 407.587 606.161 408.76 603.716C409.933 601.234 411.693 599.289 414.04 597.881C416.349 596.474 419.206 595.714 422.613 595.603C424.278 595.529 425.925 595.492 427.552 595.492C429.142 595.492 430.751 595.529 432.378 595.603C437.223 595.825 440.913 597.177 443.449 599.66L449.24 595.659C449.278 595.622 449.354 595.585 449.467 595.547C449.581 595.51 449.694 595.492 449.808 595.492C450.111 595.455 450.375 595.547 450.603 595.77C450.868 595.992 451 596.27 451 596.603L451 602.771ZM440.554 612.274C440.554 610.088 439.891 608.31 438.566 606.939C437.204 605.568 435.046 604.827 432.094 604.716C430.429 604.642 428.877 604.605 427.439 604.605C425.963 604.605 424.411 604.642 422.783 604.716C420.815 604.79 419.206 605.161 417.957 605.828C416.708 606.458 415.8 607.328 415.232 608.439C414.627 609.551 414.324 610.829 414.324 612.274C414.324 613.681 414.627 614.941 415.232 616.052C415.8 617.164 416.708 618.053 417.957 618.72C419.206 619.387 420.815 619.757 422.783 619.831C424.411 619.868 425.963 619.887 427.439 619.887C428.877 619.887 430.429 619.868 432.094 619.831C435.046 619.72 437.204 618.979 438.566 617.608C439.891 616.201 440.554 614.422 440.554 612.274Z" fill="#24263B"/>
<path d="M447.877 572.702C447.877 575.962 447.329 578.814 446.231 581.259C445.095 583.704 443.373 585.594 441.065 586.927C438.718 588.261 435.747 588.928 432.151 588.928L408.987 588.928C408.571 588.928 408.23 588.798 407.965 588.539C407.7 588.28 407.568 587.946 407.568 587.539L407.568 581.482C407.568 581.074 407.7 580.741 407.965 580.481C408.23 580.222 408.571 580.092 408.987 580.092L432.094 580.092C434.895 580.092 436.977 579.444 438.339 578.147C439.702 576.851 440.383 575.036 440.383 572.702C440.383 570.405 439.702 568.608 438.339 567.311C436.977 566.015 434.895 565.367 432.094 565.367L408.987 565.367C408.571 565.367 408.23 565.237 407.965 564.978C407.7 564.681 407.568 564.348 407.568 563.977L407.568 557.865C407.568 557.494 407.7 557.179 407.965 556.92C408.23 556.661 408.571 556.531 408.987 556.531L432.151 556.531C435.747 556.531 438.718 557.198 441.065 558.532C443.373 559.865 445.095 561.736 446.231 564.144C447.329 566.552 447.877 569.405 447.877 572.702Z" fill="#24263B"/>
<path d="M447.31 551.801C447.31 552.134 447.196 552.412 446.969 552.634C446.704 552.857 446.42 552.968 446.117 552.968C445.928 552.968 445.758 552.949 445.606 552.912L409.101 539.687C408.684 539.576 408.325 539.353 408.022 539.02C407.719 538.686 407.568 538.223 407.568 537.631L407.568 530.518C407.568 529.925 407.719 529.462 408.022 529.129C408.325 528.795 408.684 528.573 409.101 528.462L445.606 515.236C445.758 515.199 445.928 515.181 446.117 515.181C446.42 515.181 446.704 515.292 446.969 515.514C447.196 515.736 447.31 516.014 447.31 516.348L447.31 522.127C447.31 522.683 447.177 523.09 446.912 523.349C446.647 523.609 446.401 523.775 446.174 523.85L439.815 526.239L439.815 541.909L446.174 544.299C446.401 544.373 446.647 544.54 446.912 544.799C447.177 545.058 447.31 545.466 447.31 546.022L447.31 551.801ZM432.492 539.853L432.492 528.351L416.141 534.074L432.492 539.853Z" fill="#24263B"/>
<path d="M447.31 509.007C447.31 509.415 447.177 509.748 446.912 510.007C446.647 510.267 446.307 510.396 445.89 510.396L408.987 510.396C408.571 510.396 408.23 510.267 407.965 510.007C407.7 509.748 407.568 509.415 407.568 509.007L407.568 502.839C407.568 502.431 407.7 502.098 407.965 501.839C408.23 501.579 408.571 501.45 408.987 501.45L439.702 501.45L439.702 484.223C439.702 483.816 439.834 483.482 440.099 483.223C440.364 482.964 440.705 482.834 441.121 482.834L445.89 482.834C446.307 482.834 446.647 482.964 446.912 483.223C447.177 483.482 447.31 483.816 447.31 484.223L447.31 509.007Z" fill="#24263B"/>
<path d="M447.31 476.339C447.31 476.746 447.177 477.079 446.912 477.339C446.647 477.598 446.307 477.728 445.89 477.728L408.987 477.728C408.571 477.728 408.23 477.598 407.965 477.339C407.7 477.079 407.568 476.746 407.568 476.339L407.568 470.059C407.568 469.652 407.7 469.318 407.965 469.059C408.23 468.8 408.571 468.67 408.987 468.67L445.89 468.67C446.307 468.67 446.647 468.8 446.912 469.059C447.177 469.318 447.31 469.652 447.31 470.059L447.31 476.339Z" fill="#24263B"/>
<path d="M447.31 450.524C447.31 450.932 447.177 451.265 446.912 451.524C446.647 451.784 446.307 451.913 445.89 451.913L415.459 451.913L415.459 462.027C415.459 462.397 415.327 462.712 415.062 462.972C414.797 463.231 414.475 463.361 414.097 463.361L408.987 463.361C408.571 463.361 408.23 463.231 407.965 462.972C407.7 462.712 407.568 462.397 407.568 462.027L407.568 432.909C407.568 432.501 407.7 432.168 407.965 431.908C408.23 431.649 408.571 431.52 408.987 431.52L414.097 431.52C414.475 431.52 414.797 431.649 415.062 431.908C415.327 432.168 415.459 432.501 415.459 432.909L415.459 442.967L445.89 442.967C446.307 442.967 446.647 443.096 446.912 443.356C447.177 443.615 447.31 443.948 447.31 444.356L447.31 450.524Z" fill="#24263B"/>
<path d="M447.31 414.672C447.31 415.079 447.177 415.413 446.912 415.672C446.647 415.931 446.307 416.061 445.89 416.061L433.4 416.061L409.385 429.064C409.271 429.101 409.176 429.138 409.101 429.175C408.987 429.212 408.874 429.231 408.76 429.231C408.457 429.231 408.192 429.12 407.965 428.897C407.7 428.638 407.568 428.36 407.568 428.064L407.568 422.173C407.568 421.655 407.7 421.247 407.965 420.951C408.23 420.655 408.476 420.451 408.703 420.34L424.316 411.615L408.703 402.891C408.476 402.78 408.23 402.576 407.965 402.28C407.7 401.983 407.568 401.576 407.568 401.057L407.568 395.167C407.568 394.871 407.7 394.611 407.965 394.389C408.192 394.13 408.457 394 408.76 394C408.874 394 408.987 394.019 409.101 394.056C409.176 394.093 409.271 394.13 409.385 394.167L433.4 407.17L445.89 407.17C446.307 407.17 446.647 407.3 446.912 407.559C447.177 407.818 447.31 408.152 447.31 408.559L447.31 414.672Z" fill="#24263B"/>
<defs>
<linearGradient id="paint0_linear_658_107" x1="1403.75" y1="856.135" x2="574.749" y2="823.982" gradientUnits="userSpaceOnUse">
<stop stop-color="#638DFF"/>
<stop offset="1" stop-color="#638DFF" stop-opacity="0"/>
</linearGradient>
<linearGradient id="paint1_linear_658_107" x1="1403.75" y1="856.135" x2="574.749" y2="823.982" gradientUnits="userSpaceOnUse">
<stop stop-color="#638DFF"/>
<stop offset="1" stop-color="#638DFF" stop-opacity="0"/>
</linearGradient>
<linearGradient id="paint2_linear_658_107" x1="1403.75" y1="856.135" x2="574.749" y2="823.982" gradientUnits="userSpaceOnUse">
<stop stop-color="#638DFF"/>
<stop offset="1" stop-color="#638DFF" stop-opacity="0"/>
</linearGradient>
<linearGradient id="paint3_linear_658_107" x1="1403.75" y1="856.135" x2="574.749" y2="823.982" gradientUnits="userSpaceOnUse">
<stop stop-color="#638DFF"/>
<stop offset="1" stop-color="#638DFF" stop-opacity="0"/>
</linearGradient>
<linearGradient id="paint4_linear_658_107" x1="1403.75" y1="856.135" x2="574.749" y2="823.982" gradientUnits="userSpaceOnUse">
<stop stop-color="#638DFF"/>
<stop offset="1" stop-color="#638DFF" stop-opacity="0"/>
</linearGradient>
<linearGradient id="paint5_linear_658_107" x1="1403.75" y1="856.135" x2="574.749" y2="823.982" gradientUnits="userSpaceOnUse">
<stop stop-color="#638DFF"/>
<stop offset="1" stop-color="#638DFF" stop-opacity="0"/>
</linearGradient>
<linearGradient id="paint6_linear_658_107" x1="1403.75" y1="856.135" x2="574.749" y2="823.982" gradientUnits="userSpaceOnUse">
<stop stop-color="#638DFF"/>
<stop offset="1" stop-color="#638DFF" stop-opacity="0"/>
</linearGradient>
<linearGradient id="paint7_linear_658_107" x1="1403.75" y1="856.135" x2="574.749" y2="823.982" gradientUnits="userSpaceOnUse">
<stop stop-color="#638DFF"/>
<stop offset="1" stop-color="#638DFF" stop-opacity="0"/>
</linearGradient>
<linearGradient id="paint8_linear_658_107" x1="1403.75" y1="856.135" x2="574.749" y2="823.982" gradientUnits="userSpaceOnUse">
<stop stop-color="#638DFF"/>
<stop offset="1" stop-color="#638DFF" stop-opacity="0"/>
</linearGradient>
<linearGradient id="paint9_linear_658_107" x1="571.5" y1="466" x2="571.73" y2="692.554" gradientUnits="userSpaceOnUse">
<stop stop-color="#FF0054"/>
<stop offset="1" stop-color="#FF0054" stop-opacity="0"/>
</linearGradient>
<linearGradient id="paint10_linear_658_107" x1="843" y1="926.004" x2="410.132" y2="507.931" gradientUnits="userSpaceOnUse">
<stop stop-color="white"/>
<stop offset="1" stop-color="white" stop-opacity="0"/>
</linearGradient>
</defs>
</svg>
