<svg width="901" height="901" viewBox="0 0 901 901" fill="none" xmlns="http://www.w3.org/2000/svg">
<g opacity="0.4">
<path d="M458.135 594.335C378.619 598.613 310.721 537.617 306.445 458.133C302.169 378.649 363.161 310.687 442.645 306.411C522.129 302.135 590.091 363.128 594.369 442.644C598.647 522.159 537.651 590.057 458.135 594.335Z" stroke="url(#paint0_linear_786_137)" stroke-miterlimit="10"/>
<path d="M440.738 270.964C539.811 265.634 624.453 341.633 629.783 440.706C635.112 539.779 559.113 624.42 460.04 629.75C360.967 635.08 276.326 559.081 270.996 460.008C265.666 360.935 341.665 276.294 440.738 270.964Z" stroke="url(#paint1_linear_786_137)" stroke-miterlimit="10"/>
<path d="M438.833 235.548C557.464 229.166 658.816 320.17 665.198 438.801C671.58 557.431 580.576 658.784 461.945 665.166C343.315 671.548 241.962 580.544 235.58 461.913C229.198 343.283 320.202 241.93 438.833 235.548Z" stroke="url(#paint2_linear_786_137)" stroke-miterlimit="10"/>
<path d="M436.928 200.133C575.148 192.697 693.211 298.706 700.647 436.926C708.083 575.146 602.074 693.21 463.854 700.646C325.634 708.082 207.57 602.072 200.134 463.852C192.699 325.632 298.708 207.569 436.928 200.133Z" stroke="url(#paint3_linear_786_137)" stroke-miterlimit="10"/>
<path d="M435.021 164.685C592.798 156.197 727.573 277.211 736.061 434.989C744.549 592.766 623.535 727.541 465.758 736.029C307.98 744.517 173.205 623.503 164.717 465.725C156.229 307.948 277.243 173.173 435.021 164.685Z" stroke="url(#paint4_linear_786_137)" stroke-miterlimit="10"/>
<path d="M433.115 129.27C610.45 119.729 761.969 255.747 771.509 433.082C781.049 610.416 645.03 761.903 467.663 771.444C290.296 780.986 138.842 644.965 129.302 467.631C119.762 290.296 255.781 138.81 433.115 129.27Z" stroke="url(#paint5_linear_786_137)" stroke-miterlimit="10"/>
<path d="M431.21 93.8541C628.102 83.2618 796.332 234.284 806.926 431.209C817.52 628.133 666.462 796.3 469.57 806.892C272.678 817.484 104.448 666.462 93.8541 469.538C83.2601 272.614 234.284 104.416 431.208 93.822L431.21 93.8541Z" stroke="url(#paint6_linear_786_137)" stroke-miterlimit="10"/>
<path d="M429.303 58.4065C645.785 46.7603 830.694 212.79 842.34 429.271C853.986 645.753 687.924 830.663 471.475 842.308C255.026 853.952 70.0848 687.924 58.4386 471.443C46.7925 254.961 212.822 70.0526 429.303 58.4065Z" stroke="url(#paint7_linear_786_137)" stroke-miterlimit="10"/>
<path d="M473.382 877.755C237.343 890.453 35.6892 709.389 22.991 473.35C10.2927 237.311 191.327 35.6912 427.366 22.9929C663.405 10.2946 865.057 191.327 877.755 427.366C890.453 663.405 709.421 865.057 473.382 877.755Z" stroke="url(#paint8_linear_786_137)" stroke-miterlimit="10"/>
</g>
<path d="M624.374 370.891C625.769 360.947 563.874 318.391 471.374 331.391C378.874 344.391 350.699 261.748 294.874 269.391C239.049 277.033 300.267 503.788 300.267 503.788L579.777 543.007C579.777 543.007 622.979 380.834 624.374 370.891Z" fill="url(#paint9_linear_786_137)"/>
<path opacity="0.5" d="M236.383 685.249L236.391 685.26L236.399 685.27C240.499 690.535 246.445 693.843 254.184 695.222L311.499 705.433C319.684 706.891 326.15 706.057 330.804 702.81C335.911 699.249 339.605 695.407 341.851 691.278C341.851 691.277 341.852 691.276 341.852 691.276L451.717 492.912C453.331 489.998 457.719 490.773 458.237 494.064L493.518 718.297C493.518 718.298 493.519 718.298 493.519 718.299C494.198 722.935 496.089 727.764 499.17 732.785L499.186 732.81L499.204 732.833C502.92 737.544 508.676 740.562 516.398 741.938L574.43 752.277C582.161 753.654 588.654 752.566 593.852 748.945C599.482 745.44 603.355 740.609 605.453 734.465C605.454 734.464 605.455 734.462 605.455 734.46L726.628 402.151C726.743 401.836 726.912 401.532 727.112 401.216C727.602 400.442 727.926 399.63 728.078 398.78L728.079 398.775L728.08 398.769L728.081 398.764L728.082 398.758L728.082 398.752L728.083 398.747L728.084 398.741L728.085 398.736L728.086 398.73L728.087 398.725L728.088 398.719L728.089 398.714L728.09 398.708L728.091 398.702L728.092 398.697L728.093 398.691L728.094 398.686L728.095 398.68L728.096 398.675L728.097 398.669L728.098 398.664L728.099 398.658L728.1 398.653L728.101 398.648L728.102 398.642L728.103 398.637L728.104 398.631L728.105 398.626L728.106 398.62L728.107 398.615L728.108 398.609L728.109 398.604L728.11 398.599L728.111 398.593L728.112 398.588L728.113 398.582L728.114 398.577L728.115 398.572L728.116 398.566L728.117 398.561L728.118 398.555L728.119 398.55L728.12 398.545L728.12 398.539L728.121 398.534L728.122 398.529L728.123 398.523L728.124 398.518L728.125 398.513L728.126 398.507L728.127 398.502L728.128 398.497L728.129 398.491L728.13 398.486L728.131 398.481L728.132 398.475L728.133 398.47L728.134 398.465L728.135 398.46L728.136 398.454L728.137 398.449L728.137 398.444L728.138 398.439L728.139 398.433L728.14 398.428L728.141 398.423L728.142 398.418L728.143 398.412L728.144 398.407L728.145 398.402L728.146 398.397L728.147 398.391L728.148 398.386L728.149 398.381L728.15 398.376L728.15 398.371L728.151 398.366L728.152 398.36L728.153 398.355L728.154 398.35L728.155 398.345L728.156 398.34L728.157 398.335L728.158 398.329L728.159 398.324L728.16 398.319L728.161 398.314L728.162 398.309L728.162 398.304L728.163 398.299L728.164 398.294L728.165 398.289L728.166 398.283L728.167 398.278L728.168 398.273L728.169 398.268L728.17 398.263L728.171 398.258L728.171 398.253L728.172 398.248L728.173 398.243L728.174 398.238L728.175 398.233L728.176 398.228L728.177 398.223L728.178 398.218L728.179 398.213L728.18 398.208L728.18 398.203L728.181 398.198L728.182 398.193L728.183 398.188L728.184 398.183L728.185 398.178L728.186 398.173L728.187 398.168L728.188 398.163L728.188 398.158L728.189 398.153L728.19 398.148L728.191 398.143L728.192 398.138L728.193 398.133L728.194 398.128L728.195 398.123L728.195 398.118L728.196 398.114L728.197 398.109L728.198 398.104L728.199 398.099L728.2 398.094L728.201 398.089L728.202 398.084L728.202 398.079L728.203 398.075L728.204 398.07L728.205 398.065L728.206 398.06L728.207 398.055L728.208 398.05L728.208 398.045L728.209 398.041L728.21 398.036L728.211 398.031L728.212 398.026L728.213 398.021L728.214 398.017L728.214 398.012L728.215 398.007L728.216 398.002L728.217 397.997L728.218 397.993L728.219 397.988L728.22 397.983L728.22 397.978L728.221 397.974L728.222 397.969L728.223 397.964L728.224 397.959L728.225 397.955L728.225 397.95L728.226 397.945L728.227 397.941L728.228 397.936L728.229 397.931L728.23 397.927L728.23 397.922L728.231 397.917L728.232 397.912L728.233 397.908L728.234 397.903L728.235 397.898L728.235 397.894L728.236 397.889L728.237 397.885L728.238 397.88L728.239 397.875L728.24 397.871L728.24 397.866L728.241 397.861L728.242 397.857L728.243 397.852L728.244 397.848L728.245 397.843L728.245 397.838L728.246 397.834L728.247 397.829L728.248 397.825L728.249 397.82L728.249 397.816L728.25 397.811L728.251 397.806L728.252 397.802L728.253 397.797L728.253 397.793L728.254 397.788L728.255 397.784L728.256 397.779L728.257 397.775L728.257 397.77L728.258 397.766L728.259 397.761L728.26 397.757L728.261 397.752L728.261 397.748L728.262 397.743L728.263 397.739L728.264 397.734L728.265 397.73L728.265 397.725L728.266 397.721L728.267 397.717L728.268 397.712L728.269 397.708L728.269 397.703L728.27 397.699L728.271 397.694L728.272 397.69L728.273 397.686L728.273 397.681L728.274 397.677L728.275 397.672L728.276 397.668L728.276 397.664L728.277 397.659L728.278 397.655L728.279 397.651L728.28 397.646L728.28 397.642L728.281 397.638L728.282 397.633L728.283 397.629L728.283 397.625L728.284 397.62L728.285 397.616L728.286 397.612L728.286 397.607L728.287 397.603L728.288 397.599L728.289 397.594L728.29 397.59L728.29 397.586L728.291 397.582L728.292 397.577L728.293 397.573L728.293 397.569L728.294 397.565L728.295 397.56L728.296 397.556L728.296 397.552L728.297 397.548L728.298 397.543L728.299 397.539L728.299 397.535L728.3 397.531L728.301 397.527L728.302 397.522L728.302 397.518L728.303 397.514L728.304 397.51L728.305 397.506L728.305 397.502L728.306 397.497L728.307 397.493L728.308 397.489L728.308 397.485L728.309 397.481L728.31 397.477L728.311 397.473L728.311 397.468L728.312 397.464L728.313 397.46L728.313 397.456L728.314 397.452L728.315 397.448L728.316 397.444L728.316 397.44L728.317 397.436L728.318 397.432L728.319 397.427L728.319 397.423L728.32 397.419L728.321 397.415L728.321 397.411L728.322 397.407L728.323 397.403L728.324 397.399L728.324 397.395L728.325 397.391L728.326 397.387L728.326 397.383L728.327 397.379L728.328 397.375L728.329 397.371L728.329 397.367L728.33 397.363L728.331 397.359L728.331 397.355L728.332 397.351L728.333 397.347L728.334 397.343L728.334 397.339L728.335 397.335L728.336 397.331L728.336 397.327L728.337 397.324L728.338 397.32L728.338 397.316L728.339 397.312L728.34 397.308L728.341 397.304L728.341 397.3L728.342 397.296L728.343 397.292L728.343 397.288L728.344 397.285L728.345 397.281L728.345 397.277L728.346 397.273L728.347 397.269L728.347 397.265L728.348 397.261L728.349 397.258L728.349 397.254L728.35 397.25L728.351 397.246L728.352 397.242L728.352 397.239L728.353 397.235L728.354 397.231L728.354 397.227L728.355 397.223L728.356 397.22L728.356 397.216L728.357 397.212L728.358 397.208L728.358 397.205L728.359 397.201L728.36 397.197L728.36 397.193L728.361 397.19L728.362 397.186L728.362 397.182L728.363 397.178L728.364 397.175L728.364 397.171L728.365 397.167L728.366 397.164L728.366 397.16L728.367 397.156L728.368 397.153L728.368 397.149L728.369 397.145L728.369 397.141L728.37 397.138L728.371 397.134L728.371 397.131L728.372 397.127L728.373 397.123L728.373 397.12L728.374 397.116L728.375 397.112L728.375 397.109L728.376 397.105L728.377 397.102L728.377 397.098L728.378 397.094L728.379 397.091L728.379 397.087L728.38 397.084L728.38 397.08L728.381 397.076L728.382 397.073L728.382 397.069L728.383 397.066L728.384 397.062L728.384 397.059L728.385 397.055L728.385 397.052L728.386 397.048L728.387 397.045L728.387 397.041L728.388 397.038L728.389 397.034L728.389 397.031L728.39 397.027L728.39 397.024L728.391 397.02L728.392 397.017L728.392 397.013L728.393 397.01L728.394 397.006L728.394 397.003L728.395 396.999L728.395 396.996L728.396 396.993L728.397 396.989L728.397 396.986L728.398 396.982L728.398 396.979L728.399 396.975L728.4 396.972L728.4 396.969L728.401 396.965L728.401 396.962L728.402 396.958L728.403 396.955L728.403 396.952L728.404 396.948L728.404 396.945L728.405 396.942L728.406 396.938L728.406 396.935L728.407 396.932L728.407 396.928L728.408 396.925L728.409 396.922L728.409 396.918L728.41 396.915L728.41 396.912L728.411 396.908L728.412 396.905L728.412 396.902L728.413 396.899L728.413 396.895L728.414 396.892L728.415 396.889L728.415 396.885L728.416 396.882L728.416 396.879L728.417 396.876L728.417 396.872L728.418 396.869L728.419 396.866L728.419 396.863L728.42 396.86L728.42 396.856L728.421 396.853L728.421 396.85L728.422 396.847L728.423 396.844L728.423 396.84L728.424 396.837L728.424 396.834L728.425 396.831L728.425 396.828L728.426 396.825L728.427 396.821L728.427 396.818L728.428 396.815L728.428 396.812L728.429 396.809L728.429 396.806L728.43 396.803L728.43 396.8L728.431 396.796L728.432 396.793L728.432 396.79L728.433 396.787L728.433 396.784L728.434 396.781L728.434 396.778L728.435 396.775L728.435 396.772L728.436 396.769L728.436 396.766L728.437 396.763L728.438 396.76L728.438 396.757L728.439 396.753L728.439 396.75L728.44 396.747L728.44 396.744L728.441 396.741L728.441 396.738L728.442 396.735L728.442 396.732L728.443 396.729L728.443 396.726L728.444 396.723L728.444 396.721L728.445 396.718L728.446 396.715L728.446 396.712L728.447 396.709L728.447 396.706L728.448 396.703L728.448 396.7L728.449 396.697L728.449 396.694L728.45 396.691L728.45 396.688L728.451 396.685L728.451 396.682L728.452 396.679L728.452 396.677L728.453 396.674L728.453 396.671L728.454 396.668L728.454 396.665L728.455 396.662L728.455 396.659L728.456 396.657L728.456 396.654L728.457 396.651L728.457 396.648L728.458 396.645L728.458 396.642L728.459 396.64L728.459 396.637L728.46 396.634L728.46 396.631C729.165 392.677 728.295 388.951 725.877 385.478C723.536 381.512 720.131 379.118 715.691 378.326L640.466 364.924C633.962 363.766 628.609 364.115 624.452 366.044C620.28 367.98 617.378 371.476 615.732 376.468C615.731 376.471 615.731 376.473 615.73 376.475L556.586 541.834C555.347 545.299 550.285 544.749 549.819 541.099L526.627 359.505C526.344 355.427 524.889 350.921 522.294 345.994C519.618 340.914 514.339 337.728 506.61 336.351L461.474 328.31C453.745 326.933 447.69 328.099 443.425 331.942C439.29 335.668 436.142 339.34 433.996 342.961L433.988 342.974L433.981 342.987L349.953 506.342C348.273 509.609 343.338 508.412 343.341 504.738L343.583 208.699C343.583 208.696 343.583 208.693 343.584 208.69C343.762 203.443 342.311 199.172 339.185 195.934C336.069 192.707 331.343 190.56 325.075 189.443L249.85 176.041C245.409 175.25 241.388 176.321 237.82 179.235C234.352 181.659 232.249 184.856 231.544 188.81L231.544 188.812L231.543 188.815L231.543 188.818L231.542 188.821L231.542 188.824L231.541 188.827L231.541 188.829L231.54 188.832L231.54 188.835L231.539 188.838L231.539 188.841L231.538 188.844L231.538 188.846L231.537 188.849L231.537 188.852L231.536 188.855L231.536 188.858L231.535 188.861L231.535 188.864L231.534 188.867L231.534 188.87L231.533 188.873L231.533 188.875L231.532 188.878L231.531 188.881L231.531 188.884L231.53 188.887L231.53 188.89L231.529 188.893L231.529 188.896L231.528 188.899L231.528 188.902L231.527 188.905L231.527 188.908L231.526 188.911L231.526 188.914L231.525 188.917L231.525 188.92L231.524 188.923L231.524 188.926L231.523 188.929L231.522 188.932L231.522 188.935L231.521 188.938L231.521 188.941L231.52 188.944L231.52 188.947L231.519 188.95L231.519 188.953L231.518 188.956L231.518 188.959L231.517 188.963L231.516 188.966L231.516 188.969L231.515 188.972L231.515 188.975L231.514 188.978L231.514 188.981L231.513 188.984L231.513 188.987L231.512 188.99L231.511 188.994L231.511 188.997L231.51 189L231.51 189.003L231.509 189.006L231.509 189.009L231.508 189.013L231.508 189.016L231.507 189.019L231.506 189.022L231.506 189.025L231.505 189.028L231.505 189.032L231.504 189.035L231.504 189.038L231.503 189.041L231.502 189.045L231.502 189.048L231.501 189.051L231.501 189.054L231.5 189.057L231.5 189.061L231.499 189.064L231.498 189.067L231.498 189.071L231.497 189.074L231.497 189.077L231.496 189.08L231.495 189.084L231.495 189.087L231.494 189.09L231.494 189.094L231.493 189.097L231.493 189.1L231.492 189.103L231.491 189.107L231.491 189.11L231.49 189.113L231.49 189.117L231.489 189.12L231.488 189.123L231.488 189.127L231.487 189.13L231.487 189.134L231.486 189.137L231.485 189.14L231.485 189.144L231.484 189.147L231.484 189.151L231.483 189.154L231.482 189.157L231.482 189.161L231.481 189.164L231.48 189.168L231.48 189.171L231.479 189.174L231.479 189.178L231.478 189.181L231.477 189.185L231.477 189.188L231.476 189.192L231.476 189.195L231.475 189.199L231.474 189.202L231.474 189.206L231.473 189.209L231.472 189.213L231.472 189.216L231.471 189.22L231.471 189.223L231.47 189.227L231.469 189.23L231.469 189.234L231.468 189.237L231.467 189.241L231.467 189.244L231.466 189.248L231.466 189.251L231.465 189.255L231.464 189.259L231.464 189.262L231.463 189.266L231.462 189.269L231.462 189.273L231.461 189.276L231.46 189.28L231.46 189.284L231.459 189.287L231.459 189.291L231.458 189.294L231.457 189.298L231.457 189.302L231.456 189.305L231.455 189.309L231.455 189.313L231.454 189.316L231.453 189.32L231.453 189.324L231.452 189.327L231.451 189.331L231.451 189.335L231.45 189.338L231.449 189.342L231.449 189.346L231.448 189.349L231.447 189.353L231.447 189.357L231.446 189.361L231.445 189.364L231.445 189.368L231.444 189.372L231.443 189.376L231.443 189.379L231.442 189.383L231.441 189.387L231.441 189.391L231.44 189.394L231.439 189.398L231.439 189.402L231.438 189.406L231.437 189.409L231.437 189.413L231.436 189.417L231.435 189.421L231.435 189.425L231.434 189.428L231.433 189.432L231.433 189.436L231.432 189.44L231.431 189.444L231.431 189.448L231.43 189.452L231.429 189.455L231.429 189.459L231.428 189.463L231.427 189.467L231.426 189.471L231.426 189.475L231.425 189.479L231.424 189.483L231.424 189.486L231.423 189.49L231.422 189.494L231.422 189.498L231.421 189.502L231.42 189.506L231.419 189.51L231.419 189.514L231.418 189.518L231.417 189.522L231.417 189.526L231.416 189.53L231.415 189.534L231.415 189.538L231.414 189.542L231.413 189.546L231.412 189.55L231.412 189.554L231.411 189.558L231.41 189.562L231.41 189.566L231.409 189.57L231.408 189.574L231.407 189.578L231.407 189.582L231.406 189.586L231.405 189.59L231.405 189.594L231.404 189.598L231.403 189.602L231.402 189.606L231.402 189.61L231.401 189.614L231.4 189.618L231.399 189.622L231.399 189.626L231.398 189.63L231.397 189.635L231.397 189.639L231.396 189.643L231.395 189.647L231.394 189.651L231.394 189.655L231.393 189.659L231.392 189.663L231.391 189.668L231.391 189.672L231.39 189.676L231.389 189.68L231.388 189.684L231.388 189.688L231.387 189.693L231.386 189.697L231.385 189.701L231.385 189.705L231.384 189.709L231.383 189.714L231.382 189.718L231.382 189.722L231.381 189.726L231.38 189.73L231.379 189.735L231.379 189.739L231.378 189.743L231.377 189.747L231.376 189.752L231.376 189.756L231.375 189.76L231.374 189.764L231.373 189.769L231.373 189.773L231.372 189.777L231.371 189.782L231.37 189.786L231.37 189.79L231.369 189.794L231.368 189.799L231.367 189.803L231.366 189.807L231.366 189.812L231.365 189.816L231.364 189.82L231.363 189.825L231.363 189.829L231.362 189.833L231.361 189.838L231.36 189.842L231.36 189.847L231.359 189.851L231.358 189.855L231.357 189.86L231.356 189.864L231.356 189.869L231.355 189.873L231.354 189.877L231.353 189.882L231.352 189.886L231.352 189.891L231.351 189.895L231.35 189.9L231.349 189.904L231.348 189.908L231.348 189.913L231.347 189.917L231.346 189.922L231.345 189.926L231.345 189.931L231.344 189.935L231.343 189.94L231.342 189.944L231.341 189.949L231.341 189.953L231.34 189.958L231.339 189.962L231.338 189.967L231.337 189.971L231.336 189.976L231.336 189.98L231.335 189.985L231.334 189.989L231.333 189.994L231.332 189.999L231.332 190.003L231.331 190.008L231.33 190.012L231.329 190.017L231.328 190.021L231.328 190.026L231.327 190.031L231.326 190.035L231.325 190.04L231.324 190.045L231.323 190.049L231.323 190.054L231.322 190.058L231.321 190.063L231.32 190.068L231.319 190.072L231.318 190.077L231.318 190.082L231.317 190.086L231.316 190.091L231.315 190.096L231.314 190.1L231.313 190.105L231.313 190.11L231.312 190.114L231.311 190.119L231.31 190.124L231.309 190.129L231.308 190.133L231.308 190.138L231.307 190.143L231.306 190.147L231.305 190.152L231.304 190.157L231.303 190.162L231.303 190.166L231.302 190.171L231.301 190.176L231.3 190.181L231.299 190.186L231.298 190.19L231.297 190.195L231.297 190.2L231.296 190.205L231.295 190.21L231.294 190.214L231.293 190.219L231.292 190.224L231.291 190.229L231.291 190.234L231.29 190.238L231.289 190.243L231.288 190.248L231.287 190.253L231.286 190.258L231.285 190.263L231.285 190.268L231.284 190.273L231.283 190.277L231.282 190.282L231.281 190.287L231.28 190.292L231.279 190.297L231.278 190.302L231.278 190.307L231.277 190.312L231.276 190.317L231.275 190.322L231.274 190.327L231.273 190.331L231.272 190.336L231.271 190.341L231.27 190.346L231.27 190.351L231.269 190.356L231.268 190.361L231.267 190.366L231.266 190.371L231.265 190.376L231.264 190.381L231.263 190.386L231.262 190.391L231.262 190.396L231.261 190.401L231.26 190.406L231.259 190.411L231.258 190.416L231.257 190.421L231.256 190.426L231.255 190.431L231.254 190.437L231.254 190.442L231.253 190.447L231.252 190.452L231.251 190.457L231.25 190.462L231.249 190.467L231.248 190.472L231.247 190.477L231.246 190.482L231.245 190.487L231.244 190.493L231.244 190.498L231.243 190.503L231.242 190.508L231.241 190.513L231.24 190.518L231.239 190.523L231.238 190.529L231.237 190.534L231.236 190.539L231.235 190.544L231.234 190.549L231.233 190.554L231.232 190.56L231.232 190.565L231.231 190.57L231.23 190.575L231.229 190.58L231.228 190.586L231.227 190.591L231.226 190.596L231.225 190.601L231.224 190.607L231.223 190.612L231.222 190.617L231.221 190.622L231.22 190.628L231.219 190.633L231.219 190.638L231.218 190.643L231.217 190.649L231.216 190.654L231.215 190.659L231.214 190.665L231.213 190.67L231.212 190.675L231.211 190.68L231.21 190.686L231.209 190.691L231.208 190.696L231.207 190.702L231.206 190.707L231.205 190.712L231.204 190.718L231.203 190.723L231.202 190.729L231.201 190.734L231.2 190.739L231.2 190.745L231.199 190.75L231.198 190.755L231.197 190.761L231.196 190.766L231.195 190.772L231.194 190.777L231.193 190.782L231.192 190.788L231.191 190.793L231.19 190.799L231.189 190.804L231.188 190.81L231.187 190.815L231.186 190.821L231.185 190.826L231.184 190.832L231.183 190.837L231.182 190.842L231.181 190.848L231.18 190.853L231.179 190.859L231.178 190.864L231.177 190.87L231.176 190.875L231.175 190.881L231.174 190.886L231.173 190.892L231.172 190.898L231.171 190.903L231.17 190.909L231.169 190.914L231.168 190.92L231.167 190.925L231.166 190.931L231.165 190.936L231.164 190.942L231.163 190.948L231.162 190.953L231.161 190.959C231.01 191.81 231.034 192.686 231.227 193.584C231.305 193.946 231.359 194.287 231.359 194.619L231.221 667.787C231.22 667.789 231.22 667.79 231.22 667.792C231.068 674.271 232.788 680.096 236.383 685.249Z" stroke="url(#paint10_linear_786_137)"/>
<path d="M245.993 657.215C238.792 655.932 233.301 652.865 229.522 648.012C226.193 643.24 224.6 637.849 224.742 631.837L224.873 185.397C224.583 184.416 224.519 183.476 224.679 182.576C224.839 181.676 224.96 181.001 225.04 180.551C225.681 176.95 227.593 174.041 230.774 171.821C234.036 169.152 237.692 168.178 241.743 168.9L312.631 181.529C324.333 183.614 330.017 189.502 329.684 199.194L329.442 493.776L415.759 325.971C417.751 322.611 420.682 319.187 424.555 315.698C428.427 312.208 433.964 311.105 441.165 312.388L483.698 319.966C490.899 321.249 495.714 324.196 498.143 328.808C500.572 333.42 501.916 337.606 502.174 341.367L526.023 528.102L587.056 357.46C590.09 348.249 597.683 344.727 609.835 346.892L680.723 359.521C684.774 360.243 687.869 362.419 690.008 366.051C692.227 369.232 693.016 372.623 692.375 376.224C692.295 376.674 692.174 377.349 692.014 378.249C691.854 379.149 691.468 380.009 690.858 380.829L576.48 694.503C574.538 700.193 570.955 704.663 565.733 707.912C560.96 711.24 554.973 712.263 547.772 710.98L493.087 701.238C485.886 699.955 480.581 697.152 477.171 692.83C474.292 688.138 472.539 683.647 471.91 679.356L436.957 457.21L328.109 653.736C326.037 657.546 322.615 661.115 317.843 664.444C313.601 667.403 307.654 668.201 300.003 666.838L245.993 657.215Z" fill="white"/>
<path d="M293.465 553.345C293.465 553.793 293.339 554.157 293.087 554.437C292.834 554.688 292.526 554.842 292.162 554.898L265.236 559.664C265.18 559.692 265.124 559.706 265.068 559.706C265.012 559.706 264.97 559.706 264.942 559.706C264.718 559.706 264.522 559.621 264.354 559.453C264.159 559.285 264.061 559.075 264.061 558.823L264.065 554.413C264.065 553.685 264.359 553.279 264.948 553.196L282.716 550.06L271.673 546.649C271.449 546.565 271.211 546.425 270.959 546.229C270.707 546.032 270.582 545.71 270.582 545.262L270.584 542.616C270.584 542.168 270.711 541.846 270.963 541.651C271.215 541.455 271.453 541.329 271.677 541.273L282.684 537.838L264.963 534.716C264.375 534.631 264.081 534.211 264.082 533.455L264.085 529.045C264.085 528.793 264.184 528.583 264.38 528.415C264.548 528.247 264.744 528.164 264.968 528.164C264.996 528.164 265.038 528.164 265.094 528.164C265.15 528.164 265.206 528.178 265.262 528.206L292.18 533.016C292.544 533.072 292.852 533.24 293.104 533.521C293.355 533.773 293.481 534.123 293.481 534.571L293.478 537.973C293.478 538.421 293.365 538.771 293.141 539.023C292.889 539.246 292.637 539.4 292.385 539.484L279.361 543.967L292.377 548.43C292.629 548.514 292.881 548.682 293.133 548.935C293.357 549.159 293.469 549.509 293.468 549.985L293.465 553.345Z" fill="#1E1F31"/>
<path d="M293.49 522.507C293.49 522.815 293.392 523.067 293.196 523.262C293 523.458 292.748 523.556 292.44 523.556L265.14 523.534C264.832 523.534 264.58 523.435 264.384 523.239C264.188 523.043 264.09 522.791 264.09 522.483L264.099 511.353C264.102 507.853 264.917 505.096 266.542 503.081C268.14 501.066 270.451 500.06 273.475 500.063C275.519 500.064 277.226 500.556 278.597 501.537C279.969 502.518 280.99 503.835 281.66 505.487L292.165 499.574C292.333 499.49 292.487 499.448 292.627 499.448C292.851 499.448 293.061 499.532 293.257 499.701C293.425 499.869 293.509 500.079 293.508 500.331L293.505 504.993C293.504 505.497 293.378 505.875 293.126 506.126C292.846 506.378 292.593 506.56 292.369 506.672L282.747 511.788L282.743 516.87L292.445 516.878C292.753 516.878 293.005 516.976 293.201 517.172C293.397 517.369 293.494 517.621 293.494 517.929L293.49 522.507ZM277.409 516.866L277.413 511.49C277.415 509.95 277.066 508.815 276.366 508.087C275.667 507.33 274.687 506.951 273.427 506.95C272.167 506.949 271.173 507.313 270.444 508.04C269.716 508.767 269.351 509.915 269.349 511.483L269.345 516.859L277.409 516.866Z" fill="#1E1F31"/>
<path d="M293.514 493.878C293.513 494.186 293.415 494.438 293.219 494.634C293.023 494.829 292.771 494.927 292.463 494.927L265.163 494.905C264.855 494.905 264.603 494.806 264.407 494.61C264.211 494.414 264.113 494.162 264.114 493.854L264.118 489.108C264.118 488.8 264.216 488.548 264.412 488.352C264.608 488.156 264.86 488.059 265.168 488.059L292.468 488.081C292.776 488.081 293.028 488.179 293.224 488.376C293.42 488.572 293.518 488.824 293.517 489.132L293.514 493.878Z" fill="#1E1F31"/>
<path d="M293.529 474.367C293.529 474.675 293.431 474.927 293.235 475.123C293.039 475.318 292.787 475.416 292.479 475.416L269.967 475.398L269.96 483.042C269.96 483.322 269.862 483.56 269.666 483.756C269.47 483.951 269.232 484.049 268.952 484.049L265.172 484.046C264.864 484.046 264.612 483.947 264.416 483.751C264.22 483.555 264.122 483.317 264.122 483.037L264.14 461.029C264.141 460.721 264.239 460.469 264.435 460.273C264.631 460.077 264.883 459.98 265.191 459.98L268.971 459.983C269.251 459.983 269.489 460.081 269.685 460.278C269.881 460.474 269.979 460.726 269.978 461.034L269.972 468.636L292.484 468.654C292.792 468.654 293.044 468.752 293.24 468.949C293.436 469.145 293.533 469.397 293.533 469.705L293.529 474.367Z" fill="#1E1F31"/>
<path d="M293.545 454.913C293.545 455.221 293.447 455.473 293.251 455.669C293.054 455.865 292.802 455.962 292.494 455.962L265.194 455.94C264.886 455.94 264.634 455.842 264.439 455.645C264.243 455.449 264.145 455.197 264.145 454.889L264.161 435.863C264.161 435.555 264.259 435.303 264.455 435.107C264.651 434.912 264.904 434.814 265.212 434.814L268.572 434.817C268.852 434.817 269.089 434.915 269.285 435.111C269.481 435.307 269.579 435.56 269.579 435.868L269.568 449.476L276.162 449.481L276.172 436.797C276.172 436.489 276.27 436.237 276.467 436.041C276.663 435.845 276.915 435.748 277.223 435.748L280.331 435.75C280.611 435.751 280.849 435.849 281.045 436.045C281.24 436.241 281.338 436.493 281.338 436.801L281.328 449.485L288.132 449.491L288.143 435.547C288.143 435.239 288.241 434.987 288.438 434.791C288.634 434.595 288.886 434.497 289.194 434.497L292.512 434.5C292.82 434.5 293.072 434.599 293.268 434.795C293.463 434.991 293.561 435.243 293.561 435.551L293.545 454.913Z" fill="#1E1F31"/>
<path d="M293.579 413.705C293.578 414.013 293.48 414.265 293.284 414.461C293.088 414.656 292.836 414.754 292.528 414.754L270.016 414.736L270.01 422.38C270.009 422.66 269.911 422.898 269.715 423.093C269.519 423.289 269.281 423.387 269.001 423.387L265.221 423.384C264.913 423.384 264.661 423.285 264.465 423.089C264.269 422.893 264.171 422.655 264.172 422.375L264.189 400.367C264.19 400.059 264.288 399.807 264.484 399.611C264.68 399.415 264.932 399.318 265.24 399.318L269.02 399.321C269.3 399.321 269.538 399.419 269.734 399.615C269.93 399.812 270.028 400.064 270.027 400.372L270.021 407.974L292.533 407.992C292.841 407.992 293.093 408.09 293.289 408.287C293.485 408.483 293.583 408.735 293.582 409.043L293.579 413.705Z" fill="#1E1F31"/>
<path d="M294.023 384.117C294.021 386.665 293.599 388.863 292.757 390.71C291.916 392.558 290.655 393.999 288.974 395.033C287.265 396.068 285.122 396.626 282.546 396.708C281.342 396.735 280.152 396.748 278.976 396.747C277.772 396.746 276.554 396.731 275.322 396.702C272.802 396.616 270.689 396.055 268.982 395.017C267.247 393.952 265.946 392.495 265.079 390.646C264.213 388.769 263.781 386.585 263.783 384.093C263.785 381.629 264.22 379.473 265.09 377.626C265.959 375.751 267.263 374.282 268.999 373.219C270.708 372.157 272.823 371.598 275.343 371.544C276.575 371.489 277.793 371.462 278.997 371.463C280.173 371.464 281.363 371.493 282.567 371.55C285.143 371.636 287.284 372.198 288.991 373.235C290.671 374.273 291.929 375.716 292.768 377.564C293.606 379.413 294.025 381.597 294.023 384.117ZM288.605 384.113C288.606 382.489 288.117 381.159 287.138 380.122C286.131 379.057 284.535 378.496 282.351 378.438C281.119 378.381 279.971 378.352 278.907 378.351C277.815 378.35 276.667 378.377 275.463 378.432C274.007 378.459 272.817 378.724 271.893 379.228C270.968 379.731 270.296 380.402 269.875 381.242C269.426 382.054 269.202 383.005 269.201 384.097C269.2 385.189 269.423 386.156 269.87 386.996C270.29 387.836 270.961 388.509 271.885 389.014C272.808 389.49 273.998 389.757 275.454 389.814C276.658 389.843 277.806 389.858 278.898 389.859C279.962 389.86 281.11 389.847 282.342 389.82C284.526 389.738 286.123 389.179 287.131 388.144C288.112 387.109 288.603 385.765 288.605 384.113Z" fill="#1E1F31"/>
<path d="M294.054 344.981C294.052 347.445 293.645 349.6 292.831 351.448C291.99 353.295 290.714 354.722 289.006 355.729C287.269 356.735 285.07 357.237 282.41 357.235L265.274 357.221C264.966 357.221 264.715 357.123 264.519 356.927C264.323 356.731 264.225 356.479 264.225 356.171L264.229 351.593C264.229 351.285 264.327 351.033 264.524 350.837C264.72 350.641 264.972 350.543 265.28 350.543L282.374 350.557C284.446 350.559 285.986 350.07 286.995 349.091C288.004 348.112 288.509 346.74 288.51 344.976C288.512 343.24 288.009 341.882 287.002 340.901C285.994 339.92 284.455 339.429 282.383 339.427L265.289 339.413C264.981 339.413 264.729 339.315 264.533 339.119C264.337 338.895 264.239 338.643 264.24 338.363L264.243 333.743C264.244 333.463 264.342 333.225 264.538 333.029C264.734 332.833 264.986 332.735 265.294 332.735L282.43 332.749C285.09 332.751 287.288 333.257 289.023 334.267C290.73 335.276 292.003 336.691 292.842 338.512C293.652 340.332 294.056 342.489 294.054 344.981Z" fill="#1E1F31"/>
<path d="M294.078 316.221C294.075 318.909 293.682 321.163 292.896 322.982C292.111 324.774 291.088 326.131 289.827 327.054C288.566 327.977 287.222 328.466 285.794 328.52C285.57 328.52 285.374 328.436 285.206 328.268C285.01 328.1 284.912 327.89 284.912 327.638L284.916 323.144C284.916 322.78 285.001 322.5 285.169 322.304C285.309 322.108 285.491 321.926 285.715 321.758C286.191 321.563 286.654 321.255 287.102 320.836C287.55 320.388 287.929 319.786 288.237 319.03C288.518 318.275 288.659 317.337 288.66 316.217C288.661 314.397 288.368 313.039 287.781 312.142C287.194 311.218 286.396 310.755 285.388 310.754C284.66 310.754 284.072 311.005 283.623 311.509C283.175 311.984 282.768 312.754 282.404 313.818C282.039 314.853 281.646 316.239 281.224 317.975C280.775 320.074 280.199 321.866 279.498 323.349C278.769 324.805 277.844 325.91 276.723 326.665C275.575 327.392 274.16 327.755 272.48 327.754C270.8 327.752 269.317 327.289 268.029 326.364C266.714 325.439 265.693 324.136 264.967 322.456C264.212 320.775 263.836 318.773 263.837 316.449C263.839 314.573 264.092 312.921 264.597 311.493C265.103 310.038 265.762 308.834 266.574 307.883C267.387 306.904 268.256 306.162 269.18 305.659C270.105 305.156 271.001 304.89 271.869 304.863C272.093 304.863 272.303 304.948 272.499 305.116C272.667 305.284 272.75 305.494 272.75 305.746L272.746 310.45C272.746 310.73 272.69 310.982 272.578 311.206C272.466 311.43 272.269 311.612 271.989 311.751C271.261 311.919 270.631 312.422 270.098 313.262C269.537 314.073 269.257 315.137 269.255 316.453C269.254 317.825 269.505 318.917 270.009 319.73C270.512 320.514 271.282 320.907 272.318 320.908C272.99 320.908 273.564 320.713 274.04 320.321C274.489 319.901 274.895 319.216 275.26 318.264C275.597 317.284 275.976 315.997 276.397 314.401C276.903 311.937 277.507 309.936 278.208 308.396C278.909 306.857 279.82 305.724 280.941 304.997C282.033 304.269 283.42 303.907 285.1 303.908C286.976 303.909 288.585 304.443 289.928 305.508C291.272 306.545 292.306 307.988 293.033 309.836C293.731 311.657 294.08 313.785 294.078 316.221Z" fill="#1E1F31"/>
<defs>
<linearGradient id="paint0_linear_786_137" x1="-306.92" y1="599.655" x2="333.318" y2="180.471" gradientUnits="userSpaceOnUse">
<stop stop-color="#638DFF"/>
<stop offset="1" stop-color="#638DFF" stop-opacity="0"/>
</linearGradient>
<linearGradient id="paint1_linear_786_137" x1="-306.92" y1="599.655" x2="333.318" y2="180.471" gradientUnits="userSpaceOnUse">
<stop stop-color="#638DFF"/>
<stop offset="1" stop-color="#638DFF" stop-opacity="0"/>
</linearGradient>
<linearGradient id="paint2_linear_786_137" x1="-306.92" y1="599.655" x2="333.318" y2="180.471" gradientUnits="userSpaceOnUse">
<stop stop-color="#638DFF"/>
<stop offset="1" stop-color="#638DFF" stop-opacity="0"/>
</linearGradient>
<linearGradient id="paint3_linear_786_137" x1="-306.92" y1="599.655" x2="333.318" y2="180.471" gradientUnits="userSpaceOnUse">
<stop stop-color="#638DFF"/>
<stop offset="1" stop-color="#638DFF" stop-opacity="0"/>
</linearGradient>
<linearGradient id="paint4_linear_786_137" x1="-306.92" y1="599.655" x2="333.318" y2="180.471" gradientUnits="userSpaceOnUse">
<stop stop-color="#638DFF"/>
<stop offset="1" stop-color="#638DFF" stop-opacity="0"/>
</linearGradient>
<linearGradient id="paint5_linear_786_137" x1="-306.92" y1="599.655" x2="333.318" y2="180.471" gradientUnits="userSpaceOnUse">
<stop stop-color="#638DFF"/>
<stop offset="1" stop-color="#638DFF" stop-opacity="0"/>
</linearGradient>
<linearGradient id="paint6_linear_786_137" x1="-306.92" y1="599.655" x2="333.318" y2="180.471" gradientUnits="userSpaceOnUse">
<stop stop-color="#638DFF"/>
<stop offset="1" stop-color="#638DFF" stop-opacity="0"/>
</linearGradient>
<linearGradient id="paint7_linear_786_137" x1="-306.92" y1="599.655" x2="333.318" y2="180.471" gradientUnits="userSpaceOnUse">
<stop stop-color="#638DFF"/>
<stop offset="1" stop-color="#638DFF" stop-opacity="0"/>
</linearGradient>
<linearGradient id="paint8_linear_786_137" x1="-306.92" y1="599.655" x2="333.318" y2="180.471" gradientUnits="userSpaceOnUse">
<stop stop-color="#638DFF"/>
<stop offset="1" stop-color="#638DFF" stop-opacity="0"/>
</linearGradient>
<linearGradient id="paint9_linear_786_137" x1="457.41" y1="312.769" x2="425.768" y2="537.102" gradientUnits="userSpaceOnUse">
<stop stop-color="#FF0054"/>
<stop offset="1" stop-color="#FF0054" stop-opacity="0"/>
</linearGradient>
<linearGradient id="paint10_linear_786_137" x1="643.746" y1="869.275" x2="335.381" y2="357.798" gradientUnits="userSpaceOnUse">
<stop stop-color="white"/>
<stop offset="1" stop-color="white" stop-opacity="0"/>
</linearGradient>
</defs>
</svg>
